<svg width="500" height="500" viewBox="0 0 500 500" fill="none" xmlns="http://www.w3.org/2000/svg">
<path d="M478.525 219.773C484.65 165.919 466.444 111.842 428.219 73.415C409.425 54.522 383.717 36.719 349.567 28.118C253.79 3.99699 191.716 26.095 160.685 84.783C129.654 143.471 40.611 133.352 26.444 234.539C12.277 335.726 81.085 447.03 197.787 453.101C314.489 459.172 299.468 401.079 363.305 376.159C412.129 357.1 469.385 300.137 478.525 219.773Z" fill="#578E7E"/>
<path opacity="0.7" d="M478.525 219.773C484.65 165.919 466.444 111.842 428.219 73.415C409.425 54.522 383.717 36.719 349.567 28.118C253.79 3.99699 191.716 26.095 160.685 84.783C129.654 143.471 40.611 133.352 26.444 234.539C12.277 335.726 81.085 447.03 197.787 453.101C314.489 459.172 299.468 401.079 363.305 376.159C412.129 357.1 469.385 300.137 478.525 219.773Z" fill="white"/>
<path d="M416.931 283.959L416.934 283.953C416.953 283.904 416.93 283.848 416.881 283.827C416.831 283.805 416.773 283.828 416.752 283.878C413.781 290.739 411.693 297.94 409.949 305.204C408.266 312.488 407.047 319.878 406.195 327.313L405.663 332.901C405.581 333.833 405.479 334.764 405.413 335.698L405.26 338.501C405.179 340.371 405.065 342.241 405.012 344.112L405.063 349.728L405.125 352.534C405.167 353.469 405.234 354.403 405.297 355.336C405.439 357.203 405.552 390.166 405.723 392.028C406.081 395.751 406.641 399.455 407.217 403.141C407.224 403.188 407.265 403.224 407.315 403.224C407.369 403.224 407.413 403.18 407.413 403.125V403.12C407.403 401.248 407.324 399.386 407.282 397.524C407.228 395.662 407.066 393.81 407.092 391.948C407.101 390.087 407.052 357.134 407.031 355.277L406.979 352.494L407.028 349.71L407.053 344.145L407.204 338.583L407.262 335.8C407.297 334.873 407.367 333.948 407.418 333.022L407.759 327.464C408.41 320.067 409.426 312.697 410.908 305.413C412.387 298.137 414.215 290.888 416.931 283.959Z" fill="#263238"/>
<path d="M417.728 313.057C417.742 313.007 417.716 312.951 417.667 312.934C417.616 312.916 417.56 312.943 417.542 312.995C415.94 317.619 414.662 322.348 413.581 327.128C412.548 331.916 411.737 336.766 411.242 341.653C410.748 346.523 410.203 351.398 410.137 356.294C410.062 361.188 410.14 397.184 410.657 402.073C410.662 402.118 410.698 402.156 410.745 402.161C410.799 402.167 410.848 402.127 410.854 402.073C411.42 397.198 411.765 361.239 412.102 356.377C412.447 351.518 412.494 346.645 412.81 341.783C413.104 336.937 413.712 332.111 414.546 327.316C415.362 322.521 416.382 317.743 417.728 313.057Z" fill="#263238"/>
<path d="M433.86 323.294C433.831 323.248 433.77 323.234 433.724 323.264C429.686 325.821 426.085 329.04 422.937 332.668C421.39 334.509 419.952 336.437 418.719 338.533L417.852 340.169L417.174 341.868C416.93 342.431 416.758 343.012 416.582 343.591C416.408 344.171 416.213 344.748 416.056 345.332C414.844 350.008 414.042 385.868 413.824 390.658C413.629 395.444 413.72 400.238 414.359 404.99C414.366 405.035 414.403 405.072 414.45 405.075C414.504 405.079 414.552 405.038 414.555 404.984L415.784 390.797C416.274 386.107 416.574 350.293 417.581 345.712C417.709 345.142 417.873 344.584 418.017 344.018C418.164 343.453 418.305 342.885 418.515 342.347L419.091 340.707L419.832 339.158C420.924 337.108 422.26 335.148 423.697 333.29C426.578 329.572 429.967 326.183 433.825 323.432L433.83 323.428C433.876 323.396 433.888 323.338 433.86 323.294Z" fill="#263238"/>
<path d="M426.052 341.521C423.854 342.94 422.383 345.172 421.147 347.417C419.969 349.712 419.04 352.146 418.399 354.641C418.206 355.259 418.054 355.885 417.919 356.515L417.474 358.401C417.247 359.668 417.07 392.044 416.998 393.328C416.981 394.615 416.944 395.901 417.031 397.184C417.138 398.467 417.284 399.747 417.536 401.015C417.545 401.052 417.575 401.086 417.615 401.094C417.669 401.105 417.722 401.069 417.733 401.015C418.044 399.749 418.247 398.495 418.413 397.243C418.612 395.994 418.806 394.753 418.956 393.511C419.138 392.274 419.302 391.041 419.398 389.794C419.571 388.565 419.662 356.211 419.931 354.996C420.362 352.537 421.074 350.136 422.035 347.839C422.992 345.562 424.238 343.292 426.153 341.688L426.168 341.675C426.205 341.644 426.214 341.589 426.187 341.547C426.158 341.504 426.098 341.491 426.052 341.521Z" fill="#263238"/>
<path d="M403.428 355.731C402.897 349.433 401.859 343.198 400.877 336.966C399.892 330.733 398.807 324.519 397.666 318.317C396.485 312.122 395.251 305.938 393.915 299.776C393.904 299.725 393.853 299.69 393.802 299.7C393.749 299.71 393.713 299.761 393.723 299.814C394.801 306.022 395.776 312.248 396.697 318.48C397.642 324.707 398.532 330.942 399.32 337.188C400.09 343.437 400.69 349.7 401.473 355.937L403.777 405.782C403.783 405.829 403.821 405.867 403.871 405.869C403.925 405.872 403.971 405.829 403.974 405.775C404.046 404.195 404.048 402.616 404.087 401.032C404.101 399.449 404.023 397.873 403.995 396.291C403.935 393.126 403.665 358.883 403.428 355.731Z" fill="#263238"/>
<path d="M399.652 355.641C399.315 353.146 398.857 350.667 398.381 348.194L397.497 344.517C397.207 343.291 396.933 342.062 396.574 340.852C395.317 335.973 393.711 331.178 391.76 326.53L391.005 324.797L390.166 323.101C389.632 321.959 388.987 320.871 388.375 319.771C387.058 317.626 385.692 315.483 383.829 313.744C383.791 313.709 383.732 313.709 383.694 313.745C383.655 313.783 383.654 313.845 383.692 313.884L383.702 313.894C385.423 315.678 386.678 317.881 387.86 320.058C388.408 321.178 388.987 322.279 389.455 323.435L390.195 325.149L390.851 326.899C392.596 331.561 393.995 336.354 395.048 341.225C395.622 343.648 396.002 346.118 396.472 348.561L397.062 352.252C397.275 353.479 397.538 354.698 397.711 355.933C398.104 358.395 398.557 391.947 398.987 394.411C399.369 396.881 399.82 399.348 400.341 401.816C400.35 401.861 400.39 401.897 400.438 401.897C400.493 401.897 400.537 401.853 400.537 401.799C400.548 399.283 400.489 396.765 400.361 394.251C400.21 391.741 399.913 358.145 399.652 355.641Z" fill="#263238"/>
<path d="M394.44 355.962C393.273 352.658 391.923 349.423 390.452 346.251C388.942 343.096 387.312 340.002 385.436 337.055C385.407 337.014 385.348 336.997 385.303 337.023C385.256 337.051 385.241 337.111 385.269 337.158C386.908 340.219 388.294 343.412 389.55 346.641C390.829 349.862 391.981 353.131 392.946 356.451C393.931 359.768 394.636 394.246 395.519 397.578C396.447 400.907 397.197 404.271 398.221 407.643C398.233 407.683 398.271 407.715 398.316 407.716C398.371 407.717 398.416 407.673 398.416 407.618C398.466 404.1 398.12 400.584 397.436 397.14C396.818 393.676 395.6 359.264 394.44 355.962Z" fill="#263238"/>
<path d="M394.223 398.065C393.626 395.996 392.608 394.068 391.451 392.251C390.315 390.425 388.996 357.603 387.416 356.14C386.602 355.435 385.769 354.756 384.849 354.204C383.943 353.638 382.981 353.159 381.938 352.888C381.893 352.876 381.844 352.899 381.824 352.943C381.802 352.992 381.824 353.05 381.874 353.072L381.886 353.077C383.773 353.916 385.367 355.306 386.715 356.829C388.081 358.353 389.171 391.199 390.08 393.02C391.035 394.829 391.529 396.829 392.361 398.692C392.728 399.647 393.092 400.609 393.516 401.563C393.876 402.537 394.275 403.508 394.782 404.473L394.785 404.478C394.801 404.509 394.833 404.53 394.87 404.532C394.926 404.534 394.973 404.491 394.975 404.435C395.02 403.358 394.957 402.285 394.855 401.216C394.7 400.16 394.476 399.11 394.223 398.065Z" fill="#263238"/>
<path d="M394.613 308.792C394.613 308.792 384.293 306.411 381.911 295.297C379.529 284.183 387.203 288.946 380.323 271.481C373.443 254.016 375.03 250.047 377.412 245.019C379.794 239.991 381.117 241.579 383.234 248.194C385.351 254.809 393.025 265.13 395.936 284.447C398.847 303.765 394.613 308.792 394.613 308.792Z" fill="#578E7E"/>
<path d="M414.989 290.004C414.989 290.004 408.109 287.622 407.844 274.656C407.58 261.689 412.872 264.336 413.666 248.194C414.46 232.052 415.518 220.674 418.429 220.409C421.34 220.145 429.014 228.348 431.66 246.342C434.306 264.336 428.22 276.244 422.928 281.536C417.635 286.829 414.989 290.004 414.989 290.004Z" fill="#578E7E"/>
<path d="M390.908 324.405C390.908 324.405 389.32 314.879 386.145 310.38C382.97 305.881 376.089 301.912 371.591 293.18C367.092 284.448 362.065 280.214 362.329 292.651C362.594 305.088 368.151 311.439 375.031 315.673C381.911 319.906 390.908 324.405 390.908 324.405Z" fill="#578E7E"/>
<path d="M387.998 340.811C387.998 340.811 381.647 328.639 372.386 319.642C363.124 310.645 355.715 306.146 358.361 310.645C361.007 315.143 364.183 314.879 368.681 322.817C373.18 330.756 371.857 336.577 378.207 341.076C384.557 345.574 387.998 340.811 387.998 340.811Z" fill="#578E7E"/>
<path d="M387.204 356.424C386.94 355.63 386.675 349.809 377.678 345.045C368.681 340.282 360.213 342.134 361.272 344.516C362.33 346.898 367.887 350.867 373.444 353.249C379 355.63 387.204 356.424 387.204 356.424Z" fill="#578E7E"/>
<path d="M414.46 324.934C414.46 324.934 410.491 319.906 412.607 309.322C414.724 298.737 419.487 301.383 424.78 295.826C430.072 290.269 429.014 289.475 434.306 283.654C439.599 277.832 444.362 274.657 446.478 277.039C448.595 279.421 445.42 286.83 442.244 291.064C439.069 295.298 434.041 297.415 431.659 302.707C429.277 307.999 430.336 316.467 424.249 320.436C418.164 324.405 414.46 324.934 414.46 324.934Z" fill="#578E7E"/>
<path d="M427.69 327.845C427.69 327.845 437.216 316.996 444.096 309.057C450.976 301.118 453.622 295.032 453.887 300.324C454.151 305.616 456.269 309.85 450.711 316.731C445.155 323.611 427.69 327.845 427.69 327.845Z" fill="#578E7E"/>
<path d="M422.662 345.31C422.662 345.31 422.398 341.076 437.481 331.285C452.564 321.494 458.915 319.642 457.327 323.611C455.739 327.58 449.124 331.549 441.979 338.694C434.835 345.839 422.662 345.31 422.662 345.31Z" fill="#578E7E"/>
<path d="M395.242 307.665C395.242 307.665 391.702 288.682 387.997 275.186C384.292 261.69 381.911 253.487 381.911 253.487" stroke="#ABABAB" stroke-miterlimit="10" stroke-linecap="round" stroke-linejoin="round"/>
<path d="M414.379 290.204C414.379 290.204 420.81 269.629 422.927 257.191C425.044 244.754 422.662 235.492 421.604 229.935" stroke="#ABABAB" stroke-miterlimit="10" stroke-linecap="round" stroke-linejoin="round"/>
<path d="M390.074 324.008C390.074 324.008 386.145 316.996 380.324 310.116C374.502 303.236 370.004 299.532 367.358 292.916" stroke="#ABABAB" stroke-miterlimit="10" stroke-linecap="round" stroke-linejoin="round"/>
<path d="M414.46 324.934C414.46 324.934 416.577 312.232 421.605 305.617C426.633 299.002 436.688 288.682 440.657 282.066" stroke="#ABABAB" stroke-miterlimit="10" stroke-linecap="round" stroke-linejoin="round"/>
<path d="M386.582 356.135C386.582 356.135 377.678 350.338 371.327 347.162" stroke="#ABABAB" stroke-miterlimit="10" stroke-linecap="round" stroke-linejoin="round"/>
<path d="M411.096 445.727H399.447C397.385 445.727 395.522 444.492 394.728 442.589C390.923 433.47 386.88 389.851 386.88 389.851H423.662C423.662 389.851 419.619 433.47 415.814 442.589C415.021 444.492 413.158 445.727 411.096 445.727Z" fill="#263238"/>
<path d="M411.918 324.264C411.918 324.264 406.96 329.532 402.931 327.983C398.902 326.434 396.083 323.219 391.76 326.531C387.437 329.843 390.226 336.35 395.184 343.168C400.142 349.986 403.38 353.158 407.029 349.712C410.678 346.266 419.665 341.618 419.975 332.631C420.285 323.644 420.905 320.545 411.918 324.264Z" fill="#578E7E"/>
<path d="M419.045 350.295C419.045 350.295 416.804 353.368 411.917 354.324C407.03 355.28 401.253 350.734 401.472 355.938C401.691 361.142 406.339 365.79 413.467 365.48C420.595 365.17 425.553 366.719 426.792 369.509C428.032 372.298 431.75 369.819 430.201 361.452C428.652 353.084 425.553 349.055 419.045 350.295Z" fill="#578E7E"/>
<path d="M397.973 363.93C397.973 363.93 395.494 363.31 392.085 364.24C388.676 365.17 387.746 367.649 388.986 371.058C390.226 374.467 393.325 377.566 394.564 375.087C395.804 372.608 396.113 371.058 399.522 370.129C402.931 369.198 402.001 363.93 397.973 363.93Z" fill="#578E7E"/>
<path d="M357.985 186.289C356.945 187.021 356.184 188.126 356.145 189.389C356.122 190.257 356.326 191.079 356.776 191.706L357.531 192.735L370.131 197.498L374.894 184.898L375.917 184.16C376.551 183.694 377.372 183.489 378.234 183.529C379.497 183.568 380.608 184.312 381.341 185.352C381.876 186.107 382.603 186.706 383.521 187.053C386.141 188.044 389.173 186.481 390.283 183.544C391.4 180.59 390.159 177.413 387.539 176.422C386.638 176.081 385.68 176.043 384.779 176.256C383.565 176.541 382.24 176.364 381.26 175.574C380.587 175.034 380.096 174.314 379.929 173.545L379.65 172.314L384.413 159.714L371.814 154.951L371.075 153.928C370.609 153.294 370.404 152.473 370.428 151.604C370.467 150.341 371.228 149.236 372.267 148.504C373.022 147.969 373.628 147.226 373.968 146.324C374.965 143.687 373.386 140.649 370.449 139.539C367.512 138.429 364.318 139.663 363.321 142.299C362.98 143.2 362.942 144.159 363.161 145.042C363.456 146.279 363.279 147.604 362.49 148.584C361.933 149.251 361.236 149.731 360.461 149.915L359.214 150.187L346.631 145.43L341.868 158.03L340.828 158.762C340.194 159.228 339.366 159.449 338.488 159.403C337.231 159.348 336.137 158.609 335.398 157.587C334.863 156.832 334.136 156.232 333.235 155.892C330.598 154.895 327.566 156.457 326.45 159.411C325.34 162.348 326.58 165.525 329.217 166.522C330.118 166.863 331.06 166.894 331.977 166.688C333.197 166.386 334.523 166.563 335.512 167.376C336.168 167.91 336.649 168.607 336.816 169.376L337.111 170.613L332.348 183.213L344.931 187.97L346.178 187.698C346.953 187.514 347.65 187.034 348.207 186.367C348.997 185.388 349.174 184.062 348.872 182.842C348.659 181.941 348.697 180.983 349.038 180.082C350.035 177.445 353.222 176.228 356.159 177.338C359.096 178.448 360.681 181.47 359.685 184.107C359.346 185.011 358.74 185.754 357.985 186.289Z" fill="#578E7E"/>
<path d="M431.275 88.423C432.073 86.312 431.187 84.042 429.314 83.334C428.67 83.091 427.985 83.063 427.342 83.215C426.474 83.419 425.527 83.292 424.827 82.728C424.346 82.342 423.995 81.828 423.876 81.278L423.677 80.399L427.081 71.395L418.077 67.991L417.549 67.26C417.216 66.807 417.07 66.22 417.086 65.6C417.114 64.697 417.658 63.908 418.4 63.385C418.94 63.003 419.373 62.471 419.616 61.827C420.328 59.943 419.2 57.771 417.101 56.978C415.002 56.185 412.72 57.066 412.007 58.951C411.764 59.595 411.736 60.28 411.893 60.911C412.104 61.795 411.978 62.742 411.413 63.442C411.015 63.919 410.517 64.262 409.963 64.393L409.072 64.588L400.08 61.189L396.676 70.193L395.933 70.716C395.48 71.049 394.889 71.207 394.26 71.174C393.362 71.134 392.58 70.607 392.052 69.876C391.67 69.336 391.15 68.908 390.506 68.664C388.622 67.952 386.455 69.068 385.657 71.179C384.864 73.278 385.75 75.548 387.634 76.261C388.278 76.504 388.951 76.527 389.606 76.38C390.478 76.165 391.425 76.291 392.133 76.872C392.602 77.254 392.945 77.752 393.065 78.301L393.276 79.185L389.872 88.189L398.864 91.588L399.755 91.393C400.309 91.262 400.807 90.918 401.205 90.442C401.769 89.742 401.896 88.795 401.68 87.923C401.528 87.279 401.555 86.595 401.799 85.951C402.511 84.067 404.789 83.197 406.888 83.99C408.987 84.784 410.12 86.943 409.407 88.827C409.164 89.471 408.731 90.002 408.191 90.385C407.448 90.908 406.904 91.698 406.877 92.6C406.86 93.221 407.006 93.807 407.328 94.256L407.868 94.992L416.872 98.396L420.276 89.392L421.007 88.864C421.46 88.531 422.047 88.385 422.663 88.413C423.566 88.441 424.36 88.973 424.883 89.716C425.265 90.256 425.785 90.684 426.441 90.932C428.315 91.638 430.481 90.522 431.275 88.423Z" fill="#578E7E"/>
<path d="M320.684 65.495C321.405 65.823 322.188 65.905 322.925 65.773C323.955 65.597 325.032 65.813 325.793 66.513C326.31 67.006 326.666 67.602 326.776 68.248L326.932 69.285L322.358 79.347L332.433 83.927L332.978 84.819C333.326 85.364 333.463 86.054 333.378 86.772C333.265 87.799 332.601 88.657 331.723 89.208C331.075 89.606 330.545 90.17 330.217 90.891C329.258 92.999 330.377 95.569 332.739 96.643C335.088 97.711 337.759 96.864 338.718 94.756C339.046 94.035 339.122 93.265 339.002 92.502C338.82 91.485 339.036 90.408 339.756 89.64C340.229 89.131 340.826 88.774 341.465 88.678L342.495 88.502L352.57 93.082L357.144 83.02L356.988 81.983C356.879 81.338 356.522 80.741 356.005 80.248C355.244 79.548 354.167 79.332 353.15 79.514C352.4 79.64 351.617 79.558 350.896 79.23C348.788 78.272 347.96 75.593 349.028 73.244C350.096 70.895 352.658 69.758 354.767 70.716C355.488 71.044 356.065 71.58 356.463 72.228C357.008 73.12 357.873 73.803 358.906 73.902C359.617 73.968 360.301 73.844 360.84 73.509L361.724 72.945L366.305 62.87L356.23 58.29L355.679 57.412C355.331 56.867 355.207 56.183 355.286 55.478C355.386 54.445 356.055 53.573 356.947 53.029C357.595 52.631 358.125 52.067 358.459 51.333C359.412 49.238 358.293 46.668 355.944 45.601C353.582 44.527 350.91 45.374 349.958 47.469C349.63 48.19 349.548 48.973 349.674 49.723C349.843 50.734 349.627 51.811 348.927 52.572C348.448 53.095 347.831 53.459 347.192 53.554L346.168 53.717L336.093 49.136L331.512 59.211L330.634 59.762C330.089 60.11 329.405 60.234 328.694 60.168C327.66 60.069 326.795 59.385 326.251 58.494C325.853 57.846 325.276 57.31 324.555 56.982C322.447 56.024 319.871 57.155 318.803 59.504C317.735 61.851 318.576 64.536 320.684 65.495Z" fill="#578E7E"/>
<path d="M363.876 93.697C363.876 94.449 364.113 95.159 364.517 95.758C365.074 96.566 365.311 97.582 365.004 98.515C364.781 99.156 364.405 99.699 363.89 100.047L363.054 100.59H352.555V132.114H363.054L363.89 131.571C364.405 131.223 364.781 130.68 365.004 130.039C365.31 129.106 365.074 128.09 364.517 127.282C364.113 126.669 363.876 125.973 363.876 125.221C363.876 123.021 365.867 121.239 368.318 121.239C370.769 121.239 372.76 123.021 372.76 125.221C372.76 125.973 372.523 126.683 372.119 127.282C371.562 128.104 371.311 129.12 371.632 130.053C371.855 130.693 372.231 131.236 372.732 131.571L373.567 132.114H384.08V121.601L384.623 120.779C384.957 120.264 385.514 119.874 386.155 119.665C387.088 119.359 388.104 119.595 388.912 120.138C389.511 120.542 390.221 120.779 390.973 120.779C393.159 120.779 394.942 118.802 394.942 116.351C394.942 113.886 393.16 111.909 390.973 111.909C390.207 111.909 389.511 112.146 388.912 112.55C388.09 113.107 387.074 113.344 386.141 113.037C385.5 112.814 384.957 112.438 384.623 111.923L384.08 111.102V100.589H373.567L372.732 100.046C372.231 99.712 371.855 99.169 371.632 98.528C371.312 97.595 371.562 96.579 372.119 95.757C372.523 95.158 372.76 94.448 372.76 93.696C372.76 91.496 370.769 89.728 368.318 89.728C365.867 89.728 363.876 91.496 363.876 93.697Z" fill="#578E7E"/>
<path d="M471.41 136.321C470.766 136.077 470.081 136.05 469.438 136.202C468.571 136.406 467.623 136.279 466.923 135.715C466.442 135.329 466.091 134.815 465.972 134.265L465.773 133.385L469.177 124.381L460.173 120.977L459.645 120.246C459.312 119.793 459.166 119.206 459.182 118.585C459.21 117.682 459.754 116.893 460.496 116.37C461.036 115.988 461.469 115.456 461.712 114.812C462.424 112.928 461.296 110.756 459.197 109.963C457.098 109.169 454.816 110.051 454.103 111.935C453.86 112.579 453.832 113.264 453.989 113.896C454.2 114.78 454.074 115.727 453.509 116.427C453.111 116.904 452.613 117.247 452.059 117.378L451.168 117.573L442.176 114.174L438.772 123.178L438.029 123.701C437.576 124.034 436.985 124.192 436.356 124.159C435.458 124.119 434.676 123.592 434.148 122.861C433.766 122.321 433.246 121.893 432.602 121.65C430.718 120.938 428.551 122.054 427.753 124.165C426.96 126.264 427.846 128.535 429.73 129.247C430.374 129.49 431.047 129.513 431.702 129.366C432.574 129.15 433.521 129.277 434.229 129.858C434.698 130.24 435.041 130.738 435.161 131.287L435.372 132.171L431.968 141.175L440.96 144.574L441.851 144.379C442.405 144.248 442.903 143.904 443.301 143.428C443.865 142.728 443.992 141.781 443.776 140.909C443.624 140.265 443.651 139.581 443.895 138.937C444.607 137.053 446.885 136.183 448.984 136.976C451.083 137.769 452.216 139.929 451.504 141.813C451.261 142.457 450.828 142.988 450.288 143.37C449.545 143.893 449.001 144.683 448.973 145.586C448.956 146.207 449.103 146.793 449.424 147.242L449.964 147.978L458.968 151.382L462.372 142.378L463.103 141.85C463.556 141.517 464.143 141.371 464.759 141.399C465.662 141.427 466.456 141.959 466.979 142.702C467.361 143.242 467.881 143.67 468.537 143.918C470.409 144.626 472.576 143.509 473.369 141.41C474.169 139.299 473.283 137.029 471.41 136.321Z" fill="#578E7E"/>
<path d="M278.447 276.459C278.1 273.68 284.105 265.541 289.315 259.075C327.547 211.637 329.472 129.522 292.35 78.749C292.114 79.011 291.908 79.291 291.764 79.604L291.172 80.858L293.285 95.504L278.638 97.617L277.603 98.539C276.953 99.108 276.521 99.963 276.359 100.897C276.119 102.258 276.654 103.627 277.573 104.643C278.256 105.396 278.728 106.338 278.88 107.385C279.319 110.431 276.923 113.311 273.489 113.806C270.075 114.299 266.962 112.213 266.523 109.167C266.369 108.1 266.559 107.083 267.001 106.167C267.612 104.911 267.737 103.447 267.104 102.211C266.684 101.361 266.051 100.68 265.266 100.318L264.012 99.727L249.366 101.84L247.253 87.194L247.842 85.921C248.207 85.155 248.888 84.523 249.735 84.083C250.97 83.449 252.437 83.594 253.693 84.205C254.608 84.647 255.645 84.834 256.693 84.683C259.758 84.241 261.822 81.111 261.329 77.697C260.837 74.283 257.973 71.864 254.907 72.306C253.859 72.457 252.918 72.93 252.165 73.612C251.152 74.55 249.783 75.084 248.422 74.845C247.485 74.663 246.653 74.249 246.064 73.601L245.14 72.546L243.03 57.919L257.676 55.806L258.709 54.865C259.36 54.296 259.774 53.464 259.939 52.549C260.195 51.165 259.661 49.797 258.722 48.784C258.562 48.604 258.417 48.414 258.282 48.218C256.259 47.082 254.192 45.997 252.067 44.986C215.45 27.572 172.179 24.612 133.449 36.5C83.5229 51.825 62.4839 85.766 50.2799 134.572C46.4649 149.829 43.6049 154.598 46.4659 160.321C49.3279 166.046 55.0529 173.678 53.1439 179.402C51.2359 185.126 36.9249 213.748 31.1999 221.381C25.4759 229.013 24.5219 234.738 28.3379 239.508C32.1539 244.278 46.4649 246.187 46.4649 246.187C46.4649 246.187 46.5329 253.503 43.2789 259.546C40.0249 265.589 42.7709 265.595 43.2569 268.149C43.7429 270.703 41.4189 273.027 41.8839 276.746C42.3489 280.465 44.1479 282.388 46.5209 284.534C48.8939 286.68 44.3619 304.064 44.0529 309C43.7429 313.935 49.3219 326.487 53.5059 329.741C57.6899 332.995 65.5919 333.925 68.8459 334.39C72.0999 334.855 88.8349 336.249 91.6239 337.179C94.4129 338.109 108.824 354.844 115.332 363.211C121.84 371.578 144.153 396.681 145.548 405.513C146.261 410.029 152.024 428.975 157.486 446.418H401.512C370.244 410.61 320.048 352.441 309.449 334.21C294.253 308.071 279.055 281.322 278.447 276.459ZM185.963 84.578C185.493 83.853 184.728 83.324 183.846 83.03C182.513 82.579 181.082 82.912 179.946 83.696C179.084 84.264 178.104 84.598 177.045 84.598C173.948 84.598 171.439 81.815 171.439 78.365C171.439 74.896 173.948 72.112 177.045 72.112C178.103 72.112 179.083 72.445 179.926 73.014C181.082 73.778 182.494 74.112 183.807 73.68C184.728 73.386 185.493 72.837 185.963 72.112L186.747 70.956V56.158H201.525L202.701 55.394C203.426 54.904 203.955 54.14 204.269 53.238C204.7 51.925 204.367 50.494 203.583 49.338C203.015 48.515 202.681 47.515 202.681 46.457C202.681 43.36 205.484 40.851 208.933 40.851C212.383 40.851 215.186 43.36 215.186 46.457C215.186 47.515 214.853 48.515 214.284 49.358C213.5 50.514 213.147 51.945 213.598 53.258C213.912 54.16 214.441 54.924 215.166 55.394L216.322 56.158H231.12V70.956L231.884 72.112C232.354 72.837 233.138 73.386 234.04 73.68C235.353 74.111 236.784 73.778 237.921 73.014C238.764 72.445 239.763 72.112 240.822 72.112C243.899 72.112 246.408 74.895 246.408 78.365C246.408 81.815 243.899 84.598 240.822 84.598C239.744 84.598 238.764 84.265 237.921 83.696C236.765 82.912 235.334 82.579 234.021 83.03C233.119 83.324 232.355 83.853 231.885 84.578L231.121 85.734V100.532H216.323L215.147 99.768C214.441 99.298 213.912 98.533 213.599 97.632C213.148 96.319 213.501 94.888 214.285 93.731C214.853 92.888 215.187 91.889 215.187 90.83C215.187 87.733 212.384 85.244 208.934 85.244C205.484 85.244 202.682 87.733 202.682 90.83C202.682 91.888 203.015 92.888 203.584 93.731C204.368 94.868 204.701 96.299 204.27 97.612C203.956 98.514 203.427 99.278 202.702 99.768L201.526 100.532H186.748V85.735L185.963 84.578ZM268.994 152.215C267.916 152.215 266.936 151.882 266.093 151.313C264.937 150.529 263.506 150.196 262.193 150.647C261.291 150.941 260.527 151.47 260.057 152.195L259.293 153.351V168.149H244.495L243.319 167.385C242.613 166.915 242.084 166.15 241.771 165.249C241.32 163.936 241.673 162.505 242.457 161.349C243.025 160.506 243.359 159.507 243.359 158.448C243.359 155.351 240.556 152.862 237.106 152.862C233.656 152.862 230.854 155.351 230.854 158.448C230.854 159.506 231.187 160.506 231.756 161.349C232.54 162.486 232.873 163.917 232.442 165.23C232.128 166.132 231.599 166.896 230.874 167.386L229.698 168.15H214.92V153.352L214.136 152.196C213.666 151.471 212.901 150.942 212.019 150.648C210.686 150.197 209.255 150.53 208.119 151.314C207.257 151.882 206.277 152.216 205.218 152.216C202.121 152.216 199.612 149.433 199.612 145.983C199.612 142.514 202.121 139.731 205.218 139.731C206.276 139.731 207.256 140.064 208.099 140.633C209.255 141.397 210.667 141.731 211.98 141.299C212.901 141.005 213.666 140.456 214.136 139.731L214.92 138.575V123.777H229.698L230.874 123.013C231.599 122.523 232.128 121.759 232.442 120.857C232.873 119.544 232.54 118.113 231.756 116.957C231.188 116.134 230.854 115.134 230.854 114.076C230.854 110.979 233.657 108.47 237.106 108.47C240.556 108.47 243.359 110.979 243.359 114.076C243.359 115.134 243.026 116.134 242.457 116.977C241.673 118.134 241.32 119.564 241.771 120.877C242.084 121.779 242.614 122.543 243.339 123.013L244.495 123.777H259.293V138.575L260.057 139.731C260.527 140.456 261.311 141.005 262.213 141.299C263.526 141.73 264.957 141.397 266.094 140.633C266.937 140.065 267.936 139.731 268.995 139.731C272.072 139.731 274.581 142.514 274.581 145.983C274.58 149.432 272.071 152.215 268.994 152.215Z" fill="#578E7E"/>
<path d="M458.927 446.42H471.8" stroke="#263238" stroke-miterlimit="10"/>
<path d="M31.7351 446.42H451.5" stroke="#263238" stroke-miterlimit="10"/>
<path d="M257.54 210.306C257.54 210.306 232.758 200.06 230.614 198.868C228.469 197.677 226.325 193.149 225.372 192.196C224.419 191.243 222.751 191.719 218.938 191.005C215.125 190.29 212.743 187.431 212.266 189.575C211.789 191.72 213.219 192.434 214.411 192.911C215.602 193.388 217.985 194.579 217.985 194.579L218.223 196.247C218.223 196.247 210.598 197.677 207.5 197.677C204.402 197.677 202.258 198.868 202.734 200.298C203.211 201.728 205.593 201.013 205.593 201.013L211.312 200.775C211.312 200.775 202.257 203.158 202.019 204.349C201.781 205.54 203.449 206.494 204.164 206.255C204.879 206.017 208.691 204.825 208.691 204.825L211.074 204.348C211.074 204.348 206.547 206.969 206.785 208.637C207.023 210.305 209.644 209.113 209.644 209.113L212.265 206.492L216.078 205.777L212.027 209.828C212.027 209.828 212.504 211.258 213.695 211.019C214.886 210.781 216.554 208.636 216.554 208.636L219.652 207.921C219.652 207.921 221.558 208.159 222.273 207.921C222.988 207.683 226.8 206.491 226.8 206.491C226.8 206.491 249.914 223.171 252.773 223.886C255.632 224.601 263.019 230.32 267.07 228.89C271.121 227.46 267.07 216.499 267.07 215.308C267.071 214.119 257.54 210.306 257.54 210.306Z" fill="white" stroke="#263238" stroke-miterlimit="10"/>
<path d="M218.385 398.447C218.385 398.447 222.909 414.416 225.837 421.069C228.765 427.723 233.528 435.639 234.62 438.368C235.685 441.029 232.757 444.223 230.894 445.021C229.031 445.82 226.902 446.618 225.039 448.747C223.176 450.876 216.522 454.602 212.264 454.868C208.006 455.134 201.352 455.666 202.949 451.408C204.546 447.15 213.062 440.496 213.861 438.101C214.66 435.706 214.393 434.109 214.393 434.109L207.739 419.205L218.385 398.447Z" fill="#263238" stroke="#263238" stroke-miterlimit="10"/>
<path d="M230.81 430.992C228.197 433.114 224.657 435.843 222.643 436.772C219.183 438.369 214.659 436.24 214.659 436.24L214.337 436.079C214.256 436.657 214.117 437.333 213.86 438.103C213.062 440.498 204.545 447.152 202.948 451.41C201.351 455.668 208.005 455.136 212.263 454.87C216.521 454.604 223.175 450.878 225.038 448.749C226.901 446.62 229.03 445.821 230.893 445.023C232.756 444.225 235.684 441.031 234.619 438.37C234.062 436.976 232.548 434.229 230.81 430.992Z" fill="white" stroke="#263238" stroke-miterlimit="10"/>
<path d="M160.568 253.471L153.504 275.672C153.504 275.672 161.745 276.849 164.268 279.54C164.268 279.54 168.641 265.917 169.482 260.871C170.322 255.825 165.277 249.771 160.568 253.471Z" fill="#578E7E" stroke="#263238" stroke-miterlimit="10"/>
<path d="M153.504 275.672C153.504 275.672 145.431 284.418 144.254 285.259C143.077 286.1 142.236 288.623 142.572 290.137C142.908 291.651 143.918 296.192 144.759 296.528C145.6 296.864 157.205 295.687 158.214 294.846C159.223 294.005 160.4 289.969 160.569 288.455C160.737 286.941 160.737 284.25 160.737 284.25L163.596 276.85C163.596 276.85 155.858 274.999 153.504 275.672Z" fill="white" stroke="#263238" stroke-miterlimit="10"/>
<path d="M174.875 317.586H126.443C125.062 317.586 123.943 316.467 123.943 315.086C123.943 313.705 125.062 312.586 126.443 312.586H174.875C176.256 312.586 177.375 313.705 177.375 315.086C177.375 316.467 176.256 317.586 174.875 317.586Z" fill="white" stroke="#263238" stroke-miterlimit="10"/>
<path d="M119.179 396.808C118.964 396.808 118.746 396.78 118.528 396.721C117.195 396.362 116.405 394.991 116.764 393.658L117.684 390.239C120.287 380.571 129.098 373.819 139.11 373.819H160.689C170.791 373.819 179.622 380.647 182.163 390.423L182.83 392.987C183.178 394.323 182.376 395.688 181.04 396.036C179.706 396.383 178.339 395.583 177.992 394.245L177.325 391.681C175.356 384.108 168.515 378.819 160.69 378.819H139.11C131.354 378.819 124.529 384.049 122.512 391.539L121.592 394.957C121.292 396.072 120.282 396.808 119.179 396.808Z" fill="white" stroke="#263238" stroke-miterlimit="10"/>
<path d="M111.693 458.708C111.607 458.708 111.52 458.704 111.432 458.694C110.059 458.552 109.061 457.323 109.203 455.95L124.465 308.715C125.688 296.919 135.697 288.025 147.748 288.025H154.443C166.617 288.025 176.868 297.381 177.78 309.327L188.404 448.434C188.509 449.811 187.478 451.012 186.102 451.118C184.711 451.227 183.524 450.191 183.419 448.815L172.795 309.709C172.081 300.354 164.02 293.026 154.443 293.026H147.748C138.268 293.026 130.397 299.993 129.439 309.232L114.177 456.467C114.043 457.751 112.958 458.708 111.693 458.708Z" fill="white" stroke="#263238" stroke-miterlimit="10"/>
<path d="M111.226 464.229C111.105 464.229 110.984 464.223 110.861 464.21C108.939 464.011 107.541 462.291 107.74 460.368L108.208 455.848C108.407 453.924 110.115 452.525 112.05 452.727C113.972 452.926 115.37 454.646 115.171 456.569L114.703 461.089C114.516 462.89 112.996 464.229 111.226 464.229Z" fill="#263238" stroke="#263238" stroke-miterlimit="10"/>
<path d="M186.635 454.172C186.516 454.192 186.395 454.206 186.272 454.214C184.343 454.335 182.681 452.869 182.56 450.94L182.276 446.404C182.155 444.474 183.608 442.812 185.551 442.692C187.48 442.571 189.142 444.037 189.263 445.966L189.547 450.502C189.66 452.308 188.382 453.879 186.635 454.172Z" fill="#263238" stroke="#263238" stroke-miterlimit="10"/>
<path d="M152.04 298.913C152.04 298.913 157.263 299.158 158.381 298.377C159.499 297.596 160.348 292.283 160.17 291.076C159.992 289.869 158.954 290.457 158.118 291.923C157.282 293.388 156.609 297.187 156.609 297.187L154.879 297.261" fill="white"/>
<path d="M152.04 298.913C152.04 298.913 157.263 299.158 158.381 298.377C159.499 297.596 160.348 292.283 160.17 291.076C159.992 289.869 158.954 290.457 158.118 291.923C157.282 293.388 156.609 297.187 156.609 297.187L154.879 297.261" stroke="#263238" stroke-miterlimit="10" stroke-linecap="round" stroke-linejoin="round"/>
<path d="M148.492 299.435C148.492 299.435 153.715 299.68 154.833 298.899C155.951 298.118 156.8 292.805 156.622 291.598C156.444 290.391 155.406 290.979 154.571 292.445C153.735 293.91 153.062 297.709 153.062 297.709L151.332 297.783" fill="white"/>
<path d="M148.492 299.435C148.492 299.435 153.715 299.68 154.833 298.899C155.951 298.118 156.8 292.805 156.622 291.598C156.444 290.391 155.406 290.979 154.571 292.445C153.735 293.91 153.062 297.709 153.062 297.709L151.332 297.783" stroke="#263238" stroke-miterlimit="10" stroke-linecap="round" stroke-linejoin="round"/>
<path d="M144.758 296.527C144.758 296.527 150.14 299.05 151.654 298.713C153.168 298.377 156.363 293.163 156.7 291.817C157.036 290.471 155.691 290.64 154.177 291.817C152.663 292.994 150.309 296.694 150.309 296.694L148.459 296.021" fill="white"/>
<path d="M144.758 296.527C144.758 296.527 150.14 299.05 151.654 298.713C153.168 298.377 156.363 293.163 156.7 291.817C157.036 290.471 155.691 290.64 154.177 291.817C152.663 292.994 150.309 296.694 150.309 296.694L148.459 296.021" stroke="#263238" stroke-miterlimit="10" stroke-linecap="round" stroke-linejoin="round"/>
<path d="M144.758 296.527C144.758 296.527 146.44 299.386 147.953 299.05C149.467 298.714 152.662 293.5 152.999 292.154C153.335 290.808 151.99 290.977 150.476 292.154C148.962 293.331 146.608 297.031 146.608 297.031L144.758 296.358" fill="white"/>
<path d="M144.758 296.527C144.758 296.527 146.44 299.386 147.953 299.05C149.467 298.714 152.662 293.5 152.999 292.154C153.335 290.808 151.99 290.977 150.476 292.154C148.962 293.331 146.608 297.031 146.608 297.031L144.758 296.358" stroke="#263238" stroke-miterlimit="10" stroke-linecap="round" stroke-linejoin="round"/>
<path d="M151.654 280.212C151.654 280.212 148.795 286.435 148.627 287.444C148.459 288.453 146.272 296.358 146.609 297.031C146.945 297.704 148.796 297.367 149.468 296.527C150.141 295.686 151.823 290.977 152.159 290.304C152.495 289.631 155.018 288.286 156.027 286.772C157.036 285.258 157.877 281.39 157.877 281.39" fill="white"/>
<path d="M151.654 280.212C151.654 280.212 148.795 286.435 148.627 287.444C148.459 288.453 146.272 296.358 146.609 297.031C146.945 297.704 148.796 297.367 149.468 296.527C150.141 295.686 151.823 290.977 152.159 290.304C152.495 289.631 155.018 288.286 156.027 286.772C157.036 285.258 157.877 281.39 157.877 281.39" stroke="#263238" stroke-miterlimit="10" stroke-linecap="round" stroke-linejoin="round"/>
<path d="M161.075 282.72C161.075 282.72 164.711 322.629 168.186 334.354C171.66 346.079 188.596 376.476 189.247 378.213C189.898 379.95 191.418 383.641 192.07 394.498C192.722 405.355 192.46 413.683 192.46 419.111C192.46 424.539 188.595 441.074 188.595 441.074C188.595 441.074 184.47 443.462 180.344 444.331C176.219 445.199 170.356 446.936 170.356 449.542C170.356 452.148 185.989 455.404 191.417 456.49C196.845 457.576 203.142 458.661 204.662 457.141C206.182 455.621 205.748 454.101 206.616 448.673C207.484 443.245 208.536 443.028 211.575 431.521C214.615 420.013 218.378 412.856 220.115 399.394C221.852 385.932 219.598 373.377 221.335 363.607C223.072 353.836 229.382 324.071 232.856 306.701C236.33 289.331 236.547 288.245 234.81 277.389L161.915 275.508L161.075 282.72Z" fill="#263238" stroke="#263238" stroke-miterlimit="10"/>
<path d="M189.844 372.089C189.506 366.124 189.57 357.009 190.983 350.205C192.705 341.914 194.267 296.569 194.267 296.569" stroke="white" stroke-miterlimit="10" stroke-linecap="round" stroke-linejoin="round"/>
<path d="M190.914 380.525C190.67 380.818 190.217 376.895 189.991 374.199" stroke="white" stroke-miterlimit="10" stroke-linecap="round" stroke-linejoin="round"/>
<path d="M193.616 299.825L188.188 294.831" stroke="white" stroke-miterlimit="10" stroke-linecap="round" stroke-linejoin="round"/>
<path d="M204.662 457.141C206.07 455.733 205.803 454.319 206.446 449.805C202.041 449.523 198.633 445.458 196.026 443.373C192.616 440.645 188.595 441.074 188.595 441.074C188.595 441.074 184.469 443.462 180.344 444.331C176.218 445.199 170.356 446.936 170.356 449.542C170.356 452.148 185.989 455.404 191.417 456.49C196.846 457.575 203.142 458.661 204.662 457.141Z" fill="white" stroke="#263238" stroke-miterlimit="10"/>
<path d="M165.607 227.74C165.607 227.74 169.732 240.767 169.515 246.196C169.298 251.624 162.35 271.165 162.35 271.165C162.35 271.165 161.047 263.131 161.047 251.189C161.047 239.247 165.607 227.74 165.607 227.74Z" fill="#263238" stroke="#263238" stroke-miterlimit="10"/>
<path d="M180.588 174.761L175.377 179.538C175.377 179.538 177.114 194.737 173.857 206.462C170.6 218.187 163.652 232.734 164.955 237.511C166.258 242.288 167.126 245.328 167.126 247.065C167.126 248.802 164.955 260.527 162.349 271.166C159.744 281.805 161.074 282.722 161.074 282.722C161.074 282.722 185.365 285.714 205.557 285.714C225.749 285.714 230.527 282.891 230.527 282.891C230.527 282.891 221.625 229.478 221.625 213.628C221.625 197.778 216.946 176.398 216.946 176.398L206.209 171.723C206.209 171.721 192.965 164.99 180.588 174.761Z" fill="white" stroke="#263238" stroke-miterlimit="10"/>
<path d="M190.732 247.314C191.816 247.696 192.924 248.05 194.051 248.366" stroke="#263238" stroke-miterlimit="10" stroke-linecap="round" stroke-linejoin="round"/>
<path d="M171.469 236.859C171.469 236.859 178.299 242.236 187.56 246.094" stroke="#263238" stroke-miterlimit="10" stroke-linecap="round" stroke-linejoin="round"/>
<path d="M193.833 242.938C193.833 242.938 200.998 247.281 209.032 248.366" stroke="#263238" stroke-miterlimit="10" stroke-linecap="round" stroke-linejoin="round"/>
<path d="M189.491 238.596C189.491 238.596 198.61 243.373 205.993 245.327" stroke="#263238" stroke-miterlimit="10" stroke-linecap="round" stroke-linejoin="round"/>
<path d="M216.199 127.439C216.199 127.439 217.32 131.363 216.76 135.287C216.199 139.211 216.013 141.08 217.134 144.256C218.255 147.433 219.937 149.114 218.629 155.094C217.321 161.074 214.331 167.053 213.21 168.361C212.089 169.669 208.538 172.472 208.538 172.472L216.947 176.396C216.947 176.396 216.013 183.684 209.846 187.794C203.679 191.905 194.523 193.026 188.17 189.849C181.817 186.672 178.266 176.208 178.266 176.208L186.114 170.415L184.619 162.38L176.023 150.982L184.806 141.639C184.806 141.639 186.488 134.725 194.896 128.746C203.305 122.766 208.163 122.953 210.966 123.327C213.769 123.701 216.199 127.439 216.199 127.439Z" fill="white" stroke="#263238" stroke-miterlimit="10"/>
<path d="M215.451 132.858C215.451 132.858 214.143 134.353 213.956 137.343C213.769 140.333 218.627 148.741 218.254 149.676C217.88 150.61 213.209 152.105 213.209 152.105" stroke="#263238" stroke-miterlimit="10" stroke-linecap="round" stroke-linejoin="round"/>
<path d="M211.527 158.831H215.077" stroke="#263238" stroke-miterlimit="10" stroke-linecap="round" stroke-linejoin="round"/>
<path d="M207.603 134.539C207.603 134.539 201.437 133.605 198.634 137.902" stroke="#263238" stroke-miterlimit="10" stroke-linecap="round" stroke-linejoin="round"/>
<path d="M209.285 143.135C209.285 143.135 208.538 146.125 203.119 148.18" stroke="#263238" stroke-miterlimit="10" stroke-linecap="round" stroke-linejoin="round"/>
<path d="M208.164 140.145C208.164 141.28 207.704 142.2 207.136 142.2C206.568 142.2 206.108 141.28 206.108 140.145C206.108 139.01 206.568 138.09 207.136 138.09C207.704 138.09 208.164 139.01 208.164 140.145Z" fill="#263238"/>
<path d="M219.375 120.712C218.441 115.106 214.33 116.04 213.209 114.546C212.088 113.051 212.088 109.314 207.603 106.324C203.118 103.334 193.589 106.137 191.159 105.95C188.73 105.763 183.124 105.763 181.069 108.753C179.013 111.743 179.013 111.743 179.013 111.743C179.013 111.743 173.22 111.182 169.296 117.909C165.372 124.636 164.438 130.055 165.933 134.54C167.428 139.025 167.054 142.575 166.494 142.762C165.933 142.949 162.383 139.959 160.141 145.565C157.899 151.171 161.075 158.272 165.747 159.019C170.418 159.766 174.343 157.337 174.53 160.14C174.717 162.943 174.53 164.438 178.267 165.185C182.004 165.932 184.62 162.382 184.62 162.382C184.62 162.382 179.575 154.16 178.827 150.423L184.059 144.257C184.059 144.257 184.993 147.994 187.049 147.994C189.105 147.994 188.731 145.378 189.104 142.575C190.973 141.454 188.73 138.651 189.291 136.595C189.852 134.54 193.028 131.924 194.336 132.484C195.644 133.045 199.008 133.979 203.119 131.923C207.23 129.868 205.735 125.756 207.23 125.57C208.725 125.383 207.977 129.868 211.902 130.055C215.825 130.242 220.309 126.318 219.375 120.712Z" fill="#D9D9D9" stroke="#A1A1A1" stroke-miterlimit="10"/>
<path d="M184.619 162.382C184.619 162.382 187.422 163.877 188.169 158.645Z" fill="white"/>
<path d="M184.619 162.382C184.619 162.382 187.422 163.877 188.169 158.645" stroke="#263238" stroke-miterlimit="10"/>
<path d="M212.088 169.109C212.088 169.109 204.987 171.164 201.624 167.801" stroke="#263238" stroke-miterlimit="10" stroke-linecap="round" stroke-linejoin="round"/>
<path d="M186.114 170.417L187.235 178.826" stroke="#263238" stroke-miterlimit="10"/>
<path d="M208.537 172.472C208.537 172.472 203.118 175.275 201.81 175.462" stroke="#263238" stroke-miterlimit="10" stroke-linecap="round" stroke-linejoin="round"/>
<path d="M178.266 176.209C178.266 176.209 161.075 187.981 156.03 193.213C150.985 198.445 152.48 208.162 155.096 213.955C157.712 219.748 160.702 228.53 160.702 228.53C160.702 228.53 157.899 235.257 159.02 249.645C160.141 264.033 161.075 281.972 161.075 282.719C161.075 283.466 163.504 265.715 163.504 265.715C163.504 265.715 163.13 250.766 163.878 244.6C164.625 238.434 166.681 234.136 172.66 217.505C178.64 200.874 179.761 191.531 179.761 187.981C179.761 184.431 178.266 176.209 178.266 176.209Z" fill="#578E7E" stroke="#263238" stroke-miterlimit="10"/>
<path d="M216.946 176.396C216.946 176.396 214.891 209.844 215.638 220.869C216.385 231.894 228.718 283.841 228.718 283.841H243.854C243.854 283.841 239.743 253.009 238.622 244.413C237.501 235.817 236.38 233.388 236.38 233.388C236.38 233.388 235.446 219.934 235.819 204.238C236.193 188.542 234.885 187.42 232.082 184.431C229.279 181.441 216.946 176.396 216.946 176.396Z" fill="#578E7E" stroke="#263238" stroke-miterlimit="10"/>
<path d="M231.521 221.243C231.521 221.243 243.667 245.161 244.228 249.085C244.789 253.009 234.511 277.675 234.511 277.675C234.511 277.675 240.304 279.731 242.733 281.038C245.162 282.346 247.965 284.588 247.965 284.588C247.965 284.588 262.166 263.846 262.54 252.074C262.914 240.302 256.374 224.792 254.131 218.439C251.888 212.086 245.535 192.839 240.49 188.541C235.445 184.243 226.849 180.88 226.849 180.88" fill="#578E7E"/>
<path d="M231.521 221.243C231.521 221.243 243.667 245.161 244.228 249.085C244.789 253.009 234.511 277.675 234.511 277.675C234.511 277.675 240.304 279.731 242.733 281.038C245.162 282.346 247.965 284.588 247.965 284.588C247.965 284.588 262.166 263.846 262.54 252.074C262.914 240.302 256.374 224.792 254.131 218.439C251.888 212.086 245.535 192.839 240.49 188.541C235.445 184.243 226.849 180.88 226.849 180.88" stroke="#263238" stroke-miterlimit="10"/>
<path d="M234.511 277.675C234.511 277.675 228.53 281.951 226.307 283.557C224.084 285.162 223.343 291.461 222.849 292.573C222.355 293.685 220.379 295.414 221.614 295.784C222.849 296.155 225.69 294.302 226.801 292.449C227.912 290.597 228.036 290.473 228.283 289.979C228.53 289.485 231 288.991 231.618 288.991C232.235 288.991 237.175 291.09 240.51 290.843C243.845 290.596 247.965 284.589 247.965 284.589C247.965 284.589 244.32 279.203 234.511 277.675Z" fill="white" stroke="#263238" stroke-miterlimit="10" stroke-linecap="round" stroke-linejoin="round"/>
<path d="M257.901 317.586H209.469C208.088 317.586 206.969 316.467 206.969 315.086C206.969 313.705 208.088 312.586 209.469 312.586H257.901C259.282 312.586 260.401 313.705 260.401 315.086C260.401 316.467 259.282 317.586 257.901 317.586Z" fill="white" stroke="#263238" stroke-miterlimit="10"/>
<path d="M202.206 396.808C201.991 396.808 201.772 396.78 201.555 396.721C200.222 396.362 199.432 394.991 199.791 393.658L200.711 390.239C203.314 380.571 212.125 373.819 222.137 373.819H243.716C253.818 373.819 262.649 380.647 265.19 390.423L265.856 392.987C266.204 394.323 265.402 395.688 264.066 396.036C262.733 396.383 261.365 395.583 261.018 394.245L260.351 391.681C258.382 384.108 251.541 378.819 243.716 378.819H222.137C214.381 378.819 207.556 384.049 205.539 391.539L204.618 394.957C204.318 396.072 203.308 396.808 202.206 396.808Z" fill="white" stroke="#263238" stroke-miterlimit="10"/>
<path d="M207.798 317.586H126.443C125.062 317.586 123.943 316.467 123.943 315.086C123.943 313.705 125.062 312.586 126.443 312.586H207.798C209.179 312.586 210.298 313.705 210.298 315.086C210.298 316.467 209.179 317.586 207.798 317.586Z" fill="white" stroke="#263238" stroke-miterlimit="10"/>
<path d="M194.719 458.708C194.633 458.708 194.546 458.704 194.458 458.694C193.084 458.552 192.087 457.323 192.229 455.95L207.491 308.715C208.714 296.919 218.723 288.025 230.774 288.025H237.469C249.643 288.025 259.894 297.381 260.806 309.327L271.43 448.434C271.535 449.811 270.504 451.012 269.128 451.118C267.737 451.227 266.55 450.191 266.445 448.815L255.821 309.709C255.107 300.354 247.046 293.026 237.469 293.026H230.774C221.294 293.026 213.423 299.993 212.465 309.232L197.203 456.467C197.07 457.751 195.984 458.708 194.719 458.708Z" fill="white" stroke="#263238" stroke-miterlimit="10"/>
<path d="M194.252 464.229C194.131 464.229 194.01 464.223 193.887 464.21C191.965 464.011 190.567 462.291 190.766 460.368L191.234 455.848C191.433 453.924 193.141 452.525 195.076 452.727C196.998 452.926 198.396 454.646 198.197 456.569L197.729 461.089C197.543 462.89 196.023 464.229 194.252 464.229Z" fill="#263238" stroke="#263238" stroke-miterlimit="10"/>
<path d="M231.247 285.409L229.642 291.09C229.642 291.09 226.06 296.4 226.802 297.142C227.543 297.883 228.654 298.13 229.148 297.636C229.642 297.142 233.718 293.808 234.088 292.572C234.458 291.337 236.188 284.544 236.188 284.544" fill="white"/>
<path d="M231.247 285.409L229.642 291.09C229.642 291.09 226.06 296.4 226.802 297.142C227.543 297.883 228.654 298.13 229.148 297.636C229.642 297.142 233.718 293.808 234.088 292.572C234.458 291.337 236.188 284.544 236.188 284.544" stroke="#263238" stroke-miterlimit="10" stroke-linecap="round" stroke-linejoin="round"/>
<path d="M240.016 285.409C240.016 285.409 238.657 292.572 238.163 293.684C237.669 294.795 232.605 297.76 231.617 298.13C230.629 298.501 229.147 297.636 229.147 297.636L233.963 293.684L236.186 284.545" fill="white"/>
<path d="M240.016 285.409C240.016 285.409 238.657 292.572 238.163 293.684C237.669 294.795 232.605 297.76 231.617 298.13C230.629 298.501 229.147 297.636 229.147 297.636L233.963 293.684L236.186 284.545" stroke="#263238" stroke-miterlimit="10" stroke-linecap="round" stroke-linejoin="round"/>
<path d="M247.965 284.589C247.965 284.589 246.685 290.843 246.685 291.831C246.685 292.819 242.239 296.277 240.51 296.647C238.781 297.018 236.558 297.635 236.558 297.635C236.558 297.635 240.263 295.041 240.881 293.683C241.498 292.324 241.622 287.631 241.622 287.631" fill="white"/>
<path d="M247.965 284.589C247.965 284.589 246.685 290.843 246.685 291.831C246.685 292.819 242.239 296.277 240.51 296.647C238.781 297.018 236.558 297.635 236.558 297.635C236.558 297.635 240.263 295.041 240.881 293.683C241.498 292.324 241.622 287.631 241.622 287.631" stroke="#263238" stroke-miterlimit="10" stroke-linecap="round" stroke-linejoin="round"/>
<path d="M243.844 286.397C243.844 286.397 242.732 293.437 242.238 294.548C241.744 295.659 238.162 296.771 236.557 297.635C234.952 298.499 233.84 297.388 233.84 297.388L238.163 293.683L240.016 285.408" fill="white"/>
<path d="M243.844 286.397C243.844 286.397 242.732 293.437 242.238 294.548C241.744 295.659 238.162 296.771 236.557 297.635C234.952 298.499 233.84 297.388 233.84 297.388L238.163 293.683L240.016 285.408" stroke="#263238" stroke-miterlimit="10" stroke-linecap="round" stroke-linejoin="round"/>
<path d="M269.314 457.094C267.502 457.094 265.968 455.697 265.828 453.861L265.448 448.89C265.301 446.962 266.744 445.281 268.671 445.133C270.603 444.99 272.28 446.429 272.427 448.357L272.807 453.328C272.954 455.256 271.511 456.937 269.584 457.085C269.493 457.091 269.404 457.094 269.314 457.094Z" fill="#263238" stroke="#263238" stroke-miterlimit="10"/>
<path d="M257.064 203.158L255.872 210.068L264.45 214.595L265.88 205.302L257.064 203.158Z" fill="white" stroke="#263238" stroke-miterlimit="10"/>
<path d="M256.967 273.801C256.967 273.801 255.32 300.567 258.614 326.509C261.908 352.451 271.791 415.224 272.203 417.695C272.615 420.166 273.85 436.637 273.85 437.872C273.85 439.107 268.497 448.99 263.967 453.108C259.437 457.226 255.32 458.049 259.026 460.52C262.732 462.991 268.881 463.381 272.807 462.568C276.733 461.755 282.498 457.637 282.498 457.637L287.239 453.981C287.319 453.919 287.403 453.868 287.495 453.824C288.15 453.517 291.029 452.186 293.205 451.46C295.676 450.637 296.088 446.519 295.676 441.166C295.281 436.037 291.862 421.078 291.577 419.836C291.563 419.775 291.556 419.731 291.55 419.669C291.343 417.39 287.068 360.613 288.675 340.921C290.322 320.744 291.969 293.978 291.969 293.978C291.969 293.978 302.263 293.978 305.558 293.978C308.852 293.978 317.088 288.625 317.088 288.625L318.323 275.036C318.323 275.036 295.263 276.271 283.733 273.801C272.203 271.33 257.791 267.212 257.791 267.212L256.967 273.801Z" fill="#8A8A8A" stroke="#636363" stroke-miterlimit="10"/>
<path d="M280.177 443.164C277.965 442.672 276.3 441.175 275.235 439.898C274.596 439.132 273.384 439.3 272.943 440.195C271.225 443.689 267.365 450.02 263.967 453.108C259.437 457.226 255.32 458.049 259.026 460.52C262.732 462.991 268.881 463.381 272.807 462.568C276.733 461.755 282.498 457.637 282.498 457.637L287.239 453.981C287.319 453.919 287.403 453.868 287.495 453.824C288.15 453.517 291.029 452.186 293.205 451.46C295.412 450.724 295.976 447.36 295.778 442.834C295.74 441.972 294.928 441.353 294.087 441.547C290.808 442.306 283.337 443.866 280.177 443.164Z" fill="white" stroke="#263238" stroke-miterlimit="10"/>
<path d="M321.617 274.212C321.617 274.212 309.503 346.606 309.503 349.9C309.503 353.194 315.092 394.705 314.075 414.519C313.863 418.652 312.969 434.99 312.145 440.755C311.321 446.52 311.321 451.873 310.91 454.344C310.498 456.815 307.616 467.109 300.615 470.404C293.615 473.698 288.673 474.11 286.203 471.639C283.732 469.168 287.438 465.874 290.321 460.521C292.686 456.128 293.111 452.845 293.187 451.808C293.203 451.593 293.172 451.387 293.091 451.187C292.661 450.126 291.145 446.287 291.145 444.873C291.145 443.226 293.616 440.343 293.204 435.402C292.792 430.461 283.321 372.217 282.909 352.04C282.497 331.863 282.085 290.684 282.085 290.684L272.614 286.978" fill="#8A8A8A"/>
<path d="M321.617 274.212C321.617 274.212 309.503 346.606 309.503 349.9C309.503 353.194 315.092 394.705 314.075 414.519C313.863 418.652 312.969 434.99 312.145 440.755C311.321 446.52 311.321 451.873 310.91 454.344C310.498 456.815 307.616 467.109 300.615 470.404C293.615 473.698 288.673 474.11 286.203 471.639C283.732 469.168 287.438 465.874 290.321 460.521C292.686 456.128 293.111 452.845 293.187 451.808C293.203 451.593 293.172 451.387 293.091 451.187C292.661 450.126 291.145 446.287 291.145 444.873C291.145 443.226 293.616 440.343 293.204 435.402C292.792 430.461 283.321 372.217 282.909 352.04C282.497 331.863 282.085 290.684 282.085 290.684L272.614 286.978" stroke="#636363" stroke-miterlimit="10"/>
<path d="M282.322 170.274C282.322 170.274 269.931 197.915 270.17 205.778C270.408 213.641 260.256 272.51 260.256 272.51C260.256 272.51 275.651 278.756 285.182 278.994C294.713 279.232 302.577 279.232 302.577 279.232C302.577 279.232 300.671 217.691 302.339 206.73C304.007 195.769 309.011 171.941 309.011 171.941L282.322 170.274Z" fill="#578E7E" stroke="#263238" stroke-miterlimit="10"/>
<path d="M281.607 175.993C281.607 175.993 283.99 180.52 291.615 181.95C299.24 183.38 304.006 180.282 304.006 180.282L308.533 160.266L294.474 155.5L286.913 159.526L281.607 175.993Z" fill="white" stroke="#263238" stroke-miterlimit="10"/>
<path d="M287.802 157.645C287.802 157.645 273.982 160.266 269.931 160.981C265.88 161.696 262.306 163.364 260.876 172.18C259.446 180.996 257.063 203.157 257.063 203.157L263.497 206.255C263.497 206.255 262.782 214.357 263.497 218.407C264.212 222.458 254.428 279.233 254.428 279.233L262.53 282.569C262.53 282.569 268.263 241.759 269.931 228.892C271.599 216.025 271.361 211.259 274.697 199.583C278.033 187.907 288.994 162.887 289.232 162.172C289.47 161.457 290.9 156.93 290.9 156.93L287.802 157.645Z" fill="#263238" stroke="#263238" stroke-miterlimit="10"/>
<path d="M266.118 179.329L267.309 186.954C267.309 186.954 264.211 201.251 263.496 206.255" stroke="white" stroke-miterlimit="10"/>
<path d="M274.64 190.66C274.12 192.317 273.656 193.952 273.267 195.532" stroke="white" stroke-miterlimit="10"/>
<path d="M286.849 161.934C286.849 161.934 280.324 174.362 275.93 186.8" stroke="white" stroke-miterlimit="10"/>
<path d="M282.798 161.458C282.798 161.458 274.935 173.372 273.743 179.567" stroke="white" stroke-miterlimit="10"/>
<path d="M288.989 169.764C289.104 165.06 286.913 159.527 286.913 159.527C286.913 159.527 281.437 161.809 278.927 159.299C276.417 156.789 274.136 149.26 273.451 145.153C272.766 141.046 271.398 125.531 271.398 125.531L271.433 121.801C271.433 121.801 303.905 105.966 305.512 107.573C307.118 109.179 294.497 117.326 294.497 118.015C294.497 118.703 300.119 132.932 302.185 131.44C304.25 129.948 309.987 123.982 311.594 129.145C313.2 134.308 312.053 143.029 310.217 144.865C308.381 146.701 306.66 147.963 305.972 150.717C305.283 153.471 304.71 154.274 304.71 154.274C304.71 154.274 306.89 158.405 305.857 167.355" fill="white"/>
<path d="M288.989 169.764C289.104 165.06 286.913 159.527 286.913 159.527C286.913 159.527 281.437 161.809 278.927 159.299C276.417 156.789 274.136 149.26 273.451 145.153C272.766 141.046 271.398 125.531 271.398 125.531L271.433 121.801C271.433 121.801 303.905 105.966 305.512 107.573C307.118 109.179 294.497 117.326 294.497 118.015C294.497 118.703 300.119 132.932 302.185 131.44C304.25 129.948 309.987 123.982 311.594 129.145C313.2 134.308 312.053 143.029 310.217 144.865C308.381 146.701 306.66 147.963 305.972 150.717C305.283 153.471 304.71 154.274 304.71 154.274C304.71 154.274 306.89 158.405 305.857 167.355" stroke="#263238" stroke-miterlimit="10"/>
<path d="M286.913 159.527L294.474 155.501L288.755 165.032L286.913 159.527Z" fill="#263238" stroke="#263238" stroke-miterlimit="10"/>
<path d="M277.787 136.027C277.787 136.027 277.787 137.852 275.962 142.187C274.137 146.522 274.137 146.522 274.137 146.522C274.137 146.522 276.19 148.575 279.613 147.207" stroke="#263238" stroke-miterlimit="10"/>
<path d="M278.243 151.085C278.243 151.085 280.525 151.77 281.665 151.085" stroke="#263238" stroke-miterlimit="10"/>
<path d="M285.949 137.291C285.949 138.273 285.461 139.07 284.859 139.07C284.257 139.07 283.769 138.274 283.769 137.291C283.769 136.309 284.257 135.512 284.859 135.512C285.461 135.513 285.949 136.309 285.949 137.291Z" fill="#263238"/>
<path d="M276.425 136.488C276.425 137.47 275.937 138.266 275.335 138.266C274.733 138.266 274.245 137.47 274.245 136.488C274.245 135.506 274.733 134.709 275.335 134.709C275.937 134.71 276.425 135.506 276.425 136.488Z" fill="#263238"/>
<path d="M282.449 131.669C282.449 131.669 286.006 130.292 288.301 133.39" stroke="#263238" stroke-miterlimit="10"/>
<path d="M277.4 132.128C277.4 132.128 275.335 130.292 273.499 132.472" stroke="#263238" stroke-miterlimit="10"/>
<path d="M298.778 111.842C298.778 111.842 290.564 115.264 286.001 118.002C281.438 120.74 271.399 125.531 271.399 125.531C271.399 125.531 266.379 123.934 264.782 119.143C263.185 114.352 277.331 102.944 285.545 99.749C293.759 96.555 300.147 99.521 309.502 103.171C318.856 106.822 322.051 117.317 325.929 126.443C329.808 135.569 328.895 142.186 326.614 146.749C324.332 151.312 320.226 156.788 313.837 159.982C307.449 163.176 300.832 157.472 300.147 155.647C299.463 153.822 299.006 151.768 299.006 151.768C299.006 151.768 303.797 151.083 304.254 149.714C304.71 148.345 305.395 144.466 305.395 144.466C305.395 144.466 307.405 142.656 309.046 140.359C311.327 137.165 311.556 129.864 308.59 129.636C305.624 129.408 302.202 134.427 302.202 134.427C302.202 134.427 296.498 130.776 293.304 125.985C290.11 121.194 289.425 118.456 289.425 118.456L298.778 111.842Z" fill="#263238" stroke="#263238" stroke-miterlimit="10"/>
<path d="M306.626 160.028C306.626 160.028 301.146 182.665 296.856 195.056C292.567 207.447 293.758 222.459 294.473 234.849C295.188 247.24 298.795 288.196 298.795 288.196C298.795 288.196 313.33 286.051 317.858 283.669C322.385 281.286 329.534 275.806 329.534 275.806C329.534 275.806 321.442 232.443 321.203 231.729C320.965 231.014 320.25 225.057 320.25 225.057C320.25 225.057 330.454 174.087 327.833 170.037C325.212 165.987 306.626 160.028 306.626 160.028Z" fill="#263238" stroke="#263238" stroke-miterlimit="10"/>
<path d="M302.814 222.22L301.861 223.888C301.861 223.888 275.411 230.322 271.599 230.322C267.787 230.322 262.306 231.037 260.876 230.322C259.446 229.607 254.681 225.08 252.774 223.888C250.868 222.697 249.2 223.173 246.579 222.22C243.958 221.267 242.766 217.693 241.575 219.599C240.384 221.505 242.29 223.888 243.243 224.603C244.196 225.318 247.77 227.224 247.77 227.224C247.77 227.224 237.617 232.167 236.379 233.389C235.141 234.611 235.141 235.802 235.141 235.802L237.285 237.947C237.285 237.947 237.762 241.045 238.476 241.76C239.191 242.475 240.621 243.666 240.621 243.666C240.621 243.666 240.621 245.096 242.051 245.334C243.481 245.572 244.672 245.334 248.723 245.096C252.774 244.858 263.02 241.045 263.02 241.045C263.02 241.045 286.61 241.522 291.137 241.522C295.664 241.522 315.725 241.038 317.154 239.846C318.584 238.655 322.114 224.127 322.114 224.127C322.114 224.127 308.294 217.931 302.814 222.22Z" fill="white" stroke="#263238" stroke-miterlimit="10"/>
<path d="M310.677 183.857L302.814 222.221C302.814 222.221 305.912 222.221 310.201 223.412C314.49 224.603 319.732 227.701 319.732 227.701C319.732 227.701 321.4 227.463 322.115 224.127C322.83 220.791 324.021 214.834 324.021 214.834C324.021 214.834 332.599 190.291 333.314 184.81C334.029 179.33 332.599 170.99 330.216 168.368C327.833 165.747 314.728 164.317 314.728 164.317" fill="#263238"/>
<path d="M310.677 183.857L302.814 222.221C302.814 222.221 305.912 222.221 310.201 223.412C314.49 224.603 319.732 227.701 319.732 227.701C319.732 227.701 321.4 227.463 322.115 224.127C322.83 220.791 324.021 214.834 324.021 214.834C324.021 214.834 332.599 190.291 333.314 184.81C334.029 179.33 332.599 170.99 330.216 168.368C327.833 165.747 314.728 164.317 314.728 164.317" stroke="#263238" stroke-miterlimit="10"/>
<path d="M306.189 217.613L308.927 187.494" stroke="white" stroke-miterlimit="10"/>
<path d="M304.958 212.451L304.807 212.495L301.86 223.889C301.86 223.889 304.822 223.198 309.111 224.389C313.4 225.58 321.162 229.877 321.162 229.877C321.162 229.877 323.758 227.695 324.473 224.359C324.922 222.265 324.955 216.436 324.02 214.834C315.171 205.429 304.958 212.451 304.958 212.451Z" fill="white" stroke="#263238" stroke-miterlimit="10"/>
<path d="M311.039 453.374C311.155 452.289 310.01 451.507 309.039 452.003C306.187 453.461 302.666 455.028 300.713 455.028C298.636 455.028 296.492 453.873 295.029 452.878C294.214 452.323 293.104 452.763 292.899 453.728C292.559 455.333 291.841 457.697 290.321 460.52C287.439 465.873 283.732 469.167 286.203 471.638C288.674 474.109 293.615 473.697 300.615 470.403C307.615 467.109 310.498 456.814 310.91 454.343C310.959 454.058 311.001 453.734 311.039 453.374Z" fill="white" stroke="#263238" stroke-miterlimit="10"/>
</svg>
