<svg width="500" height="500" viewBox="0 0 500 500" fill="none" xmlns="http://www.w3.org/2000/svg">
<path d="M100.626 188.502C100.626 188.502 77.869 242.814 106.426 298.287C134.983 353.759 196.005 383.726 244.802 409.306C293.598 434.887 345.253 423.544 370.707 383.203C396.161 342.861 363.451 313.309 364.919 255.264C366.386 197.219 375.587 181.981 345.162 132.473C314.737 82.965 237.211 70.961 177.448 106.463C117.685 141.964 100.626 188.502 100.626 188.502Z" fill="#578E7E"/>
<path opacity="0.7" d="M100.626 188.502C100.626 188.502 77.869 242.814 106.426 298.287C134.983 353.759 196.005 383.726 244.802 409.306C293.598 434.887 345.253 423.544 370.707 383.203C396.161 342.861 363.451 313.309 364.919 255.264C366.386 197.219 375.587 181.981 345.162 132.473C314.737 82.965 237.211 70.961 177.448 106.463C117.685 141.964 100.626 188.502 100.626 188.502Z" fill="white"/>
<path d="M416.134 104.329C411.436 101.767 409.3 103.902 407.592 101.767C405.884 99.631 412.29 94.079 399.477 88.526C399.477 88.526 398.623 76.567 381.111 76.14C363.6 75.713 368.298 88.1 363.6 91.089C358.902 94.079 357.621 89.381 352.922 92.37C348.223 95.36 350.359 101.34 346.515 102.194C342.671 103.048 337.546 98.35 332.847 101.34C328.149 104.329 328.149 106.892 326.013 106.892C323.878 106.892 319.606 105.184 317.044 106.892C314.481 108.601 311.492 110.736 311.492 110.736H419.551C419.551 110.736 420.832 106.892 416.134 104.329Z" fill="#578E7E"/>
<g opacity="0.5">
<path d="M416.134 104.329C411.436 101.767 409.3 103.902 407.592 101.767C405.884 99.631 412.29 94.079 399.477 88.526C399.477 88.526 398.623 76.567 381.111 76.14C363.6 75.713 368.298 88.1 363.6 91.089C358.902 94.079 357.621 89.381 352.922 92.37C348.223 95.36 350.359 101.34 346.515 102.194C342.671 103.048 337.546 98.35 332.847 101.34C328.149 104.329 328.149 106.892 326.013 106.892C323.878 106.892 319.606 105.184 317.044 106.892C314.481 108.601 311.492 110.736 311.492 110.736H419.551C419.551 110.736 420.832 106.892 416.134 104.329Z" fill="white"/>
</g>
<path d="M356.271 158.167C353.396 156.599 352.09 157.906 351.044 156.599C349.999 155.292 353.919 151.895 346.078 148.497C346.078 148.497 345.555 141.179 334.84 140.918C324.125 140.657 327 148.236 324.125 150.065C321.25 151.894 320.466 149.02 317.591 150.849C314.716 152.679 316.023 156.338 313.671 156.86C311.319 157.383 308.183 154.508 305.308 156.337C302.433 158.166 302.433 159.734 301.126 159.734C299.819 159.734 297.206 158.689 295.638 159.734C294.07 160.779 292.241 162.086 292.241 162.086H358.362C358.362 162.088 359.146 159.736 356.271 158.167Z" fill="#578E7E"/>
<g opacity="0.5">
<path d="M356.271 158.167C353.396 156.599 352.09 157.906 351.044 156.599C349.999 155.292 353.919 151.895 346.078 148.497C346.078 148.497 345.555 141.179 334.84 140.918C324.125 140.657 327 148.236 324.125 150.065C321.25 151.894 320.466 149.02 317.591 150.849C314.716 152.679 316.023 156.338 313.671 156.86C311.319 157.383 308.183 154.508 305.308 156.337C302.433 158.166 302.433 159.734 301.126 159.734C299.819 159.734 297.206 158.689 295.638 159.734C294.07 160.779 292.241 162.086 292.241 162.086H358.362C358.362 162.088 359.146 159.736 356.271 158.167Z" fill="white"/>
</g>
<path d="M226.191 243.169C226.191 243.169 248.889 245.415 260.394 259.486C260.394 259.486 272.548 243.185 294.379 243.519C300.714 235.884 304.525 226.078 304.529 215.382C304.537 191.015 284.791 171.255 260.425 171.247C236.058 171.239 216.299 190.985 216.29 215.351C216.286 225.913 219.997 235.609 226.185 243.207L226.191 243.169Z" fill="#578E7E"/>
<path opacity="0.5" d="M226.191 243.169C226.191 243.169 248.889 245.415 260.394 259.486C260.394 259.486 272.548 243.185 294.379 243.519C300.714 235.884 304.525 226.078 304.529 215.382C304.537 191.015 284.791 171.255 260.425 171.247C236.058 171.239 216.299 190.985 216.29 215.351C216.286 225.913 219.997 235.609 226.185 243.207L226.191 243.169Z" fill="white"/>
<path d="M259.643 174.358L258.876 404.642H262.708L259.643 174.358Z" fill="#828282"/>
<path d="M260.792 255.197C260.792 255.197 268.454 241.404 282.247 237.19C282.247 237.19 267.688 240.638 260.409 252.515L260.792 255.197Z" fill="#828282"/>
<path d="M259.957 216.492C259.957 216.492 268.455 202.326 282.247 198.112C282.247 198.112 267.236 202.432 259.957 214.309V216.492Z" fill="#828282"/>
<path d="M260.254 236.64C260.254 236.64 268.454 221.865 282.247 217.651C282.247 217.651 267.335 221.786 260.056 233.663L260.254 236.64Z" fill="#828282"/>
<path d="M259.656 226.08C259.656 226.08 252.262 212.287 238.954 208.073C238.954 208.073 253.002 211.521 260.026 223.398L259.656 226.08Z" fill="#828282"/>
<path d="M259.656 245.236C259.656 245.236 252.262 231.444 238.954 227.229C238.954 227.229 253.002 230.677 260.026 242.554L259.656 245.236Z" fill="#828282"/>
<path d="M95.9089 209.595C95.9089 209.595 135.551 213.517 155.644 238.092C155.644 238.092 176.871 209.623 214.999 210.206C226.063 196.871 232.718 179.746 232.725 161.064C232.74 118.508 198.253 83.998 155.698 83.983C113.142 83.968 78.6319 118.455 78.6169 161.01C78.6099 179.458 85.091 196.391 95.898 209.66L95.9089 209.595Z" fill="#578E7E"/>
<path opacity="0.3" d="M95.9089 209.595C95.9089 209.595 135.551 213.517 155.644 238.092C155.644 238.092 176.871 209.623 214.999 210.206C226.063 196.871 232.718 179.746 232.725 161.064C232.74 118.508 198.253 83.998 155.698 83.983C113.142 83.968 78.6319 118.455 78.6169 161.01C78.6099 179.458 85.091 196.391 95.898 209.66L95.9089 209.595Z" fill="white"/>
<path d="M154.332 89.417L152.994 404.642H159.686L154.332 89.417Z" fill="#828282"/>
<path d="M156.34 230.602C156.34 230.602 169.722 206.514 193.811 199.154C193.811 199.154 168.385 205.176 155.671 225.919L156.34 230.602Z" fill="#828282"/>
<path d="M155.335 163.689C155.335 163.689 169.722 138.263 193.81 130.903C193.81 130.903 168.147 137.885 155.434 158.628L155.335 163.689Z" fill="#828282"/>
<path d="M155.732 197.336C155.732 197.336 169.722 172.388 193.81 165.028C193.81 165.028 168.384 171.05 155.67 191.793L155.732 197.336Z" fill="#828282"/>
<path d="M154.356 179.749C154.356 179.749 141.443 155.661 118.2 148.3C118.2 148.3 142.734 154.322 155.002 175.065L154.356 179.749Z" fill="#828282"/>
<path d="M154.356 213.205C154.356 213.205 141.443 189.117 118.2 181.756C118.2 181.756 142.734 187.778 155.002 208.521L154.356 213.205Z" fill="#828282"/>
<path d="M380.8 287.757C380.758 287.762 381.316 284.996 381.371 284.826C382.011 282.853 384.406 279.417 386.728 279.422C388.401 279.425 389.534 280.948 389.369 282.544C389.201 284.175 387.736 285.565 386.411 286.368C384.857 287.309 380.803 287.757 380.8 287.757Z" fill="#578E7E"/>
<path d="M376.304 269.155C378.49 269.94 379.577 273.984 379.509 276.057C379.503 276.236 379.089 279.027 379.051 279.008C379.051 279.008 379.015 278.99 379.007 278.986C379.184 279.623 379.365 280.308 379.549 281.061C379.877 282.453 380.235 284.03 380.509 285.772C380.787 287.512 381.041 289.411 381.127 291.434C381.216 293.462 381.207 295.601 380.912 297.802C380.909 297.827 380.902 297.852 380.899 297.877C381.185 297.26 382.043 295.561 382.124 295.438C383.262 293.704 386.479 291.023 388.718 291.64C390.331 292.085 391.022 293.853 390.441 295.35C389.848 296.878 388.068 297.833 386.578 298.256C384.898 298.734 381.152 298.169 380.854 298.123C380.554 300.217 380.076 302.342 379.474 304.466C379.131 305.681 378.748 306.893 378.348 308.104C378.613 307.578 378.853 307.11 378.894 307.048C380.032 305.314 383.249 302.633 385.488 303.25C387.101 303.695 387.792 305.463 387.211 306.959C386.618 308.488 384.838 309.442 383.348 309.866C381.836 310.296 378.633 309.879 377.787 309.757C377.629 310.22 377.476 310.684 377.316 311.146C376.549 313.365 375.774 315.575 375.08 317.766C374.835 318.538 374.622 319.308 374.406 320.077C374.642 319.611 374.844 319.219 374.881 319.163C376.019 317.429 379.236 314.748 381.475 315.365C383.088 315.81 383.779 317.578 383.198 319.075C382.605 320.603 380.825 321.557 379.335 321.981C377.892 322.392 374.933 322.033 373.926 321.893C373.729 322.687 373.53 323.482 373.375 324.261C373.281 324.795 373.154 325.303 373.089 325.844C373.014 326.379 372.939 326.908 372.866 327.433C372.761 328.448 372.647 329.495 372.569 330.488C372.51 331.178 372.467 331.837 372.421 332.5C372.656 331.729 373.147 330.228 373.202 330.107C373.775 328.854 375.193 327.053 376.756 326.061C376.839 325.875 376.939 325.698 377.056 325.531C377.977 324.216 379.831 323.807 381.097 324.901C382.855 326.418 382.416 330.584 381.607 332.493C381.56 332.606 380.905 333.77 380.481 334.498C380.796 334.108 381.097 333.726 381.426 333.329C382.071 332.539 382.738 331.769 383.453 330.938C383.812 330.549 384.175 330.156 384.541 329.76C384.896 329.359 385.322 328.98 385.714 328.584C386.643 327.686 387.628 326.821 388.64 325.972C387.949 325.405 385.526 323.358 384.829 321.967C384.135 320.582 383.636 318.625 384.363 317.156C385.074 315.717 386.844 315.032 388.262 315.92C390.23 317.153 390.427 321.338 389.917 323.348C389.885 323.474 389.357 324.875 389.052 325.639C389.664 325.133 390.273 324.625 390.909 324.134C392.745 322.715 394.647 321.335 396.539 319.951C397.119 319.527 397.691 319.098 398.266 318.671C398.018 318.472 395.085 316.101 394.304 314.543C393.61 313.158 393.111 311.201 393.837 309.732C394.548 308.293 396.318 307.608 397.736 308.496C399.704 309.73 399.901 313.914 399.391 315.924C399.352 316.076 398.59 318.091 398.371 318.594C399.636 317.652 400.888 316.702 402.085 315.715C403.738 314.355 405.284 312.93 406.68 311.438C406.564 311.346 403.492 308.885 402.692 307.289C401.998 305.904 401.499 303.947 402.225 302.477C402.936 301.038 404.706 300.353 406.124 301.242C408.092 302.476 408.288 306.659 407.779 308.67C407.746 308.802 407.166 310.339 406.873 311.063C406.935 311.102 406.923 311.095 406.985 311.133C408.462 309.517 409.688 307.765 410.756 306.069C411.376 305.088 411.914 304.115 412.416 303.158C411.797 302.759 408.987 300.901 408.109 299.544C407.267 298.244 406.556 296.354 407.117 294.813C407.666 293.304 409.35 292.429 410.857 293.157C412.948 294.167 413.603 298.304 413.317 300.358C413.302 300.47 413.018 301.588 412.8 302.399C413.02 301.963 413.255 301.518 413.457 301.096C414.221 299.515 414.823 298.02 415.346 296.691C415.637 295.933 415.885 295.242 416.111 294.593C415.708 293.884 414.119 291.005 413.968 289.425C413.82 287.883 414.06 285.878 415.268 284.769C416.45 283.683 418.349 283.682 419.35 285.022C420.74 286.882 419.415 290.855 418.215 292.547C418.111 292.693 416.226 294.792 416.205 294.756C416.205 294.756 416.185 294.722 416.181 294.713C415.977 295.342 415.75 296.014 415.488 296.743C414.993 298.086 414.422 299.598 413.69 301.202C412.962 302.807 412.126 304.53 411.082 306.266C410.037 308.007 408.85 309.786 407.389 311.459C407.372 311.478 407.353 311.495 407.336 311.514C407.915 311.157 409.568 310.214 409.703 310.155C411.608 309.336 415.771 308.875 417.298 310.625C418.398 311.886 417.999 313.742 416.689 314.67C415.351 315.618 413.34 315.431 411.864 314.963C410.199 314.435 407.386 311.898 407.163 311.695C405.757 313.277 404.186 314.785 402.512 316.224C401.556 317.048 400.568 317.848 399.566 318.638C400.077 318.345 400.536 318.088 400.604 318.058C402.51 317.24 406.672 316.778 408.199 318.528C409.299 319.789 408.9 321.644 407.59 322.572C406.252 323.52 404.241 323.334 402.765 322.866C401.267 322.391 398.826 320.276 398.187 319.707C397.8 320.006 397.416 320.309 397.028 320.606C395.165 322.033 393.298 323.449 391.511 324.894C390.881 325.403 390.279 325.927 389.674 326.45C390.128 326.191 390.513 325.976 390.574 325.949C392.48 325.131 396.642 324.669 398.169 326.419C399.269 327.68 398.87 329.536 397.56 330.464C396.222 331.412 394.211 331.225 392.735 330.757C391.305 330.303 389.035 328.372 388.273 327.7C387.671 328.254 387.066 328.807 386.507 329.371C386.134 329.765 385.748 330.118 385.395 330.534C385.037 330.939 384.683 331.339 384.332 331.736C383.685 332.525 383.012 333.335 382.4 334.12C381.97 334.663 381.57 335.188 381.166 335.716C381.787 335.202 383.025 334.222 383.138 334.151C384.897 333.053 388.942 331.966 390.717 333.465C391.995 334.545 391.882 336.439 390.728 337.555C389.549 338.694 387.533 338.815 386.003 338.576C384.318 338.313 381.269 336.326 380.889 336.075C380.223 336.951 379.584 337.81 378.994 338.629C376.941 341.466 375.34 343.907 374.244 345.628C374.205 345.689 374.17 345.744 374.133 345.803L372.712 345.114C372.785 345.003 372.857 344.895 372.936 344.777C374.082 343.06 375.753 340.631 377.888 337.811C378.56 336.918 379.297 335.978 380.062 335.02C379.865 334.804 378.752 333.572 377.857 332.29C376.226 332.929 372.828 332.955 372.389 332.955C372.317 334.053 372.258 335.122 372.218 336.131C372.071 339.63 372.082 342.55 372.117 344.589C372.118 344.673 372.12 344.747 372.122 344.827L370.56 344.069C370.576 342.042 370.637 339.3 370.844 336.059C370.913 334.944 371.008 333.753 371.117 332.532C370.684 332.423 367.151 331.516 365.817 330.45C364.607 329.483 363.334 327.916 363.377 326.277C363.42 324.672 364.74 323.309 366.4 323.522C368.703 323.818 370.635 327.534 371.014 329.573C371.036 329.693 371.133 331.025 371.181 331.867C371.228 331.368 371.269 330.883 371.324 330.37C371.426 329.355 371.558 328.345 371.695 327.258C371.78 326.735 371.866 326.207 371.953 325.674C372.028 325.143 372.174 324.593 372.283 324.046C372.563 322.784 372.907 321.52 373.283 320.253C372.394 320.162 369.244 319.791 367.895 319.015C366.553 318.243 365.056 316.886 364.852 315.259C364.651 313.666 365.75 312.118 367.422 312.077C369.744 312.021 372.216 315.402 372.9 317.36C372.943 317.482 373.275 318.942 373.443 319.748C373.675 318.988 373.902 318.229 374.161 317.468C374.909 315.272 375.735 313.072 376.549 310.873C376.799 310.2 377.039 309.526 377.283 308.852C376.967 308.823 373.212 308.464 371.701 307.595C370.358 306.823 368.862 305.466 368.657 303.839C368.456 302.246 369.555 300.698 371.228 300.658C373.55 300.602 376.022 303.983 376.706 305.94C376.757 306.088 377.233 308.189 377.328 308.73C377.864 307.246 378.384 305.763 378.837 304.279C379.466 302.233 379.969 300.191 380.311 298.177C380.163 298.164 376.243 297.806 374.696 296.916C373.353 296.144 371.857 294.787 371.652 293.16C371.451 291.567 372.55 290.019 374.222 289.979C376.544 289.922 379.016 293.303 379.7 295.261C379.745 295.39 380.109 296.99 380.264 297.755C380.337 297.753 380.324 297.753 380.397 297.752C380.737 295.59 380.793 293.452 380.748 291.449C380.724 290.289 380.636 289.181 380.526 288.105C379.789 288.113 376.421 288.114 374.94 287.467C373.521 286.847 371.885 285.662 371.502 284.069C371.128 282.508 372.05 280.848 373.708 280.624C376.01 280.313 378.838 283.402 379.733 285.273C379.782 285.375 380.162 286.464 380.427 287.261C380.37 286.776 380.32 286.275 380.257 285.811C380.022 284.071 379.699 282.491 379.402 281.095C379.226 280.302 379.052 279.589 378.882 278.923C378.154 278.554 375.242 277.029 374.243 275.795C373.269 274.591 372.363 272.786 372.758 271.195C373.146 269.638 374.729 268.59 376.304 269.155Z" fill="#578E7E"/>
<path d="M418.287 304.952C416.47 304.879 412.842 303.017 412.84 303.016C412.802 302.997 414.793 300.998 414.933 300.886C416.555 299.593 420.448 298.049 422.383 299.334C423.777 300.26 423.882 302.155 422.863 303.396C421.823 304.663 419.834 305.014 418.287 304.952Z" fill="#578E7E"/>
<g opacity="0.5">
<path d="M380.8 287.757C380.758 287.762 381.316 284.996 381.371 284.826C382.011 282.853 384.406 279.417 386.728 279.422C388.401 279.425 389.534 280.948 389.369 282.544C389.201 284.175 387.736 285.565 386.411 286.368C384.857 287.309 380.803 287.757 380.8 287.757Z" fill="white"/>
<path d="M376.304 269.155C378.49 269.94 379.577 273.984 379.509 276.057C379.503 276.236 379.089 279.027 379.051 279.008C379.051 279.008 379.015 278.99 379.007 278.986C379.184 279.623 379.365 280.308 379.549 281.061C379.877 282.453 380.235 284.03 380.509 285.772C380.787 287.512 381.041 289.411 381.127 291.434C381.216 293.462 381.207 295.601 380.912 297.802C380.909 297.827 380.902 297.852 380.899 297.877C381.185 297.26 382.043 295.561 382.124 295.438C383.262 293.704 386.479 291.023 388.718 291.64C390.331 292.085 391.022 293.853 390.441 295.35C389.848 296.878 388.068 297.833 386.578 298.256C384.898 298.734 381.152 298.169 380.854 298.123C380.554 300.217 380.076 302.342 379.474 304.466C379.131 305.681 378.748 306.893 378.348 308.104C378.613 307.578 378.853 307.11 378.894 307.048C380.032 305.314 383.249 302.633 385.488 303.25C387.101 303.695 387.792 305.463 387.211 306.959C386.618 308.488 384.838 309.442 383.348 309.866C381.836 310.296 378.633 309.879 377.787 309.757C377.629 310.22 377.476 310.684 377.316 311.146C376.549 313.365 375.774 315.575 375.08 317.766C374.835 318.538 374.622 319.308 374.406 320.077C374.642 319.611 374.844 319.219 374.881 319.163C376.019 317.429 379.236 314.748 381.475 315.365C383.088 315.81 383.779 317.578 383.198 319.075C382.605 320.603 380.825 321.557 379.335 321.981C377.892 322.392 374.933 322.033 373.926 321.893C373.729 322.687 373.53 323.482 373.375 324.261C373.281 324.795 373.154 325.303 373.089 325.844C373.014 326.379 372.939 326.908 372.866 327.433C372.761 328.448 372.647 329.495 372.569 330.488C372.51 331.178 372.467 331.837 372.421 332.5C372.656 331.729 373.147 330.228 373.202 330.107C373.775 328.854 375.193 327.053 376.756 326.061C376.839 325.875 376.939 325.698 377.056 325.531C377.977 324.216 379.831 323.807 381.097 324.901C382.855 326.418 382.416 330.584 381.607 332.493C381.56 332.606 380.905 333.77 380.481 334.498C380.796 334.108 381.097 333.726 381.426 333.329C382.071 332.539 382.738 331.769 383.453 330.938C383.812 330.549 384.175 330.156 384.541 329.76C384.896 329.359 385.322 328.98 385.714 328.584C386.643 327.686 387.628 326.821 388.64 325.972C387.949 325.405 385.526 323.358 384.829 321.967C384.135 320.582 383.636 318.625 384.363 317.156C385.074 315.717 386.844 315.032 388.262 315.92C390.23 317.153 390.427 321.338 389.917 323.348C389.885 323.474 389.357 324.875 389.052 325.639C389.664 325.133 390.273 324.625 390.909 324.134C392.745 322.715 394.647 321.335 396.539 319.951C397.119 319.527 397.691 319.098 398.266 318.671C398.018 318.472 395.085 316.101 394.304 314.543C393.61 313.158 393.111 311.201 393.837 309.732C394.548 308.293 396.318 307.608 397.736 308.496C399.704 309.73 399.901 313.914 399.391 315.924C399.352 316.076 398.59 318.091 398.371 318.594C399.636 317.652 400.888 316.702 402.085 315.715C403.738 314.355 405.284 312.93 406.68 311.438C406.564 311.346 403.492 308.885 402.692 307.289C401.998 305.904 401.499 303.947 402.225 302.477C402.936 301.038 404.706 300.353 406.124 301.242C408.092 302.476 408.288 306.659 407.779 308.67C407.746 308.802 407.166 310.339 406.873 311.063C406.935 311.102 406.923 311.095 406.985 311.133C408.462 309.517 409.688 307.765 410.756 306.069C411.376 305.088 411.914 304.115 412.416 303.158C411.797 302.759 408.987 300.901 408.109 299.544C407.267 298.244 406.556 296.354 407.117 294.813C407.666 293.304 409.35 292.429 410.857 293.157C412.948 294.167 413.603 298.304 413.317 300.358C413.302 300.47 413.018 301.588 412.8 302.399C413.02 301.963 413.255 301.518 413.457 301.096C414.221 299.515 414.823 298.02 415.346 296.691C415.637 295.933 415.885 295.242 416.111 294.593C415.708 293.884 414.119 291.005 413.968 289.425C413.82 287.883 414.06 285.878 415.268 284.769C416.45 283.683 418.349 283.682 419.35 285.022C420.74 286.882 419.415 290.855 418.215 292.547C418.111 292.693 416.226 294.792 416.205 294.756C416.205 294.756 416.185 294.722 416.181 294.713C415.977 295.342 415.75 296.014 415.488 296.743C414.993 298.086 414.422 299.598 413.69 301.202C412.962 302.807 412.126 304.53 411.082 306.266C410.037 308.007 408.85 309.786 407.389 311.459C407.372 311.478 407.353 311.495 407.336 311.514C407.915 311.157 409.568 310.214 409.703 310.155C411.608 309.336 415.771 308.875 417.298 310.625C418.398 311.886 417.999 313.742 416.689 314.67C415.351 315.618 413.34 315.431 411.864 314.963C410.199 314.435 407.386 311.898 407.163 311.695C405.757 313.277 404.186 314.785 402.512 316.224C401.556 317.048 400.568 317.848 399.566 318.638C400.077 318.345 400.536 318.088 400.604 318.058C402.51 317.24 406.672 316.778 408.199 318.528C409.299 319.789 408.9 321.644 407.59 322.572C406.252 323.52 404.241 323.334 402.765 322.866C401.267 322.391 398.826 320.276 398.187 319.707C397.8 320.006 397.416 320.309 397.028 320.606C395.165 322.033 393.298 323.449 391.511 324.894C390.881 325.403 390.279 325.927 389.674 326.45C390.128 326.191 390.513 325.976 390.574 325.949C392.48 325.131 396.642 324.669 398.169 326.419C399.269 327.68 398.87 329.536 397.56 330.464C396.222 331.412 394.211 331.225 392.735 330.757C391.305 330.303 389.035 328.372 388.273 327.7C387.671 328.254 387.066 328.807 386.507 329.371C386.134 329.765 385.748 330.118 385.395 330.534C385.037 330.939 384.683 331.339 384.332 331.736C383.685 332.525 383.012 333.335 382.4 334.12C381.97 334.663 381.57 335.188 381.166 335.716C381.787 335.202 383.025 334.222 383.138 334.151C384.897 333.053 388.942 331.966 390.717 333.465C391.995 334.545 391.882 336.439 390.728 337.555C389.549 338.694 387.533 338.815 386.003 338.576C384.318 338.313 381.269 336.326 380.889 336.075C380.223 336.951 379.584 337.81 378.994 338.629C376.941 341.466 375.34 343.907 374.244 345.628C374.205 345.689 374.17 345.744 374.133 345.803L372.712 345.114C372.785 345.003 372.857 344.895 372.936 344.777C374.082 343.06 375.753 340.631 377.888 337.811C378.56 336.918 379.297 335.978 380.062 335.02C379.865 334.804 378.752 333.572 377.857 332.29C376.226 332.929 372.828 332.955 372.389 332.955C372.317 334.053 372.258 335.122 372.218 336.131C372.071 339.63 372.082 342.55 372.117 344.589C372.118 344.673 372.12 344.747 372.122 344.827L370.56 344.069C370.576 342.042 370.637 339.3 370.844 336.059C370.913 334.944 371.008 333.753 371.117 332.532C370.684 332.423 367.151 331.516 365.817 330.45C364.607 329.483 363.334 327.916 363.377 326.277C363.42 324.672 364.74 323.309 366.4 323.522C368.703 323.818 370.635 327.534 371.014 329.573C371.036 329.693 371.133 331.025 371.181 331.867C371.228 331.368 371.269 330.883 371.324 330.37C371.426 329.355 371.558 328.345 371.695 327.258C371.78 326.735 371.866 326.207 371.953 325.674C372.028 325.143 372.174 324.593 372.283 324.046C372.563 322.784 372.907 321.52 373.283 320.253C372.394 320.162 369.244 319.791 367.895 319.015C366.553 318.243 365.056 316.886 364.852 315.259C364.651 313.666 365.75 312.118 367.422 312.077C369.744 312.021 372.216 315.402 372.9 317.36C372.943 317.482 373.275 318.942 373.443 319.748C373.675 318.988 373.902 318.229 374.161 317.468C374.909 315.272 375.735 313.072 376.549 310.873C376.799 310.2 377.039 309.526 377.283 308.852C376.967 308.823 373.212 308.464 371.701 307.595C370.358 306.823 368.862 305.466 368.657 303.839C368.456 302.246 369.555 300.698 371.228 300.658C373.55 300.602 376.022 303.983 376.706 305.94C376.757 306.088 377.233 308.189 377.328 308.73C377.864 307.246 378.384 305.763 378.837 304.279C379.466 302.233 379.969 300.191 380.311 298.177C380.163 298.164 376.243 297.806 374.696 296.916C373.353 296.144 371.857 294.787 371.652 293.16C371.451 291.567 372.55 290.019 374.222 289.979C376.544 289.922 379.016 293.303 379.7 295.261C379.745 295.39 380.109 296.99 380.264 297.755C380.337 297.753 380.324 297.753 380.397 297.752C380.737 295.59 380.793 293.452 380.748 291.449C380.724 290.289 380.636 289.181 380.526 288.105C379.789 288.113 376.421 288.114 374.94 287.467C373.521 286.847 371.885 285.662 371.502 284.069C371.128 282.508 372.05 280.848 373.708 280.624C376.01 280.313 378.838 283.402 379.733 285.273C379.782 285.375 380.162 286.464 380.427 287.261C380.37 286.776 380.32 286.275 380.257 285.811C380.022 284.071 379.699 282.491 379.402 281.095C379.226 280.302 379.052 279.589 378.882 278.923C378.154 278.554 375.242 277.029 374.243 275.795C373.269 274.591 372.363 272.786 372.758 271.195C373.146 269.638 374.729 268.59 376.304 269.155Z" fill="white"/>
<path d="M418.287 304.952C416.47 304.879 412.842 303.017 412.84 303.016C412.802 302.997 414.793 300.998 414.933 300.886C416.555 299.593 420.448 298.049 422.383 299.334C423.777 300.26 423.882 302.155 422.863 303.396C421.823 304.663 419.834 305.014 418.287 304.952Z" fill="white"/>
</g>
<path d="M397.096 350.396C397.096 350.396 386.086 323.85 379.921 325.004C373.756 326.158 390.49 367.324 390.49 367.324C390.49 367.324 371.113 330.775 357.901 330.775C344.689 330.775 362.745 371.171 379.48 384.637C379.48 384.637 353.056 356.167 337.642 362.323C322.228 368.479 368.47 397.333 368.47 397.333C368.47 397.333 341.606 388.869 344.689 395.409C347.772 401.949 356.139 403.104 356.139 403.104L325.752 404.643H431.447L407.666 402.335C407.666 402.335 432.328 390.024 425.722 385.022C419.116 380.021 404.583 390.793 404.583 390.793C404.583 390.793 429.686 363.093 424.841 352.705C419.997 342.317 398.417 371.557 398.417 371.557C398.417 371.557 416.033 334.238 412.51 327.698C408.986 321.156 397.096 350.396 397.096 350.396Z" fill="#578E7E"/>
<path opacity="0.4" d="M397.096 350.396C397.096 350.396 386.086 323.85 379.921 325.004C373.756 326.158 390.49 367.324 390.49 367.324C390.49 367.324 371.113 330.775 357.901 330.775C344.689 330.775 362.745 371.171 379.48 384.637C379.48 384.637 353.056 356.167 337.642 362.323C322.228 368.479 368.47 397.333 368.47 397.333C368.47 397.333 341.606 388.869 344.689 395.409C347.772 401.949 356.139 403.104 356.139 403.104L325.752 404.643H431.447L407.666 402.335C407.666 402.335 432.328 390.024 425.722 385.022C419.116 380.021 404.583 390.793 404.583 390.793C404.583 390.793 429.686 363.093 424.841 352.705C419.997 342.317 398.417 371.557 398.417 371.557C398.417 371.557 416.033 334.238 412.51 327.698C408.986 321.156 397.096 350.396 397.096 350.396Z" fill="white"/>
<path d="M400.619 351.794C390.93 380.42 390.93 400.678 390.93 400.678C390.93 400.678 402.38 401.118 414.271 392.311" stroke="#787878" stroke-miterlimit="10" stroke-linecap="round" stroke-linejoin="round"/>
<path d="M395.774 367.208C395.774 367.208 393.572 356.639 387.847 342.105" stroke="#787878" stroke-miterlimit="10" stroke-linecap="round" stroke-linejoin="round"/>
<path d="M367.149 350.474L391.811 387.027C391.811 387.027 408.546 372.934 414.271 365.007" stroke="#787878" stroke-miterlimit="10" stroke-linecap="round" stroke-linejoin="round"/>
<path d="M391.37 395.834C391.37 395.834 365.387 383.503 354.817 376.457" stroke="#787878" stroke-miterlimit="10" stroke-linecap="round" stroke-linejoin="round"/>
<path d="M367.355 323.736C367.355 323.736 366.778 343.929 369.278 353.16C371.778 362.391 377.163 382.776 378.125 387.007C379.087 391.238 377.74 397.969 377.74 397.969C377.74 397.969 368.317 402.2 367.163 402.585C366.009 402.97 367.355 404.124 369.471 404.508C371.586 404.893 386.779 405.662 387.549 403.739C388.318 401.816 388.126 395.085 388.895 391.623C389.664 388.161 394.857 376.045 392.357 367.391C389.857 358.737 388.895 351.044 389.665 347.582C390.434 344.12 392.934 335.274 393.704 334.312C394.473 333.35 398.512 330.658 400.05 327.966C401.589 325.274 401.781 321.812 401.781 321.812C401.781 321.812 379.279 326.236 367.355 323.736Z" fill="white" stroke="#263238" stroke-miterlimit="10" stroke-linecap="round" stroke-linejoin="round"/>
<path d="M400.049 327.967C401.588 325.275 401.78 321.813 401.78 321.813C401.78 321.813 379.279 326.236 367.356 323.736C367.356 323.736 366.779 343.929 369.279 353.16C371.779 362.391 377.164 382.776 378.126 387.007C378.325 387.882 378.421 388.865 378.455 389.873C381.421 390.887 385.282 391.628 389.134 390.725C390.384 386.409 394.676 375.417 392.358 367.391C389.858 358.737 388.896 351.044 389.666 347.582C390.435 344.12 392.935 335.274 393.704 334.312C394.471 333.352 398.51 330.659 400.049 327.967Z" fill="#263238" stroke="#263238" stroke-miterlimit="10" stroke-linecap="round" stroke-linejoin="round"/>
<path d="M380.817 400.662L377.74 397.97C377.74 397.97 368.317 402.201 367.163 402.586C366.009 402.971 367.355 404.125 369.471 404.509C371.586 404.894 386.779 405.663 387.549 403.74C387.882 402.908 388.035 401.173 388.163 399.194L380.817 400.662Z" fill="#578E7E" stroke="#263238" stroke-miterlimit="10" stroke-linecap="round" stroke-linejoin="round"/>
<path d="M371.586 248.926C371.586 248.926 373.894 252.195 373.125 257.003C372.356 261.811 366.779 269.503 362.548 273.35C358.317 277.196 358.509 283.735 360.817 287.004C363.125 290.273 364.279 290.273 364.279 290.273L356.971 324.12C356.971 324.12 369.664 326.62 378.895 326.62C388.126 326.62 390.818 326.428 395.434 325.274C400.049 324.12 408.127 322.197 408.127 322.197C408.127 322.197 401.204 294.888 401.204 287.58C401.204 280.272 401.973 272.772 401.973 272.772C401.973 272.772 403.319 265.464 396.973 254.694C390.627 243.924 380.434 242.963 376.395 243.924C372.356 244.885 371.586 248.926 371.586 248.926Z" fill="#578E7E" stroke="#263238" stroke-miterlimit="10" stroke-linecap="round" stroke-linejoin="round"/>
<path d="M364.278 290.273C364.278 290.273 369.278 292.581 374.278 290.465" stroke="#263238" stroke-miterlimit="10" stroke-linecap="round" stroke-linejoin="round"/>
<path d="M369.663 292.004V300.274" stroke="#263238" stroke-miterlimit="10" stroke-linecap="round" stroke-linejoin="round"/>
<path d="M367.547 291.427L366.009 312.197" stroke="#263238" stroke-miterlimit="10" stroke-linecap="round" stroke-linejoin="round"/>
<path d="M396.971 254.695C390.625 243.925 380.432 242.964 376.393 243.925C372.354 244.887 371.585 248.925 371.585 248.925C371.585 248.925 373.893 252.194 373.124 257.002C372.476 261.053 368.416 267.143 364.623 271.263C366.006 271.567 368.45 271.264 371.778 267.579C377.163 261.617 381.394 258.156 386.394 256.617C390.025 255.5 394.667 257.32 397.602 255.826C397.394 255.451 397.198 255.08 396.971 254.695Z" fill="white" stroke="#263238" stroke-miterlimit="10" stroke-linecap="round" stroke-linejoin="round"/>
<path d="M364.47 224.886C364.47 224.886 363.124 228.732 363.316 231.04C363.508 233.348 364.278 234.502 363.124 236.617C361.97 238.732 359.855 240.079 360.432 241.04C361.009 242.002 363.894 242.771 363.894 242.771C363.894 242.771 365.048 249.887 366.394 250.656C367.74 251.425 376.202 247.579 377.933 247.002C379.664 246.425 381.972 241.425 380.625 233.732C379.278 226.039 370.047 221.617 364.47 224.886Z" fill="white" stroke="#263238" stroke-miterlimit="10" stroke-linecap="round" stroke-linejoin="round"/>
<path d="M367.163 236.137C367.163 236.827 366.862 237.387 366.49 237.387C366.118 237.387 365.817 236.827 365.817 236.137C365.817 235.447 366.118 234.887 366.49 234.887C366.861 234.887 367.163 235.446 367.163 236.137Z" fill="#263238"/>
<path d="M365.24 232.964C365.24 232.964 367.548 231.425 368.702 233.926" stroke="#263238" stroke-miterlimit="10" stroke-linecap="round" stroke-linejoin="round"/>
<path d="M361.282 222.613C360.766 223.25 360.794 224.168 361.365 224.755C362.442 225.861 364.354 227.617 366.586 228.733C370.048 230.464 374.663 233.349 374.663 236.618C374.663 239.887 372.74 249.311 374.663 252.58C376.586 255.849 381.779 258.926 384.856 259.311C387.933 259.696 392.356 262.965 393.51 268.35C394.664 273.735 396.395 280.658 402.933 279.312C409.471 277.966 410.818 268.735 408.126 264.504C405.434 260.273 402.933 260.081 405.049 255.465C407.165 250.85 405.818 244.695 401.203 240.849C396.587 237.003 392.933 239.118 392.549 234.503C392.164 229.887 390.558 223.45 387.164 218.926C383.263 213.724 369.495 212.469 361.282 222.613Z" fill="#263238" stroke="#263238" stroke-miterlimit="10" stroke-linecap="round" stroke-linejoin="round"/>
<path d="M379.086 316.236C379.086 316.236 378.124 327.006 377.355 328.159C376.586 329.313 373.316 332.198 372.739 333.544C372.162 334.89 373.508 339.89 373.508 339.89C373.508 339.89 374.662 341.044 375.623 340.659C376.585 340.274 376.2 339.505 376.2 339.505C376.2 339.505 375.623 338.351 376.2 337.966C376.777 337.581 379.085 337.004 379.854 335.081C380.623 333.158 381.008 330.85 381.008 330.85L385.816 317.965L379.086 316.236Z" fill="white" stroke="#263238" stroke-miterlimit="10" stroke-linecap="round" stroke-linejoin="round"/>
<path d="M375.624 272.388C375.624 272.388 375.239 282.196 375.816 286.235C376.393 290.274 376.778 302.197 375.624 306.813C374.47 311.429 375.239 317.583 375.239 317.583C375.239 317.583 381.393 320.468 384.47 320.083C387.547 319.698 389.662 319.314 389.662 319.314C389.662 319.314 393.124 304.314 393.701 297.582C394.278 290.851 392.932 269.696 392.932 269.696" fill="#578E7E"/>
<path d="M375.624 272.388C375.624 272.388 375.239 282.196 375.816 286.235C376.393 290.274 376.778 302.197 375.624 306.813C374.47 311.429 375.239 317.583 375.239 317.583C375.239 317.583 381.393 320.468 384.47 320.083C387.547 319.698 389.662 319.314 389.662 319.314C389.662 319.314 393.124 304.314 393.701 297.582C394.278 290.851 392.932 269.696 392.932 269.696" stroke="#263238" stroke-miterlimit="10" stroke-linecap="round" stroke-linejoin="round"/>
<path d="M297.992 264.712H275.281V289.736H297.992V264.712Z" fill="#578E7E" stroke="#263238" stroke-miterlimit="10" stroke-linecap="round" stroke-linejoin="round"/>
<path d="M288.686 286.008C293.136 284.961 295.896 280.506 294.849 276.055C293.803 271.605 289.347 268.846 284.896 269.892C280.446 270.939 277.687 275.395 278.733 279.845C279.78 284.295 284.236 287.054 288.686 286.008Z" fill="white"/>
<path d="M237.43 240.95C237.43 240.95 234.696 245.366 233.855 247.679C233.014 249.992 232.173 253.777 232.173 253.777L224.393 249.782L229.44 236.534L237.43 240.95Z" fill="white" stroke="#263238" stroke-miterlimit="10" stroke-linecap="round" stroke-linejoin="round"/>
<path d="M244.79 220.763C244.79 220.763 247.944 221.814 249.206 218.029C250.468 214.244 245.631 210.669 238.902 208.777C232.173 206.884 221.238 213.403 219.135 218.45C217.032 223.497 218.925 228.964 216.191 232.749C213.457 236.534 203.574 237.375 202.523 247.469C201.472 257.563 207.78 261.348 206.308 264.922C204.836 268.497 198.738 270.6 199.789 278.59C200.84 286.581 212.616 290.786 217.873 287.632C223.13 284.478 225.023 277.749 223.34 269.548C221.658 261.347 220.817 252.936 225.233 249.781C229.649 246.627 234.696 240.529 235.116 237.585C235.537 234.641 234.485 234.01 237.009 233.169C239.533 232.328 244.159 226.65 244.79 220.763Z" fill="#263238" stroke="#263238" stroke-miterlimit="10" stroke-linecap="round" stroke-linejoin="round"/>
<path d="M229.344 307.303C229.344 307.303 232.344 326.303 233.344 339.053C234.344 351.803 232.981 361.057 233.344 368.803C234.094 384.803 236.344 396.553 236.344 396.553C236.344 396.553 245.844 400.553 247.094 401.303C248.344 402.053 250.094 402.053 250.094 403.053C250.094 404.053 242.844 405.803 238.594 404.053C236.463 403.175 231.344 404.303 229.094 403.303C227.649 402.661 229.094 398.803 229.094 396.303C229.094 393.803 224.844 380.553 223.844 374.303C222.844 368.053 221.844 366.053 222.594 361.553C223.344 357.053 223.594 351.803 223.594 351.803C223.594 351.803 216.265 323.978 214.93 320.016C213.594 316.053 212.844 312.303 212.844 312.303" fill="#263238"/>
<path d="M229.344 307.303C229.344 307.303 232.344 326.303 233.344 339.053C234.344 351.803 232.981 361.057 233.344 368.803C234.094 384.803 236.344 396.553 236.344 396.553C236.344 396.553 245.844 400.553 247.094 401.303C248.344 402.053 250.094 402.053 250.094 403.053C250.094 404.053 242.844 405.803 238.594 404.053C236.463 403.175 231.344 404.303 229.094 403.303C227.649 402.661 229.094 398.803 229.094 396.303C229.094 393.803 224.844 380.553 223.844 374.303C222.844 368.053 221.844 366.053 222.594 361.553C223.344 357.053 223.594 351.803 223.594 351.803C223.594 351.803 216.265 323.978 214.93 320.016C213.594 316.053 212.844 312.303 212.844 312.303" stroke="#263238" stroke-miterlimit="10" stroke-linecap="round" stroke-linejoin="round"/>
<path d="M247.094 401.303C245.844 400.553 236.344 396.553 236.344 396.553C236.344 396.553 235.412 391.682 234.548 383.949C231.269 385.63 228.48 385.709 226.476 385.341C227.803 390.28 229.094 394.926 229.094 396.304C229.094 398.804 227.649 402.662 229.094 403.304C231.344 404.304 236.463 403.176 238.594 404.054C242.844 405.804 250.094 404.054 250.094 403.054C250.094 402.054 248.344 402.053 247.094 401.303Z" fill="white" stroke="#263238" stroke-miterlimit="10" stroke-linecap="round" stroke-linejoin="round"/>
<path d="M228.905 398.266C228.568 400.464 227.994 402.815 229.094 403.304C231.344 404.304 236.463 403.176 238.594 404.054C242.844 405.804 250.094 404.054 250.094 403.054C250.094 402.054 248.344 402.054 247.094 401.304C245.844 400.554 236.344 396.554 236.344 396.554L235.344 399.554L228.905 398.266Z" fill="white" stroke="#263238" stroke-miterlimit="10" stroke-linecap="round" stroke-linejoin="round"/>
<path d="M223.551 245.997C223.551 245.997 227.546 244.946 231.542 248.1C235.537 251.254 236.379 256.511 239.743 261.768C243.108 267.025 243.528 271.651 242.266 274.595C241.004 277.539 237.009 287.002 234.906 292.89C232.803 298.778 231.962 308.241 230.7 314.549C229.438 320.857 218.924 321.278 214.929 320.016C210.934 318.754 206.764 313.493 206.343 306.553C205.922 299.614 209.502 296.485 210.343 294.803C211.184 293.121 219.975 279.641 217.873 272.912C215.77 266.183 216.611 258.192 218.083 254.197C219.556 250.202 222.29 246.627 223.551 245.997Z" fill="#263238" stroke="#263238" stroke-miterlimit="10" stroke-linecap="round" stroke-linejoin="round"/>
<path d="M231.542 248.099C227.547 244.945 223.551 245.996 223.551 245.996C222.289 246.627 219.556 250.202 218.084 254.197C216.612 258.192 215.771 266.183 217.874 272.912C219.977 279.641 211.186 293.12 210.344 294.803C210.344 294.803 216.535 301.578 232.819 301.601C233.378 298.402 234.032 295.336 234.906 292.889C237.009 287.001 241.004 277.538 242.266 274.594C243.528 271.65 243.107 267.024 239.743 261.767C236.379 256.511 235.537 251.254 231.542 248.099Z" fill="#578E7E" stroke="#263238" stroke-miterlimit="10" stroke-linecap="round" stroke-linejoin="round"/>
<path d="M272.337 282.165L240.795 285.319C240.795 285.319 238.272 284.688 237.641 283.427C237.117 282.379 227.158 265.509 223.803 259.831C222.724 258.005 222.185 255.878 222.474 253.777C222.763 251.674 223.867 249.571 227.127 249.571C232.423 249.571 236.409 257.536 237.717 260.523C238.175 261.568 238.675 262.593 239.202 263.604L244.371 273.543L273.6 277.118C273.6 277.118 278.436 274.174 279.278 273.753C280.119 273.332 282.853 273.122 284.325 272.912C285.797 272.702 286.848 271.44 286.848 272.702C286.848 273.964 285.797 274.174 285.166 274.384C284.535 274.594 282.012 275.435 282.012 275.435L289.832 277.342C290.285 277.453 290.578 277.892 290.506 278.352C290.432 278.821 290.006 279.151 289.534 279.105L283.936 278.563L289.223 281.115C289.632 281.313 289.808 281.802 289.617 282.215C289.453 282.569 289.066 282.763 288.684 282.68L283.105 281.471L287.26 283.86L288.195 284.691C287.883 286.041 286.516 285.272 285.772 284.924L282.378 283.34L285.286 286.56C284.34 286.56 283.418 286.264 282.649 285.715L279.47 283.444L274.173 281.886L272.337 282.165Z" fill="white" stroke="#263238" stroke-miterlimit="10" stroke-linecap="round" stroke-linejoin="round"/>
<path d="M239.714 264.591L239.201 263.604C238.675 262.592 238.174 261.567 237.716 260.522C236.407 257.535 232.422 249.571 227.126 249.571C223.867 249.571 222.763 251.674 222.473 253.777C222.184 255.878 222.725 258.008 223.804 259.834C225.098 262.024 227.372 265.875 229.708 269.841L239.714 264.591Z" fill="#578E7E" stroke="#263238" stroke-miterlimit="10" stroke-linecap="round" stroke-linejoin="round"/>
<path d="M210.344 311.053C210.344 311.053 210.344 322.553 211.344 332.553C212.344 342.553 212.594 353.803 211.594 355.553C210.594 357.303 205.594 366.053 204.594 370.303C203.594 374.553 202.844 392.303 201.344 396.303C199.844 400.303 199.344 403.053 200.344 403.553C201.344 404.053 213.42 404.611 216.011 404.921C218.603 405.231 221.762 404.428 221.836 403.399C221.911 402.371 217.295 400.637 213.536 397.992C209.777 395.347 210.094 392.052 210.094 389.552C210.094 387.052 215.844 371.552 220.594 360.302C225.344 349.052 229.594 321.052 229.594 316.552C229.594 312.052 229.594 309.052 229.594 309.052" fill="#263238"/>
<path d="M210.344 311.053C210.344 311.053 210.344 322.553 211.344 332.553C212.344 342.553 212.594 353.803 211.594 355.553C210.594 357.303 205.594 366.053 204.594 370.303C203.594 374.553 202.844 392.303 201.344 396.303C199.844 400.303 199.344 403.053 200.344 403.553C201.344 404.053 213.42 404.611 216.011 404.921C218.603 405.231 221.762 404.428 221.836 403.399C221.911 402.371 217.295 400.637 213.536 397.992C209.777 395.347 210.094 392.052 210.094 389.552C210.094 387.052 215.844 371.552 220.594 360.302C225.344 349.052 229.594 321.052 229.594 316.552C229.594 312.052 229.594 309.052 229.594 309.052" stroke="#263238" stroke-miterlimit="10" stroke-linecap="round" stroke-linejoin="round"/>
<path d="M213.537 397.994C209.778 395.349 210.095 392.054 210.095 389.554C210.095 389.156 210.242 388.424 210.507 387.435C207.062 387.356 204.598 386.675 202.921 385.915C202.479 390.462 201.98 394.613 201.345 396.304C199.845 400.304 199.345 403.054 200.345 403.554C201.345 404.054 213.421 404.612 216.012 404.922C218.604 405.232 221.763 404.429 221.837 403.4C221.911 402.372 217.296 400.638 213.537 397.994Z" fill="white" stroke="#263238" stroke-miterlimit="10" stroke-linecap="round" stroke-linejoin="round"/>
<path d="M221.837 403.4C221.912 402.372 217.296 400.638 213.537 397.993C211.934 396.865 211.076 395.619 210.614 394.366C210.103 394.391 209.637 394.509 209.344 394.803C208.344 395.803 208.094 398.803 208.094 398.803L201.037 397.162C199.789 400.686 199.419 403.09 200.344 403.553C201.344 404.053 213.42 404.611 216.011 404.921C218.603 405.232 221.762 404.428 221.837 403.4Z" fill="white" stroke="#263238" stroke-miterlimit="10" stroke-linecap="round" stroke-linejoin="round"/>
<path d="M243.528 217.188C243.528 217.188 246.262 221.394 246.262 223.707C246.262 226.02 245.631 227.913 245.631 229.385C245.631 230.857 246.893 232.539 246.893 233.801C246.893 235.063 245 240.53 243.739 242.002C242.478 243.474 241.216 244.946 238.902 244.736C236.589 244.526 230.28 238.428 230.28 238.428C230.28 238.428 227.126 240.741 226.074 236.956C225.023 233.171 225.023 231.278 226.705 230.858C228.387 230.437 229.439 231.699 229.439 231.699C229.439 231.699 237.64 231.278 240.374 226.652C243.108 222.024 243.528 217.188 243.528 217.188Z" fill="white" stroke="#263238" stroke-miterlimit="10" stroke-linecap="round" stroke-linejoin="round"/>
<path d="M243.817 229.502C243.817 230.313 243.546 230.971 243.212 230.971C242.878 230.971 242.607 230.313 242.607 229.502C242.607 228.691 242.878 228.033 243.212 228.033C243.546 228.032 243.817 228.69 243.817 229.502Z" fill="#263238"/>
<path d="M241.57 226.822C241.57 226.822 242.434 224.056 244.509 226.131" stroke="#263238" stroke-miterlimit="10" stroke-linecap="round" stroke-linejoin="round"/>
<path d="M243 240C243 240 240.286 239.625 240 237" stroke="#263238" stroke-miterlimit="10" stroke-linecap="round" stroke-linejoin="round"/>
<path d="M323.793 394.697C323.793 394.697 314.795 399.8 312.33 400.982C309.865 402.164 308.229 403.092 312.716 404.331C317.203 405.57 329.792 404.701 331.892 404.591C333.992 404.481 334.865 405.067 334.744 402.757C334.623 400.447 334.746 394.755 334.746 394.755C334.746 394.755 325.086 395.26 323.793 394.697Z" fill="white" stroke="#263238" stroke-miterlimit="10" stroke-linecap="round" stroke-linejoin="round"/>
<path d="M324.487 257.673C324.487 257.673 317.968 269.238 317.758 272.393C317.548 275.547 317.548 277.23 317.548 277.23C317.548 277.23 312.501 289.216 310.819 295.525C309.137 301.834 312.081 310.876 313.342 313.82C314.604 316.764 316.076 319.498 316.076 319.498C316.076 319.498 318.389 342.839 318.599 349.779C318.809 356.718 321.122 366.181 321.964 372.49C322.806 378.799 324.908 389.523 324.908 389.523C324.908 389.523 322.595 390.995 322.595 392.046C322.595 393.097 322.385 395.2 322.385 395.2C322.385 395.2 323.647 395.2 326.591 396.251C329.535 397.302 335.213 396.461 335.213 396.461C335.213 396.461 336.475 389.101 336.475 384.475C336.475 379.849 338.157 365.76 337.526 360.923C336.895 356.086 336.264 348.096 336.475 347.044C336.685 345.993 338.788 324.544 338.788 324.544C338.788 324.544 343.625 318.235 343.625 309.193C343.625 300.151 343.204 298.258 343.204 298.258C343.204 298.258 345.517 271.132 344.466 261.669C343.415 252.206 338.368 249.893 338.368 249.893L324.487 257.673Z" fill="#263238" stroke="#263238" stroke-miterlimit="10" stroke-linecap="round" stroke-linejoin="round"/>
<path d="M344.464 261.668C343.413 252.205 338.366 249.892 338.366 249.892L324.487 257.672C324.487 257.672 317.968 269.238 317.758 272.392C317.548 275.546 317.548 277.229 317.548 277.229C317.548 277.229 312.501 289.215 310.819 295.523C310.381 297.165 310.261 298.992 310.339 300.849C312.756 302.734 318.101 305.627 327.852 305.196C336.159 304.83 340.913 302.618 343.443 300.829C343.329 298.833 343.203 298.256 343.203 298.256C343.203 298.256 345.515 271.131 344.464 261.668Z" fill="white" stroke="#263238" stroke-miterlimit="10" stroke-linecap="round" stroke-linejoin="round"/>
<path d="M321.753 212.673C321.753 212.673 313.762 216.248 312.921 220.453C312.08 224.659 313.552 230.967 313.552 232.019C313.552 233.07 310.608 236.014 311.659 236.856C312.711 237.697 313.762 237.487 313.762 237.487C313.762 237.487 315.654 242.534 316.916 244.637C318.178 246.74 319.86 246.53 320.491 246.53C321.122 246.53 323.435 246.109 323.435 246.109L326.169 254.1L336.052 246.319C336.052 246.319 334.37 241.693 335.211 239.169C336.052 236.646 340.048 232.44 340.678 226.342C341.309 220.244 335.421 212.674 330.374 211.832C325.328 210.99 321.753 212.673 321.753 212.673Z" fill="white" stroke="#263238" stroke-miterlimit="10" stroke-linecap="round" stroke-linejoin="round"/>
<path d="M330.375 211.831C325.328 210.99 321.753 212.672 321.753 212.672C321.753 212.672 321.044 212.992 320.035 213.542C321.753 212.814 324.736 212.024 325.328 214.985C326.169 219.191 320.702 221.924 321.543 223.817C322.384 225.71 325.538 226.34 326.379 228.654C327.22 230.967 328.272 232.019 329.113 230.967C329.954 229.916 329.534 227.813 331.006 227.392C332.478 226.971 334.581 230.126 334.581 232.649C334.581 235.172 331.847 236.224 331.847 236.224C331.847 236.224 332.898 238.117 335.422 238.327C335.473 238.331 335.523 238.325 335.573 238.327C336.85 235.751 340.113 231.809 340.679 226.341C341.31 220.243 335.422 212.673 330.375 211.831Z" fill="#B2B2B2" stroke="#263238" stroke-miterlimit="10" stroke-linecap="round" stroke-linejoin="round"/>
<path d="M313.763 237.486C313.763 237.486 320.492 235.594 322.385 236.435C324.278 237.276 321.544 239.589 319.231 240.01C316.917 240.43 313.763 240.85 313.763 237.486Z" fill="#B2B2B2" stroke="#263238" stroke-miterlimit="10" stroke-linecap="round" stroke-linejoin="round"/>
<path d="M317.337 230.336C317.337 231.265 317.054 232.018 316.706 232.018C316.358 232.018 316.075 231.265 316.075 230.336C316.075 229.407 316.357 228.654 316.706 228.654C317.055 228.654 317.337 229.407 317.337 230.336Z" fill="#263238"/>
<path d="M315.024 226.972C315.024 226.972 316.706 225.5 318.389 227.182" stroke="#263238" stroke-miterlimit="10" stroke-linecap="round" stroke-linejoin="round"/>
<path d="M323.436 246.107C323.436 246.107 328.693 244.845 330.796 240.429" stroke="#263238" stroke-miterlimit="10" stroke-linecap="round" stroke-linejoin="round"/>
<path d="M322.174 255.15L323.646 259.776L340.048 249.682L338.155 243.794C338.155 243.794 323.646 252.416 322.174 255.15Z" fill="white" stroke="#263238" stroke-miterlimit="10" stroke-linecap="round" stroke-linejoin="round"/>
<path d="M328.693 288.374C328.693 288.374 311.45 289.425 307.665 289.425C303.88 289.425 299.464 288.163 299.464 288.163C299.464 288.163 297.361 285.219 296.52 284.378C295.679 283.537 293.786 283.327 291.894 283.327C290.001 283.327 288.319 282.486 288.319 283.747C288.319 285.009 289.16 285.009 290.001 285.429C290.842 285.849 292.524 286.691 292.524 286.691C292.524 286.691 286.216 286.901 285.374 286.901C284.533 286.901 282.64 285.639 282.851 287.322C283.061 289.004 284.533 289.214 286.005 289.214C287.477 289.214 292.314 291.527 293.786 291.527C295.258 291.527 299.043 291.737 299.043 291.737C299.043 291.737 307.665 293.419 313.342 295.732C319.02 298.045 332.267 298.886 333.739 297.835C335.211 296.784 335.421 288.372 335.421 288.372H328.693V288.374Z" fill="white" stroke="#263238" stroke-miterlimit="10" stroke-linecap="round" stroke-linejoin="round"/>
<path d="M326.169 268.608L324.697 287.954C324.697 287.954 327.01 290.057 331.216 290.057C335.422 290.057 339.627 289.006 339.627 289.006C339.627 289.006 341.099 269.45 340.258 265.454C339.417 261.459 338.576 260.828 336.683 260.828" fill="white"/>
<path d="M326.169 268.608L324.697 287.954C324.697 287.954 327.01 290.057 331.216 290.057C335.422 290.057 339.627 289.006 339.627 289.006C339.627 289.006 341.099 269.45 340.258 265.454C339.417 261.459 338.576 260.828 336.683 260.828" stroke="#263238" stroke-miterlimit="10" stroke-linecap="round" stroke-linejoin="round"/>
<path d="M136.03 394.215C136.03 394.215 125.873 399.494 123.363 400.738C120.853 401.982 119.187 402.959 123.763 404.277C128.339 405.595 141.168 404.701 143.308 404.589C145.448 404.477 146.339 405.098 146.211 402.657C146.083 400.216 145.777 395.333 145.777 395.333C145.777 395.333 137.349 394.813 136.03 394.215Z" fill="white" stroke="#263238" stroke-miterlimit="10" stroke-linecap="round" stroke-linejoin="round"/>
<path d="M180.929 393.096C180.929 393.096 179.651 396.611 178.213 398.529C176.775 400.446 172.621 402.843 172.621 403.802C172.621 404.761 172.621 404.761 172.621 404.761H189.168C189.168 404.761 190.996 403.323 190.996 402.204C190.996 401.085 190.037 394.055 190.037 394.055L180.929 393.096Z" fill="white" stroke="#263238" stroke-miterlimit="10" stroke-linecap="round" stroke-linejoin="round"/>
<path d="M146.736 305.375C146.736 305.375 143.381 315.921 140.345 326.626C137.309 337.332 133.634 349.954 132.995 355.227C132.356 360.5 136.67 390.219 136.67 390.219C136.67 390.219 135.392 391.018 135.552 392.296C135.712 393.574 136.031 394.213 136.031 394.213C136.031 394.213 141.464 395.651 142.902 395.651C144.34 395.651 145.778 395.331 145.778 395.331C145.778 395.331 146.577 364.173 146.577 360.498C146.577 356.823 146.257 355.065 146.257 355.065L160.192 322.34L162.715 322.948C162.715 322.948 165.112 352.348 165.751 355.863C166.39 359.378 179.972 389.577 179.972 389.577C179.972 389.577 179.493 391.974 179.972 393.092C180.451 394.21 180.451 394.69 180.451 394.69C180.451 394.69 182.209 395.169 184.446 395.169C186.683 395.169 190.038 394.051 190.038 394.051C190.038 394.051 189.718 391.814 189.239 389.577C188.76 387.34 187.322 383.505 187.322 383.505L179.652 352.347C179.652 352.347 182.208 313.2 182.049 309.206C181.889 305.211 180.451 301.537 180.451 301.537C180.451 301.537 160.797 310.009 146.736 305.375Z" fill="#263238" stroke="#263238" stroke-miterlimit="10" stroke-linecap="round" stroke-linejoin="round"/>
<path d="M144.682 252.582C144.682 252.582 136.373 252.167 132.218 254.867C128.063 257.568 127.648 266.916 127.025 268.162C126.402 269.408 122.455 285.612 122.039 287.897C121.624 290.182 125.778 294.752 127.44 293.713C129.102 292.674 135.957 275.017 135.957 275.017C135.957 275.017 145.928 293.298 146.759 295.167C147.59 297.037 146.344 307.008 146.344 307.008C146.344 307.008 148.629 311.37 159.639 310.955C170.649 310.54 181.243 304.723 181.243 304.723C181.243 304.723 179.373 293.298 178.958 291.013C178.543 288.728 177.296 268.37 175.011 260.476C172.726 252.582 168.156 249.674 164.624 249.674C161.093 249.674 154.445 249.882 152.16 250.297C149.876 250.712 144.682 252.582 144.682 252.582Z" fill="white" stroke="#263238" stroke-miterlimit="10" stroke-linecap="round" stroke-linejoin="round"/>
<path d="M140.112 253.828C140.112 253.828 148.006 265.253 150.083 266.084C152.16 266.915 155.276 253.828 155.276 253.828L153.614 244.064C153.614 244.064 144.681 245.518 140.942 247.18C137.204 248.842 140.112 253.828 140.112 253.828Z" fill="white" stroke="#263238" stroke-miterlimit="10" stroke-linecap="round" stroke-linejoin="round"/>
<path d="M136.996 252.582C136.996 252.582 142.397 259.437 145.513 259.853C148.629 260.268 150.706 259.853 152.16 256.322C152.986 254.317 153.199 246.558 153.199 246.558L135.749 250.92L136.996 252.582Z" fill="white" stroke="#263238" stroke-miterlimit="10" stroke-linecap="round" stroke-linejoin="round"/>
<path d="M136.581 225.576C136.581 225.576 132.842 228.069 131.18 232.016C129.518 235.963 133.465 244.895 133.465 244.895C133.465 244.895 132.219 252.166 134.296 252.789C136.373 253.412 143.436 253.62 147.799 251.75C152.162 249.88 154.654 246.557 154.862 245.726C155.07 244.895 154.447 238.663 154.447 238.663C154.447 238.663 153.824 231.808 150.5 226.615C149.222 224.62 139.904 222.876 136.581 225.576Z" fill="#263238" stroke="#263238" stroke-miterlimit="10" stroke-linecap="round" stroke-linejoin="round"/>
<path d="M139.697 228.692C139.697 228.692 138.035 229.107 135.335 232.431C132.634 235.755 132.634 240.948 132.634 240.948L132.121 241.303C132.793 243.366 133.465 244.895 133.465 244.895C133.465 244.895 132.219 252.166 134.296 252.789C136.373 253.412 143.436 253.62 147.799 251.75C152.161 249.88 154.654 246.557 154.862 245.726C155.07 244.895 154.447 238.663 154.447 238.663C148.837 229.108 139.697 228.692 139.697 228.692Z" fill="white" stroke="#263238" stroke-miterlimit="10" stroke-linecap="round" stroke-linejoin="round"/>
<path d="M154.861 245.726C155.069 244.895 154.446 238.663 154.446 238.663C154.446 238.663 154.44 238.602 154.43 238.515C144.48 247.829 133.465 244.895 133.465 244.895C133.465 244.895 132.219 252.166 134.296 252.789C136.373 253.412 143.436 253.62 147.799 251.75C152.161 249.881 154.654 246.557 154.861 245.726Z" fill="#263238" stroke="#263238" stroke-miterlimit="10" stroke-linecap="round" stroke-linejoin="round"/>
<path d="M125.281 274.357C123.936 279.608 122.299 286.468 122.039 287.896C121.624 290.181 125.778 294.751 127.44 293.712C128.494 293.053 131.639 285.706 133.797 280.421L125.281 274.357Z" fill="white" stroke="#263238" stroke-miterlimit="10" stroke-linecap="round" stroke-linejoin="round"/>
<path d="M122.247 285.611C122.247 285.611 120.585 293.92 120.793 297.452C121.001 300.983 132.842 318.848 132.842 318.848L133.881 314.486C133.881 314.486 130.142 297.66 129.726 294.544C129.31 291.428 129.31 288.52 129.31 288.52" fill="white"/>
<path d="M122.247 285.611C122.247 285.611 120.585 293.92 120.793 297.452C121.001 300.983 132.842 318.848 132.842 318.848L133.881 314.486C133.881 314.486 130.142 297.66 129.726 294.544C129.31 291.428 129.31 288.52 129.31 288.52" stroke="#263238" stroke-miterlimit="10" stroke-linecap="round" stroke-linejoin="round"/>
<path d="M131.134 325.595C131.134 325.595 130.886 327.003 131.465 327.996C132.045 328.99 135.44 329.983 135.522 329.404C135.605 328.824 135.605 326.92 135.605 326.92L131.134 325.595Z" fill="white" stroke="#263238" stroke-miterlimit="10" stroke-linecap="round" stroke-linejoin="round"/>
<path d="M130.886 324.022C130.886 324.022 130.638 325.43 131.217 326.423C131.797 327.417 135.192 328.41 135.274 327.831C135.357 327.251 135.357 325.347 135.357 325.347L130.886 324.022Z" fill="white" stroke="#263238" stroke-miterlimit="10" stroke-linecap="round" stroke-linejoin="round"/>
<path d="M130.555 321.869C130.555 321.869 130.307 323.277 130.886 324.27C131.466 325.264 134.861 326.257 134.943 325.678C135.026 325.098 135.026 323.194 135.026 323.194L130.555 321.869Z" fill="white" stroke="#263238" stroke-miterlimit="10" stroke-linecap="round" stroke-linejoin="round"/>
<path d="M133.465 313.447C133.465 313.447 130.349 320.302 130.349 321.341C130.349 322.38 134.711 324.457 134.711 324.457L134.919 311.162L133.465 313.447Z" fill="white" stroke="#263238" stroke-miterlimit="10" stroke-linecap="round" stroke-linejoin="round"/>
<path d="M176.802 310.313H133.441V349.235H176.802V310.313Z" fill="#578E7E" stroke="#263238" stroke-miterlimit="10" stroke-linecap="round" stroke-linejoin="round"/>
<path d="M157.613 344.838C164.334 343.243 168.488 336.502 166.893 329.781C165.297 323.061 158.556 318.906 151.835 320.502C145.115 322.097 140.96 328.839 142.556 335.559C144.151 342.279 150.893 346.434 157.613 344.838Z" fill="white"/>
<path d="M158.365 310.313H151.878V317.141H158.365V310.313Z" fill="white" stroke="#263238" stroke-miterlimit="10" stroke-linecap="round" stroke-linejoin="round"/>
<path d="M162.659 315.814L179.582 291.843C179.582 291.843 181.659 290.181 180.87 287.753C180.45 286.46 172.852 256.057 172.852 256.057C172.852 256.057 168.616 248.857 164.137 253.259C160.497 256.836 163.138 265.001 164.256 267.937C164.647 268.964 164.995 270.006 165.317 271.057L169.37 288.425L157.863 314.359C157.863 314.359 153.036 316.901 152.272 317.388C151.508 317.875 149.982 320.031 149.079 321.144C148.177 322.257 146.614 322.502 147.657 323.126C148.7 323.75 149.394 322.985 149.88 322.568C150.366 322.15 152.31 320.481 152.31 320.481L150.018 327.89C149.885 328.319 150.103 328.779 150.52 328.947C150.944 329.118 151.428 328.929 151.624 328.516L153.946 323.619L153.44 329.253C153.401 329.689 153.719 330.076 154.154 330.123C154.528 330.163 154.88 329.938 155 329.582L156.761 324.372L156.68 328.989L156.904 330.173C158.175 330.583 158.215 329.072 158.296 328.286L158.666 324.697L159.889 328.694C160.357 327.912 160.569 327.004 160.495 326.095L160.191 322.343L161.524 317.193L162.659 315.814Z" fill="white" stroke="#263238" stroke-miterlimit="10" stroke-linecap="round" stroke-linejoin="round"/>
<path d="M165.63 272.083L165.316 271.058C164.994 270.007 164.646 268.965 164.255 267.938C163.137 265.002 160.496 256.837 164.136 253.26C168.616 248.858 172.851 256.058 172.851 256.058C172.851 256.058 174.41 262.354 176.05 268.934L165.63 272.083Z" fill="white" stroke="#263238" stroke-miterlimit="10" stroke-linecap="round" stroke-linejoin="round"/>
<path d="M185.499 349.32H123.881V404.631H185.499V349.32Z" fill="#578E7E" stroke="#263238" stroke-miterlimit="10" stroke-linecap="round" stroke-linejoin="round"/>
<path d="M153.774 396.207C163.052 396.207 170.573 388.686 170.573 379.408C170.573 370.13 163.052 362.609 153.774 362.609C144.496 362.609 136.975 370.13 136.975 379.408C136.975 388.686 144.496 396.207 153.774 396.207Z" fill="white"/>
<path d="M158.365 349.32H152.902V358.485H158.365V349.32Z" fill="white" stroke="#263238" stroke-miterlimit="10" stroke-linecap="round" stroke-linejoin="round"/>
<path d="M128.33 326.375H84.969V365.298H128.33V326.375Z" fill="#578E7E" stroke="#263238" stroke-miterlimit="10" stroke-linecap="round" stroke-linejoin="round"/>
<path d="M109.626 360.882C116.334 359.236 120.439 352.465 118.793 345.757C117.148 339.049 110.376 334.945 103.669 336.59C96.9606 338.235 92.8564 345.007 94.5016 351.715C96.1469 358.423 102.918 362.527 109.626 360.882Z" fill="white"/>
<path d="M109.893 326.375H103.406V333.203H109.893V326.375Z" fill="white" stroke="#263238" stroke-miterlimit="10" stroke-linecap="round" stroke-linejoin="round"/>
<path d="M128.33 365.708H84.969V404.63H128.33V365.708Z" fill="#578E7E" stroke="#263238" stroke-miterlimit="10" stroke-linecap="round" stroke-linejoin="round"/>
<path d="M115.126 397.277C120.21 392.602 120.542 384.69 115.867 379.606C111.191 374.522 103.28 374.19 98.1957 378.866C93.1115 383.541 92.78 391.452 97.4553 396.537C102.131 401.621 110.042 401.952 115.126 397.277Z" fill="white"/>
<path d="M109.893 365.708H103.406V372.536H109.893V365.708Z" fill="white" stroke="#263238" stroke-miterlimit="10" stroke-linecap="round" stroke-linejoin="round"/>
<path d="M65.6809 404.989H429.349" stroke="#263238" stroke-miterlimit="10" stroke-linecap="round" stroke-linejoin="round"/>
</svg>
