<svg width="500" height="500" viewBox="0 0 500 500" fill="none" xmlns="http://www.w3.org/2000/svg">
<path d="M166.186 77.918C166.186 77.918 90.4199 116.523 52.6279 176.017C14.8359 235.511 17.8279 311.971 63.7509 368.798C109.674 425.625 197.444 418.137 270.928 454.117C344.412 490.096 425.504 482.694 460.249 406.456C494.994 330.218 442.604 301.74 433.597 213.521C424.59 125.301 345.067 -3.88303 166.186 77.918Z" fill="#578E7E"/>
<path opacity="0.7" d="M166.186 77.918C166.186 77.918 90.4199 116.523 52.6279 176.017C14.8359 235.511 17.8279 311.971 63.7509 368.798C109.674 425.625 197.444 418.137 270.928 454.117C344.412 490.096 425.504 482.694 460.249 406.456C494.994 330.218 442.604 301.74 433.597 213.521C424.59 125.301 345.067 -3.88303 166.186 77.918Z" fill="white"/>
<path d="M368.363 90.824C360.823 86.712 357.395 90.139 354.653 86.712C351.911 83.284 362.193 74.373 341.629 65.461C341.629 65.461 340.259 46.268 312.153 45.582C284.048 44.896 291.589 64.776 284.048 69.574C276.508 74.373 274.451 66.832 266.91 71.63C259.369 76.429 262.797 86.026 256.628 87.397C250.459 88.768 242.233 81.228 234.692 86.026C227.152 90.824 227.152 94.937 223.725 94.937C220.298 94.937 213.442 92.195 209.329 94.937C205.216 97.679 200.418 101.107 200.418 101.107H373.845C373.847 101.107 375.904 94.937 368.363 90.824Z" stroke="#263238" stroke-miterlimit="10" stroke-linecap="round" stroke-linejoin="round"/>
<path d="M265.771 88.009C264.957 88.479 263.955 88.958 262.711 89.455" stroke="#263238" stroke-miterlimit="10" stroke-linecap="round" stroke-linejoin="round"/>
<path d="M302.871 55.987C302.871 55.987 297.433 58.079 296.178 64.354C294.923 70.629 291.995 74.813 288.648 75.231C285.301 75.649 272.751 74.394 270.659 78.996C269.924 80.612 269.757 81.971 269.487 83.198" stroke="#263238" stroke-miterlimit="10" stroke-linecap="round" stroke-linejoin="round"/>
<path d="M199.059 140.102C195.105 137.946 193.308 139.743 191.87 137.946C190.432 136.149 195.824 131.476 185.041 126.803C185.041 126.803 184.322 116.74 169.586 116.38C154.85 116.02 158.803 126.444 154.85 128.96C150.896 131.476 149.818 127.522 145.864 130.038C141.91 132.554 143.707 137.586 140.473 138.305C137.238 139.024 132.925 135.07 128.971 137.586C125.018 140.102 125.018 142.258 123.221 142.258C121.424 142.258 117.829 140.82 115.673 142.258C113.517 143.696 111.001 145.493 111.001 145.493H201.935C201.935 145.493 203.013 142.259 199.059 140.102Z" stroke="#263238" stroke-miterlimit="10" stroke-linecap="round" stroke-linejoin="round"/>
<path d="M145.266 138.626C144.839 138.872 144.314 139.124 143.662 139.384" stroke="#263238" stroke-miterlimit="10" stroke-linecap="round" stroke-linejoin="round"/>
<path d="M164.719 121.836C164.719 121.836 161.867 122.933 161.209 126.223C160.551 129.513 159.016 131.707 157.261 131.926C155.506 132.145 148.926 131.487 147.829 133.9C147.444 134.748 147.356 135.46 147.215 136.103" stroke="#263238" stroke-miterlimit="10" stroke-linecap="round" stroke-linejoin="round"/>
<path d="M316.653 215.324C316.653 215.324 363.779 219.986 387.665 249.201C387.665 249.201 412.9 215.358 458.225 216.051C471.377 200.198 479.289 179.84 479.297 157.632C479.315 107.042 438.318 66.017 387.728 66C337.139 65.982 296.113 106.979 296.096 157.568C296.088 179.498 303.792 199.628 316.639 215.402L316.653 215.324Z" fill="#578E7E"/>
<path opacity="0.5" d="M316.653 215.324C316.653 215.324 363.779 219.986 387.665 249.201C387.665 249.201 412.9 215.358 458.225 216.051C471.377 200.198 479.289 179.84 479.297 157.632C479.315 107.042 438.318 66.017 387.728 66C337.139 65.982 296.113 106.979 296.096 157.568C296.088 179.498 303.792 199.628 316.639 215.402L316.653 215.324Z" fill="white"/>
<path d="M386.105 72.459L384.515 432.756H392.469L386.105 72.459Z" fill="#263238"/>
<path d="M388.492 240.296C388.492 240.296 404.4 211.66 433.036 202.91C433.036 202.91 402.81 210.069 387.696 234.727L388.492 240.296Z" fill="#263238"/>
<path d="M388.492 159.162C388.492 159.162 404.4 130.526 433.036 121.776C433.036 121.776 402.81 128.935 387.696 153.594L388.492 159.162Z" fill="#263238"/>
<path d="M388.492 199.729C388.492 199.729 404.4 171.093 433.036 162.343C433.036 162.343 402.81 169.502 387.696 194.161L388.492 199.729Z" fill="#263238"/>
<path d="M386.133 179.843C386.133 179.843 370.782 151.207 343.151 142.457C343.151 142.457 372.317 149.616 386.9 174.275L386.133 179.843Z" fill="#263238"/>
<path d="M386.133 219.615C386.133 219.615 370.782 190.979 343.151 182.229C343.151 182.229 372.317 189.388 386.9 214.046L386.133 219.615Z" fill="#263238"/>
<path d="M169.16 252.674C169.16 252.674 208.191 256.536 227.974 280.731C227.974 280.731 248.874 252.701 286.414 253.275C297.307 240.145 303.86 223.284 303.866 204.891C303.88 162.992 269.926 129.014 228.027 128.999C186.128 128.984 152.149 162.939 152.135 204.838C152.129 223.001 158.509 239.673 169.149 252.738L169.16 252.674Z" fill="#578E7E"/>
<path opacity="0.3" d="M169.16 252.674C169.16 252.674 208.191 256.536 227.974 280.731C227.974 280.731 248.874 252.701 286.414 253.275C297.307 240.145 303.86 223.284 303.866 204.891C303.88 162.992 269.926 129.014 228.027 128.999C186.128 128.984 152.149 162.939 152.135 204.838C152.129 223.001 158.509 239.673 169.149 252.738L169.16 252.674Z" fill="white"/>
<path d="M226.682 134.35L225.365 432.756H231.953L226.682 134.35Z" fill="#263238"/>
<path d="M228.659 273.356C228.659 273.356 241.835 249.639 265.552 242.392C265.552 242.392 240.518 248.321 228.001 268.744L228.659 273.356Z" fill="#263238"/>
<path d="M228.659 206.159C228.659 206.159 241.835 182.442 265.552 175.195C265.552 175.195 240.518 181.124 228.001 201.547L228.659 206.159Z" fill="#263238"/>
<path d="M228.659 239.758C228.659 239.758 241.835 216.041 265.552 208.794C265.552 208.794 240.518 214.724 228.001 235.146L228.659 239.758Z" fill="#263238"/>
<path d="M226.706 223.288C226.706 223.288 213.992 199.571 191.108 192.324C191.108 192.324 215.264 198.253 227.342 218.676L226.706 223.288Z" fill="#263238"/>
<path d="M226.706 256.227C226.706 256.227 213.992 232.51 191.108 225.263C191.108 225.263 215.264 231.192 227.342 251.615L226.706 256.227Z" fill="#263238"/>
<path d="M261.13 432.422C260.988 429.287 261.4 423.353 264.77 414.422C270.054 400.422 279.301 428.422 279.301 428.422C279.301 428.422 279.301 425.089 289.208 414.422C299.115 403.755 307.701 422.422 307.701 422.422C307.701 422.422 303.078 377.755 314.306 381.089C325.534 384.422 324.213 422.422 324.213 422.422C324.213 422.422 332.139 394.422 342.706 394.422C353.274 394.422 355.916 414.422 355.916 414.422C355.916 414.422 358.558 379.089 369.126 378.422C379.694 377.755 391.582 407.755 391.582 407.755C391.582 407.755 388.28 367.755 398.847 365.755C409.415 363.755 413.377 380.422 413.377 380.422C413.377 380.422 422.624 325.089 440.457 331.755C458.29 338.422 443.099 399.755 443.099 399.755C443.099 399.755 460.932 357.088 475.463 367.088C488.672 376.179 471.863 423.829 468.697 432.421H261.13V432.422Z" fill="#578E7E"/>
<path d="M474.333 432.333C474.333 432.333 482.067 408.422 478.105 404.422C474.143 400.422 456.97 417.755 456.97 417.755C456.97 417.755 469.519 375.088 449.705 369.755C429.891 364.422 426.588 411.088 426.588 411.088C426.588 411.088 412.057 389.755 408.755 397.755C405.453 405.755 405.453 413.088 405.453 413.088C405.453 413.088 398.188 355.088 381.676 357.755C365.164 360.422 380.355 417.755 380.355 417.755C380.355 417.755 371.108 397.755 360.541 399.755C349.974 401.755 346.01 414.422 346.01 414.422C346.01 414.422 341.387 403.089 338.084 403.089C334.781 403.089 330.819 423.089 330.819 423.089C330.819 423.089 326.856 392.422 319.591 393.756C312.326 395.089 297.135 421.089 297.135 421.089C297.135 421.089 299.777 406.422 291.851 405.756C283.925 405.089 279.302 428.423 279.302 428.423C279.302 428.423 268.734 406.423 262.129 410.423C255.524 414.423 258.667 433 258.667 433" stroke="#263238" stroke-miterlimit="10" stroke-linecap="round" stroke-linejoin="round"/>
<path d="M438.667 432L444.421 403.756" stroke="#263238" stroke-miterlimit="10" stroke-linecap="round" stroke-linejoin="round"/>
<path d="M397.526 432.422L394.224 413.756" stroke="#263238" stroke-miterlimit="10" stroke-linecap="round" stroke-linejoin="round"/>
<path d="M314 432.333L318.269 417.089" stroke="#263238" stroke-miterlimit="10" stroke-linecap="round" stroke-linejoin="round"/>
<path d="M365.163 433.089L357.897 419.756" stroke="#263238" stroke-miterlimit="10" stroke-linecap="round" stroke-linejoin="round"/>
<path d="M439.797 421.089L434.513 410.422" stroke="#263238" stroke-miterlimit="10" stroke-linecap="round" stroke-linejoin="round"/>
<path d="M397.526 426.422L402.15 417.089" stroke="#263238" stroke-miterlimit="10" stroke-linecap="round" stroke-linejoin="round"/>
<path d="M361.86 425.756L365.163 419.756" stroke="#263238" stroke-miterlimit="10" stroke-linecap="round" stroke-linejoin="round"/>
<path d="M315.333 426.667L312.985 418.422" stroke="#263238" stroke-miterlimit="10" stroke-linecap="round" stroke-linejoin="round"/>
<path d="M231.031 432.572C231.135 430.138 230.833 425.533 228.361 418.6C224.486 407.733 217.704 429.467 217.704 429.467C217.704 429.467 217.704 426.88 210.438 418.6C203.172 410.32 196.875 424.81 196.875 424.81C196.875 424.81 200.266 390.139 192.031 392.727C183.796 395.314 184.765 424.81 184.765 424.81C184.765 424.81 178.952 403.076 171.202 403.076C163.452 403.076 161.514 418.6 161.514 418.6C161.514 418.6 159.576 391.174 151.826 390.656C144.076 390.138 135.356 413.425 135.356 413.425C135.356 413.425 137.778 382.377 130.028 380.824C122.278 379.272 119.371 392.208 119.371 392.208C119.371 392.208 112.589 349.258 99.511 354.432C86.432 359.607 97.573 407.215 97.573 407.215C97.573 407.215 84.494 374.097 73.837 381.859C64.149 388.915 76.477 425.902 78.8 432.572H231.031Z" fill="#578E7E"/>
<path d="M74.6659 432.502C74.6659 432.502 68.9929 413.942 71.8999 410.837C74.8059 407.732 87.4009 421.187 87.4009 421.187C87.4009 421.187 78.1969 388.069 92.7289 383.929C107.261 379.789 109.683 416.012 109.683 416.012C109.683 416.012 120.34 399.453 122.762 405.663C125.184 411.873 125.184 417.565 125.184 417.565C125.184 417.565 130.512 372.545 142.622 374.614C154.732 376.684 143.591 421.187 143.591 421.187C143.591 421.187 150.373 405.663 158.123 407.215C165.874 408.767 168.78 418.599 168.78 418.599C168.78 418.599 172.171 409.802 174.593 409.802C177.015 409.802 179.921 425.326 179.921 425.326C179.921 425.326 182.827 401.522 188.156 402.557C193.484 403.592 204.626 423.774 204.626 423.774C204.626 423.774 202.688 412.39 208.501 411.872C214.314 411.355 217.705 429.466 217.705 429.466C217.705 429.466 225.455 412.389 230.299 415.494C235.143 418.599 232.838 433.019 232.838 433.019" stroke="#263238" stroke-miterlimit="10" stroke-linecap="round" stroke-linejoin="round"/>
<path d="M100.824 432.244L96.604 410.32" stroke="#263238" stroke-miterlimit="10" stroke-linecap="round" stroke-linejoin="round"/>
<path d="M130.997 432.572L133.419 418.082" stroke="#263238" stroke-miterlimit="10" stroke-linecap="round" stroke-linejoin="round"/>
<path d="M192.256 432.502L189.125 420.67" stroke="#263238" stroke-miterlimit="10" stroke-linecap="round" stroke-linejoin="round"/>
<path d="M154.732 433.089L160.061 422.74" stroke="#263238" stroke-miterlimit="10" stroke-linecap="round" stroke-linejoin="round"/>
<path d="M99.9951 423.775L103.87 415.495" stroke="#263238" stroke-miterlimit="10" stroke-linecap="round" stroke-linejoin="round"/>
<path d="M130.997 427.914L127.606 420.67" stroke="#263238" stroke-miterlimit="10" stroke-linecap="round" stroke-linejoin="round"/>
<path d="M157.154 427.397L154.732 422.74" stroke="#263238" stroke-miterlimit="10" stroke-linecap="round" stroke-linejoin="round"/>
<path d="M191.278 428.104L193 421.704" stroke="#263238" stroke-miterlimit="10" stroke-linecap="round" stroke-linejoin="round"/>
<path d="M17 432.756H494" stroke="#263238" stroke-miterlimit="10" stroke-linecap="round" stroke-linejoin="round"/>
<path d="M381.282 349.584L376.4 356.907L336.297 374.343C336.297 374.343 330.717 375.389 330.717 377.133C330.717 378.877 329.671 383.759 330.717 384.456C331.763 385.154 338.738 382.712 338.738 382.712C338.738 382.712 336.646 385.153 338.738 385.85C340.83 386.548 342.923 383.409 342.923 383.409C342.923 383.409 347.805 380.271 348.851 379.224C349.897 378.178 351.292 375.039 351.292 375.039L388.257 365.623L395.929 354.115C395.928 354.118 380.236 352.374 381.282 349.584Z" fill="#B5B5B5" stroke="#263238" stroke-miterlimit="10" stroke-linecap="round" stroke-linejoin="round"/>
<path d="M384.073 333.139L379.528 348.038L391.397 355.109L396.195 343.492L384.073 333.139Z" fill="white" stroke="#263238" stroke-miterlimit="10" stroke-linecap="round" stroke-linejoin="round"/>
<path d="M380.033 343.24L394.427 351.826L391.902 356.372L378.265 349.301C378.265 349.301 378.265 346.27 380.033 343.24Z" fill="white" stroke="#263238" stroke-miterlimit="10" stroke-linecap="round" stroke-linejoin="round"/>
<path d="M351.497 422.029C351.497 422.029 341.396 427.08 338.618 429.352C335.84 431.625 335.335 431.372 336.093 433.14H368.417L367.659 421.524L351.497 422.029Z" fill="white" stroke="#263238" stroke-miterlimit="10" stroke-linecap="round" stroke-linejoin="round"/>
<path d="M368.301 431.373H336.09C335.65 431.843 335.696 432.216 336.093 433.141H368.417L368.301 431.373Z" fill="white" stroke="#263238" stroke-miterlimit="10" stroke-linecap="round" stroke-linejoin="round"/>
<path d="M394.932 361.927C394.932 361.927 382.558 356.876 372.457 355.866C362.356 354.856 341.396 355.361 340.386 359.906C339.376 364.452 355.285 413.947 355.285 413.947C355.285 413.947 352.507 415.715 352.255 416.977C352.002 418.24 351.497 422.028 351.497 422.028L367.659 424.553C367.659 424.553 368.164 419.502 368.164 414.704C368.164 409.906 362.608 380.36 362.608 380.36L395.184 390.714L383.063 416.472C383.063 416.472 379.275 424.048 383.568 427.836C387.861 431.624 394.932 430.866 394.932 430.866L452.509 431.623L451.499 422.279C451.499 422.279 443.165 421.016 441.65 421.016C440.135 421.016 411.094 413.693 411.094 413.693C411.094 413.693 434.327 389.45 436.852 385.41C439.377 381.37 441.145 376.066 439.63 370.006C438.115 363.945 437.105 362.683 437.105 362.683C437.105 362.683 419.428 371.016 410.337 368.996C401.245 366.978 394.932 361.927 394.932 361.927Z" fill="#263238" stroke="#263238" stroke-miterlimit="10" stroke-linecap="round" stroke-linejoin="round"/>
<path d="M353.77 284.4C353.77 284.4 355.538 290.208 355.538 290.966C355.538 291.724 354.275 295.512 355.285 296.774C356.295 298.037 359.325 298.289 359.325 298.289C359.325 298.289 363.871 303.592 365.891 305.612C367.911 307.632 370.184 308.39 372.709 307.127C375.234 305.864 377.507 302.581 377.507 302.581L382.305 307.379L393.416 294.5L389.376 289.449C389.376 289.449 390.386 283.641 386.598 276.065C382.81 268.489 369.679 266.469 361.093 267.984C352.507 269.499 350.487 274.55 350.487 275.56C350.487 276.57 353.77 284.4 353.77 284.4Z" fill="white" stroke="#263238" stroke-miterlimit="10" stroke-linecap="round" stroke-linejoin="round"/>
<path d="M358.315 261.42C358.315 261.42 353.012 257.38 349.476 259.147C345.941 260.915 347.456 262.43 346.951 265.46C346.446 268.49 337.607 268.743 337.607 273.793C337.607 278.843 343.92 280.611 345.183 280.864C346.446 281.117 345.436 286.672 349.223 286.672C353.011 286.672 353.769 284.399 353.769 284.399C353.769 284.399 350.991 276.318 354.022 275.055C357.052 273.792 363.871 271.267 362.861 276.065C361.851 280.863 365.386 282.378 367.407 281.873C369.427 281.368 371.953 281.62 372.458 282.631C372.963 283.641 375.488 285.409 375.488 282.884C375.488 280.359 376.751 278.086 379.023 278.086C381.295 278.086 383.063 281.874 382.811 284.904C382.558 287.934 380.791 289.955 380.791 289.955L389.377 289.45C389.377 289.45 391.65 278.086 389.63 270.005C387.61 261.924 378.014 257.379 372.206 256.621C366.396 255.865 359.073 259.147 358.315 261.42Z" fill="#263238" stroke="#263238" stroke-miterlimit="10" stroke-linecap="round" stroke-linejoin="round"/>
<path d="M360.491 288.91C361.12 289.866 361.275 290.875 360.837 291.163C360.399 291.451 359.535 290.909 358.905 289.953C358.276 288.997 358.121 287.988 358.559 287.7C358.997 287.413 359.862 287.954 360.491 288.91Z" fill="#263238"/>
<path d="M363.765 300.251C363.765 300.251 367.822 299.61 368.249 295.126" stroke="#263238" stroke-miterlimit="10" stroke-linecap="round" stroke-linejoin="round"/>
<path d="M356.078 286.798C356.078 286.798 356.505 284.449 359.281 285.517" stroke="#263238" stroke-miterlimit="10" stroke-linecap="round" stroke-linejoin="round"/>
<path d="M382.811 311.673C382.811 311.673 380.791 328.34 383.064 333.391C385.337 338.442 393.418 358.644 393.418 358.644C393.418 358.644 391.65 371.018 396.701 374.301C401.752 377.584 420.944 378.089 428.267 373.543C435.59 368.997 438.621 365.462 438.621 362.179C438.621 358.896 433.823 344.502 426.247 330.108C418.671 315.714 409.075 307.128 403.772 302.835C398.469 298.542 396.449 296.522 395.439 296.522C394.429 296.522 382.306 306.875 382.811 311.673Z" fill="white" stroke="#263238" stroke-miterlimit="10" stroke-linecap="round" stroke-linejoin="round"/>
<path d="M393.417 293.239L379.78 308.643L382.558 316.977L397.963 297.027L393.417 293.239Z" fill="white" stroke="#263238" stroke-miterlimit="10" stroke-linecap="round" stroke-linejoin="round"/>
<path d="M393.67 349.553C393.67 349.553 365.892 365.462 362.356 366.725C358.821 367.988 347.457 367.988 344.174 367.735C340.891 367.482 340.891 370.513 340.891 370.513L340.386 380.109C340.386 380.109 343.164 380.867 344.426 380.109C345.689 379.351 346.951 376.574 346.951 376.574C346.951 376.574 351.497 377.079 353.012 376.069C354.527 375.059 355.79 373.796 355.79 373.796C355.79 373.796 364.629 373.038 369.679 371.776C374.729 370.514 397.962 362.937 401.498 362.18C405.034 361.423 406.296 359.402 406.549 358.14C406.801 356.876 393.67 349.553 393.67 349.553Z" fill="white" stroke="#263238" stroke-miterlimit="10" stroke-linecap="round" stroke-linejoin="round"/>
<path d="M362.004 366.829C358.14 367.983 347.361 367.98 344.174 367.735C340.891 367.482 340.891 370.513 340.891 370.513L340.386 380.109C340.386 380.109 343.164 380.867 344.426 380.109C345.689 379.351 346.951 376.574 346.951 376.574C346.951 376.574 351.497 377.079 353.012 376.069C354.527 375.059 355.79 373.796 355.79 373.796C355.79 373.796 360.034 373.432 364.321 372.788L362.004 366.829Z" fill="#578E7E" stroke="#263238" stroke-miterlimit="10" stroke-linecap="round" stroke-linejoin="round"/>
<path d="M395.69 311.926C395.69 311.926 391.397 316.724 391.902 320.259C392.407 323.795 393.67 349.553 393.67 349.553L408.064 355.361L412.104 334.906C412.104 334.906 415.387 329.603 414.882 324.552" fill="white"/>
<path d="M395.69 311.926C395.69 311.926 391.397 316.724 391.902 320.259C392.407 323.795 393.67 349.553 393.67 349.553L408.064 355.361L412.104 334.906C412.104 334.906 415.387 329.603 414.882 324.552" stroke="#263238" stroke-miterlimit="10" stroke-linecap="round" stroke-linejoin="round"/>
<path d="M392.407 350.816L407.054 359.655C407.054 359.655 409.074 359.655 409.327 356.372C409.58 353.089 411.095 352.584 409.832 350.816C408.569 349.048 395.185 343.493 393.923 343.493C392.659 343.492 391.397 346.523 392.407 350.816Z" fill="white" stroke="#263238" stroke-miterlimit="10" stroke-linecap="round" stroke-linejoin="round"/>
<path d="M451.499 422.281C451.499 422.281 459.075 415.715 460.338 415.968C461.601 416.221 471.702 425.817 471.702 425.817C471.702 425.817 481.046 430.868 481.046 431.625C481.046 432.383 479.531 432.635 479.531 432.635L452.51 431.625L451.499 422.281Z" fill="white" stroke="#263238" stroke-miterlimit="10" stroke-linecap="round" stroke-linejoin="round"/>
<path d="M481.045 431.625C481.045 430.867 471.701 425.817 471.701 425.817C471.701 425.817 461.6 416.221 460.337 415.968C459.887 415.878 458.632 416.659 457.207 417.695L469.428 426.322L478.325 432.59L479.529 432.635C479.529 432.635 481.045 432.383 481.045 431.625Z" fill="white" stroke="#263238" stroke-miterlimit="10" stroke-linecap="round" stroke-linejoin="round"/>
<path d="M395.185 390.715L392.659 380.109" stroke="#999999" stroke-miterlimit="10" stroke-linecap="round" stroke-linejoin="round"/>
<path d="M307.325 348.677C304.358 346.981 299.907 344.65 299.907 344.65C299.907 344.65 293.972 329.601 289.309 322.607C284.646 315.612 281.891 314.765 276.804 314.341C271.717 313.917 256.456 317.944 255.82 319.004C255.82 319.004 241.619 325.575 238.016 330.238C234.413 334.901 235.685 371.145 235.685 371.145C235.685 371.145 220.424 381.531 216.397 392.976C213.839 400.246 216.821 412.264 230.598 415.867C235.619 417.18 240.356 417.138 244.67 416.179C247.778 418.875 251.781 421.476 256.457 423.709C270.658 430.492 279.984 431.763 288.674 432.187C297.364 432.611 306.266 429.856 307.962 428.16C309.658 426.464 313.049 419.894 304.359 410.356C296.867 402.133 274.269 392.972 268.174 390.6C269.174 384.789 269.174 379.835 269.174 379.835C269.174 379.835 282.315 364.786 283.163 361.395C284.011 358.004 286.13 344.015 286.13 344.015C286.13 344.015 293.337 357.156 295.456 359.064C297.576 360.972 309.869 359.488 311.141 359.488C312.413 359.488 313.049 353.977 313.049 353.977C313.049 353.977 310.292 350.372 307.325 348.677Z" fill="white" stroke="#263238" stroke-miterlimit="10" stroke-linecap="round" stroke-linejoin="round"/>
<path d="M304.357 410.356C296.865 402.133 274.267 392.972 268.172 390.6C268.363 389.487 268.518 388.407 268.643 387.386C263.91 388.416 257.96 388.776 251.368 387.041C235.259 382.802 231.868 374.112 231.868 374.112L231.746 374.126C226.939 378.019 219.112 385.254 216.395 392.976C213.837 400.246 216.819 412.264 230.596 415.867C235.617 417.18 240.354 417.138 244.668 416.179C247.776 418.875 251.779 421.476 256.455 423.709C270.656 430.492 279.982 431.763 288.672 432.187C297.362 432.611 306.264 429.856 307.96 428.16C309.656 426.464 313.047 419.894 304.357 410.356Z" fill="#696969" stroke="#263238" stroke-miterlimit="10" stroke-linecap="round" stroke-linejoin="round"/>
<path d="M224.874 394.459C224.874 394.459 232.5 385.127 242.466 388.948C277.297 402.301 286.129 417.138 288.46 423.073C290.791 429.008 289.944 432.187 288.036 433.459C286.128 434.731 266.205 430.068 256.667 426.676C247.129 423.285 234.412 424.98 223.602 415.866C212.792 406.752 214.488 397.85 217.879 390.22" fill="#696969"/>
<path d="M224.874 394.459C224.874 394.459 232.5 385.127 242.466 388.948C277.297 402.301 286.129 417.138 288.46 423.073C290.791 429.008 289.944 432.187 288.036 433.459C286.128 434.731 266.205 430.068 256.667 426.676C247.129 423.285 234.412 424.98 223.602 415.866C212.792 406.752 214.488 397.85 217.879 390.22" stroke="#263238" stroke-miterlimit="10" stroke-linecap="round" stroke-linejoin="round"/>
<path d="M313.047 353.976C313.047 353.976 310.292 350.373 307.324 348.677C304.357 346.981 299.906 344.65 299.906 344.65C299.906 344.65 298.201 340.328 295.902 335.241C293.331 337.385 289.12 341.491 287.503 346.479C289.7 350.379 293.917 357.679 295.455 359.063C297.575 360.971 309.868 359.487 311.14 359.487C312.412 359.487 313.047 353.976 313.047 353.976Z" fill="white" stroke="#263238" stroke-miterlimit="10" stroke-linecap="round" stroke-linejoin="round"/>
<path d="M286.129 344.014L285.917 332.568" stroke="#263238" stroke-miterlimit="10" stroke-linecap="round" stroke-linejoin="round"/>
<path d="M319.931 372.786C319.931 372.786 315.133 374.554 313.113 376.069C311.093 377.584 310.84 378.847 310.84 381.12C310.84 383.393 306.294 386.423 308.567 386.423C310.84 386.423 312.608 385.665 314.628 381.877C316.648 378.089 319.174 376.979 319.174 376.979C319.174 376.979 319.427 380.109 320.184 382.382C320.942 384.655 320.942 385.16 320.437 387.18C319.932 389.2 322.457 388.695 323.215 383.14C323.973 377.584 321.7 372.786 321.7 372.786H319.931Z" fill="white" stroke="#263238" stroke-miterlimit="10" stroke-linecap="round" stroke-linejoin="round"/>
<path d="M319.426 366.71C319.426 366.71 320.184 370.972 319.931 371.941C319.679 372.91 316.143 375.622 314.88 377.947C313.617 380.272 313.87 382.597 314.375 384.147C314.88 385.697 316.395 390.734 317.153 389.378C317.911 388.022 318.163 386.472 318.163 383.565C318.163 380.659 317.658 378.14 319.173 376.978C320.688 375.815 320.688 375.815 320.688 375.815C320.688 375.815 321.446 377.365 322.456 381.046C323.466 384.727 321.698 387.827 322.204 388.408C322.709 388.989 324.729 388.602 324.982 387.052C325.235 385.502 326.245 383.758 326.245 380.658C326.245 377.558 324.615 375.344 324.615 375.344C324.615 375.344 323.972 373.683 323.467 371.358C322.961 369.035 321.446 364.579 319.426 366.71Z" fill="white" stroke="#263238" stroke-miterlimit="10" stroke-linecap="round" stroke-linejoin="round"/>
<path d="M327.248 359.91C327.248 359.91 329.58 363.937 330.215 365.633C330.851 367.329 331.275 369.236 330.215 369.66C329.155 370.084 328.307 367.117 327.672 365.845C327.036 364.573 324.917 359.063 327.248 359.91Z" fill="#578E7E" stroke="#263238" stroke-miterlimit="10" stroke-linecap="round" stroke-linejoin="round"/>
<path d="M327.248 359.91C325.976 357.155 318.77 352.915 316.862 351.856C315.525 351.113 311.282 350.996 308.857 350.991C308.273 350.905 307.68 350.904 307.112 351.008C307.112 351.008 303.721 353.551 303.933 356.307C304.145 359.062 306.9 359.486 306.9 359.486H307.872C307.808 360.611 307.877 361.846 308.384 362.453C309.444 363.725 311.351 368.388 311.351 371.143C311.351 373.898 314.53 372.839 314.954 370.719C315.378 368.599 314.318 364.784 314.318 363.936C314.318 363.088 316.014 360.757 316.014 360.757C316.014 360.757 320.677 365.632 321.313 366.692C321.949 367.752 322.161 373.263 323.856 373.687C325.552 374.111 325.552 370.72 325.552 370.72C325.552 370.72 328.095 370.932 328.307 368.177C328.52 365.421 328.52 362.666 327.248 359.91Z" fill="#578E7E" stroke="#263238" stroke-miterlimit="10" stroke-linecap="round" stroke-linejoin="round"/>
<path d="M322.585 360.546C322.585 360.546 325.764 362.454 325.764 364.361C325.764 366.269 325.552 370.72 325.552 370.72" stroke="#263238" stroke-miterlimit="10" stroke-linecap="round" stroke-linejoin="round"/>
<path d="M289.097 427.948C289.097 430.915 290.793 431.339 284.222 435.366C277.652 439.393 267.69 436.638 257.94 434.518C248.19 432.398 236.533 430.703 232.081 430.703C227.63 430.703 217.032 432.399 213.005 432.399C208.978 432.399 202.407 431.975 203.255 429.856C204.103 427.736 214.912 424.345 215.76 423.497C216.608 422.649 216.396 420.954 218.515 417.774C220.635 414.595 223.602 415.866 223.602 415.866C223.602 415.866 228.901 421.165 236.955 422.437C245.009 423.709 259.634 424.345 265.357 424.345C271.08 424.345 278.286 426.888 278.922 426.888" fill="#696969"/>
<path d="M289.097 427.948C289.097 430.915 290.793 431.339 284.222 435.366C277.652 439.393 267.69 436.638 257.94 434.518C248.19 432.398 236.533 430.703 232.081 430.703C227.63 430.703 217.032 432.399 213.005 432.399C208.978 432.399 202.407 431.975 203.255 429.856C204.103 427.736 214.912 424.345 215.76 423.497C216.608 422.649 216.396 420.954 218.515 417.774C220.635 414.595 223.602 415.866 223.602 415.866C223.602 415.866 228.901 421.165 236.955 422.437C245.009 423.709 259.634 424.345 265.357 424.345C271.08 424.345 278.286 426.888 278.922 426.888" stroke="#263238" stroke-miterlimit="10" stroke-linecap="round" stroke-linejoin="round"/>
<path d="M236.956 422.437C228.902 421.165 223.603 415.866 223.603 415.866C223.603 415.866 220.636 414.594 218.516 417.774C216.396 420.953 216.608 422.649 215.761 423.497C214.913 424.345 204.103 427.736 203.256 429.856C202.408 431.976 208.979 432.399 213.006 432.399C217.033 432.399 227.631 430.703 232.082 430.703C233.635 430.703 236.075 430.913 238.995 431.272C238.953 431.083 238.91 430.894 238.865 430.703C238.242 428.055 240.02 424.612 241.008 422.97C239.542 422.807 238.173 422.629 236.956 422.437Z" fill="white" stroke="#263238" stroke-miterlimit="10" stroke-linecap="round" stroke-linejoin="round"/>
<path d="M223.603 415.866C223.603 415.866 220.636 414.594 218.516 417.774C216.396 420.953 216.608 422.649 215.761 423.497C214.913 424.345 204.103 427.736 203.256 429.856C202.956 430.606 203.595 431.14 204.711 431.522C207.2 428.854 215.115 426.63 217.324 425.024C219.655 423.328 217.881 422.862 220.213 419.682C221.512 417.91 223.468 417.259 224.947 417.028C224.079 416.339 223.603 415.866 223.603 415.866Z" stroke="#263238" stroke-miterlimit="10" stroke-linecap="round" stroke-linejoin="round"/>
<path d="M243.102 325.998C243.102 325.998 234.412 329.389 232.716 336.384C231.02 343.378 234.2 386.829 234.2 387.889C234.2 388.949 239.923 390.009 248.825 390.856C257.727 391.704 274.26 391.916 274.26 391.916C274.26 391.916 281.466 395.095 282.95 395.095C284.434 395.095 287.613 393.187 287.613 393.187C287.613 393.187 287.189 395.095 288.885 394.671C290.581 394.247 296.303 389.584 296.303 388.736C296.303 387.888 292.488 383.861 290.156 383.437C287.824 383.013 277.439 387.04 276.379 387.04C275.319 387.04 256.879 383.013 253.488 381.529C250.097 380.045 245.222 378.774 245.222 378.774L246.706 342.106" fill="white"/>
<path d="M243.102 325.998C243.102 325.998 234.412 329.389 232.716 336.384C231.02 343.378 234.2 386.829 234.2 387.889C234.2 388.949 239.923 390.009 248.825 390.856C257.727 391.704 274.26 391.916 274.26 391.916C274.26 391.916 281.466 395.095 282.95 395.095C284.434 395.095 287.613 393.187 287.613 393.187C287.613 393.187 287.189 395.095 288.885 394.671C290.581 394.247 296.303 389.584 296.303 388.736C296.303 387.888 292.488 383.861 290.156 383.437C287.824 383.013 277.439 387.04 276.379 387.04C275.319 387.04 256.879 383.013 253.488 381.529C250.097 380.045 245.222 378.774 245.222 378.774L246.706 342.106" stroke="#263238" stroke-miterlimit="10" stroke-linecap="round" stroke-linejoin="round"/>
<path d="M290.156 383.437C287.824 383.013 277.439 387.04 276.379 387.04C275.319 387.04 256.879 383.013 253.488 381.529C250.097 380.045 245.222 378.774 245.222 378.774L246.035 358.683L232.544 358.16C233.106 372.045 234.201 387.266 234.201 387.888C234.201 388.948 239.924 390.008 248.826 390.855C257.728 391.703 274.261 391.915 274.261 391.915C274.261 391.915 281.467 395.094 282.951 395.094C284.435 395.094 287.614 393.186 287.614 393.186C287.614 393.186 287.19 395.094 288.886 394.67C290.582 394.246 296.304 389.583 296.304 388.735C296.303 387.888 292.488 383.861 290.156 383.437Z" fill="white" stroke="#263238" stroke-miterlimit="10" stroke-linecap="round" stroke-linejoin="round"/>
<path d="M296.303 388.736C296.303 387.888 292.488 383.861 290.156 383.437C287.824 383.013 277.439 387.04 276.379 387.04C276.049 387.04 274.029 386.649 271.304 386.065C270.3 387.037 269.351 388.794 269.673 391.829C272.432 391.891 274.26 391.915 274.26 391.915C274.26 391.915 281.466 395.094 282.95 395.094C284.434 395.094 287.613 393.186 287.613 393.186C287.613 393.186 287.189 395.094 288.885 394.67C290.58 394.247 296.303 389.584 296.303 388.736Z" fill="#578E7E" stroke="#263238" stroke-miterlimit="10" stroke-linecap="round" stroke-linejoin="round"/>
<path d="M250.097 284.455C250.097 284.455 242.043 278.096 238.863 280.216C235.684 282.336 222.33 299.292 221.059 303.955C219.788 308.618 226.782 309.678 224.238 313.493C221.695 317.308 216.82 318.792 218.727 323.455C220.635 328.118 228.265 328.542 229.961 329.602C231.657 330.662 234.412 334.689 240.559 332.993C246.706 331.297 245.434 323.455 250.097 322.395C254.76 321.335 254.336 314.977 252.216 309.89C250.097 304.803 248.825 297.809 251.368 294.629C253.912 291.449 250.097 284.455 250.097 284.455Z" fill="#263238" stroke="#263238" stroke-miterlimit="10" stroke-linecap="round" stroke-linejoin="round"/>
<path d="M254.796 280.094C254.796 280.094 248.297 280.455 245.227 288.579C242.158 296.703 245.227 308.8 246.13 310.786C247.033 312.772 251.727 314.758 254.615 313.133C257.504 311.508 261.476 305.189 264.364 303.564C267.253 301.939 273.03 295.079 273.03 295.079L277.182 300.315C277.182 300.315 279.89 299.954 280.973 294.718C282.056 289.482 278.084 283.886 271.585 280.636C265.087 277.386 258.046 277.567 254.796 280.094Z" fill="#263238" stroke="#263238" stroke-miterlimit="10" stroke-linecap="round" stroke-linejoin="round"/>
<path d="M253.912 316.672C253.912 316.672 254.124 323.031 255.608 325.786C257.092 328.541 260.907 340.835 265.782 341.259C270.657 341.683 270.445 324.091 270.445 324.091C270.445 324.091 264.722 324.303 261.331 320.7C257.939 317.096 254.336 314.976 253.912 316.672Z" stroke="#263238" stroke-miterlimit="10" stroke-linecap="round" stroke-linejoin="round"/>
<path d="M273.753 289.843C273.753 289.843 266.17 298.689 260.212 302.481C254.254 306.272 251.546 306.814 251.546 306.814C251.546 306.814 253.893 306.453 252.268 308.078C250.643 309.703 250.282 310.064 249.379 308.62C248.476 307.176 244.865 305.731 244.143 309.342C243.421 312.953 245.587 315.661 248.115 316.744C250.643 317.827 252.99 317.105 252.99 317.105C252.99 317.105 253.532 323.243 260.753 326.854C267.975 330.465 274.655 325.41 276.641 321.618C278.627 317.827 277.905 300.675 277.544 297.787C277.183 294.898 273.753 289.843 273.753 289.843Z" fill="white" stroke="#263238" stroke-miterlimit="10" stroke-linecap="round" stroke-linejoin="round"/>
<path d="M271.928 306.922C271.928 306.922 271.504 310.313 272.14 310.525C272.776 310.737 275.107 311.585 274.26 312.857C273.412 314.129 272.14 314.977 270.657 314.341" stroke="#263238" stroke-miterlimit="10" stroke-linecap="round" stroke-linejoin="round"/>
<path d="M262.39 317.308C262.39 317.308 264.086 320.063 270.656 318.58" stroke="#263238" stroke-miterlimit="10" stroke-linecap="round" stroke-linejoin="round"/>
<path d="M266.206 308.299C266.206 309.294 265.731 310.101 265.146 310.101C264.561 310.101 264.086 309.294 264.086 308.299C264.086 307.304 264.56 306.497 265.146 306.497C265.732 306.497 266.206 307.305 266.206 308.299Z" fill="#263238"/>
<path d="M275.32 307.24C275.32 308.235 274.846 309.042 274.26 309.042C273.674 309.042 273.2 308.235 273.2 307.24C273.2 306.245 273.674 305.438 274.26 305.438C274.846 305.438 275.32 306.245 275.32 307.24Z" fill="#263238"/>
<path d="M261.966 305.014C261.966 305.014 263.662 302.683 266.841 303.106" stroke="#263238" stroke-miterlimit="10" stroke-linecap="round" stroke-linejoin="round"/>
<path d="M272.14 302.895C272.14 302.895 273.412 300.14 276.167 302.047" stroke="#263238" stroke-miterlimit="10" stroke-linecap="round" stroke-linejoin="round"/>
<path d="M342.659 377.331C342.659 377.331 322.204 383.897 316.649 385.917C311.093 387.937 292.911 388.19 291.648 390.21C290.385 392.23 281.327 403.648 279.559 410.214C277.791 416.78 280.138 434.537 281.826 435.653C288.623 440.139 306.476 438.756 314.037 438.475C327.87 437.96 341.257 442.947 349.08 428.866C351.605 424.32 347.962 408.392 347.457 403.089C346.952 397.786 345.184 388.947 344.932 387.685C344.679 386.422 346.447 378.341 342.659 377.331Z" fill="white" stroke="#263238" stroke-miterlimit="10" stroke-linecap="round" stroke-linejoin="round"/>
<path d="M317.066 402.947C327.89 399.127 337.122 387.984 339.988 386.074C342.853 384.164 344.427 380.109 344.427 380.109C344.427 380.109 337.76 384.801 329.801 387.348" stroke="#263238" stroke-miterlimit="10" stroke-linecap="round" stroke-linejoin="round"/>
<path d="M344.126 381.936C344.126 381.936 341.898 390.532 333.62 398.491" stroke="#263238" stroke-miterlimit="10" stroke-linecap="round" stroke-linejoin="round"/>
<path d="M295.736 390.85C295.736 390.85 298.92 392.442 309.744 392.442" stroke="#263238" stroke-miterlimit="10" stroke-linecap="round" stroke-linejoin="round"/>
<path d="M294.463 391.168C294.463 391.168 297.01 402.31 311.336 406.767" stroke="#263238" stroke-miterlimit="10" stroke-linecap="round" stroke-linejoin="round"/>
<path d="M291.916 394.988C291.916 394.988 294.463 400.082 300.512 404.857" stroke="#263238" stroke-miterlimit="10" stroke-linecap="round" stroke-linejoin="round"/>
<path d="M90.936 341.772C90.936 341.772 96.588 357.881 96.588 364.381C96.588 370.881 101.11 406.489 101.675 410.446C102.24 414.403 103.936 417.511 103.936 417.511C103.936 417.511 108.74 422.315 116.936 426.272C125.132 430.229 124.849 429.098 123.436 430.794C122.023 432.49 109.023 432.772 103.088 432.207C97.153 431.642 91.219 433.62 90.936 431.077C90.653 428.534 90.653 418.36 90.653 413.838C90.653 409.316 78.784 386.99 77.37 379.925C75.957 372.86 76.522 361.838 76.522 361.838L69.457 344.882L90.936 341.772Z" fill="white" stroke="#263238" stroke-miterlimit="10" stroke-linecap="round" stroke-linejoin="round"/>
<path d="M101.957 420.337C101.957 422.88 101.957 424.294 101.957 424.294L90.678 422.125C90.709 425.944 90.779 429.673 90.935 431.077C91.218 433.62 97.152 431.642 103.087 432.207C109.022 432.772 122.022 432.49 123.435 430.794C124.848 429.098 125.131 430.229 116.935 426.272C108.74 422.316 103.935 417.511 103.935 417.511C103.935 417.511 101.957 417.793 101.957 420.337Z" fill="#263238" stroke="#263238" stroke-miterlimit="10" stroke-linecap="round" stroke-linejoin="round"/>
<path d="M67.7621 343.468C67.7621 343.468 68.5811 361.176 65.7841 368.337C51.6541 404.511 51.0891 418.076 51.0891 418.076C51.0891 418.076 65.2191 428.815 68.3281 429.945C71.4371 431.075 73.1321 431.641 71.1541 433.054C69.1761 434.467 51.3721 434.184 48.2631 434.184C45.1541 434.184 37.5241 431.923 36.6761 430.51C35.8281 429.097 38.6541 417.793 38.6541 417.793C38.6541 417.793 40.0671 389.532 40.0671 383.032C40.0671 376.532 47.1321 363.815 47.1321 361.554C47.1321 359.293 45.7191 342.337 45.7191 342.337C45.7191 342.337 62.6751 346.577 67.7621 343.468Z" fill="white" stroke="#263238" stroke-miterlimit="10" stroke-linecap="round" stroke-linejoin="round"/>
<path d="M71.1531 433.054C73.1311 431.641 71.4361 431.076 68.3271 429.945C65.2181 428.815 51.0881 418.075 51.0881 418.075C51.0881 418.075 49.6751 418.64 49.6751 420.901C49.6751 423.162 48.8271 424.292 48.8271 424.292C48.8271 424.292 44.3051 423.444 38.9361 422.314C38.4931 422.221 38.0781 422.125 37.6771 422.029C36.9541 425.396 36.1751 429.676 36.6751 430.51C37.5231 431.923 45.1531 434.184 48.2621 434.184C51.3711 434.184 69.1751 434.467 71.1531 433.054Z" fill="#263238" stroke="#263238" stroke-miterlimit="10" stroke-linecap="round" stroke-linejoin="round"/>
<path d="M91.2181 258.404L101.674 273.665L144.913 267.448V275.643C144.913 275.643 101.957 287.513 100.261 286.1C98.5651 284.687 84.1521 277.904 84.1521 277.904L91.2181 258.404Z" fill="#B5B5B5" stroke="#263238" stroke-miterlimit="10" stroke-linecap="round" stroke-linejoin="round"/>
<path d="M52.5012 238.338C52.5012 238.338 49.3922 256.425 49.3922 263.773C49.3922 271.121 49.3922 289.773 49.3922 289.773C49.3922 289.773 40.3492 304.186 38.9362 316.903C37.5232 329.62 37.2402 343.751 37.2402 343.751C37.2402 343.751 50.8052 349.686 61.8272 348.838C72.8492 347.99 81.3272 346.012 81.3272 346.012L96.8702 342.338L85.2832 289.773C85.2832 289.773 90.9352 274.795 91.7832 273.947C92.6312 273.099 95.7392 262.925 94.6092 255.295C93.4792 247.665 89.2402 231.839 80.4792 227.6C71.7192 223.36 56.4582 228.447 52.5012 238.338Z" fill="#5E5E5E" stroke="#263238" stroke-miterlimit="10" stroke-linecap="round" stroke-linejoin="round"/>
<path d="M65.3802 290.037C65.3802 290.037 64.8222 296.737 59.7972 302.507C54.7722 308.277 50.6772 309.393 50.6772 309.393C50.6772 309.393 48.2582 332.844 49.1882 341.963" stroke="#263238" stroke-miterlimit="10" stroke-linecap="round" stroke-linejoin="round"/>
<path d="M67.9862 290.781C67.9862 290.781 67.4282 297.295 63.8912 303.065C60.3552 308.835 52.9102 310.882 52.9102 310.882" stroke="#263238" stroke-miterlimit="10" stroke-linecap="round" stroke-linejoin="round"/>
<path d="M85.5663 236.36C84.0923 231.307 79.7983 227.982 77.7033 226.614C71.1703 225.001 62.5703 227.276 57.0463 232.127C56.9473 232.731 56.8763 233.275 56.7403 233.817C56.4573 234.947 52.2183 259.534 52.2183 259.534C52.2183 259.534 53.2043 259.731 54.7823 260.009C53.2193 267.958 54.9693 281.221 54.9693 281.221C54.9693 281.221 63.3163 283.914 69.7783 283.644C76.2403 283.375 83.7793 279.605 83.7793 279.605C83.7793 277.34 85.6683 265.948 86.5573 260.711C86.8233 260.682 86.9793 260.664 86.9793 260.664C86.9793 260.664 87.5453 243.143 85.5663 236.36Z" fill="white" stroke="#263238" stroke-miterlimit="10" stroke-linecap="round" stroke-linejoin="round"/>
<path d="M73.8182 258.065C73.8182 258.065 63.8562 268.027 58.7402 269.643Z" fill="white"/>
<path d="M73.8182 258.065C73.8182 258.065 63.8562 268.027 58.7402 269.643" stroke="#263238" stroke-miterlimit="10" stroke-linecap="round" stroke-linejoin="round"/>
<path d="M73.8182 263.181C73.8182 263.181 68.1642 268.297 63.5862 272.066Z" fill="white"/>
<path d="M73.8182 263.181C73.8182 263.181 68.1642 268.297 63.5862 272.066" stroke="#263238" stroke-miterlimit="10" stroke-linecap="round" stroke-linejoin="round"/>
<path d="M95.5992 336.569C86.7732 341.088 79.3492 340.642 79.3492 340.642C79.3492 340.642 70.8712 344.316 57.5882 343.751C48.5382 343.366 41.1972 339.965 37.4362 337.835C37.2872 341.435 37.2412 343.751 37.2412 343.751C37.2412 343.751 50.8062 349.686 61.8282 348.838C72.8502 347.99 81.3282 346.012 81.3282 346.012L96.8712 342.338L95.5992 336.569Z" fill="white" stroke="#263238" stroke-miterlimit="10" stroke-linecap="round" stroke-linejoin="round"/>
<path d="M79.6323 346.577L80.1973 315.772" stroke="#263238" stroke-miterlimit="10" stroke-linecap="round" stroke-linejoin="round"/>
<path d="M107.609 199.056V206.404C107.609 206.404 111.283 209.23 109.022 211.208C106.761 213.186 105.913 213.469 105.913 213.469C105.913 213.469 104.5 219.969 101.391 223.078C98.2823 226.187 96.5873 225.622 92.0653 222.513C87.5433 219.404 84.7173 217.426 84.7173 217.426C84.7173 217.426 87.5433 203.578 89.5213 199.057C91.4993 194.535 97.7173 193.97 100.825 194.535C103.936 195.1 107.609 199.056 107.609 199.056Z" fill="white" stroke="#263238" stroke-miterlimit="10" stroke-linecap="round" stroke-linejoin="round"/>
<path d="M104.517 205.846C104.517 206.698 104.14 207.388 103.676 207.388C103.212 207.388 102.835 206.698 102.835 205.846C102.835 204.994 103.212 204.304 103.676 204.304C104.14 204.304 104.517 204.994 104.517 205.846Z" fill="#263238"/>
<path d="M101.854 202.201C101.854 202.201 103.396 199.678 105.499 201.78" stroke="#263238" stroke-miterlimit="10" stroke-linecap="round" stroke-linejoin="round"/>
<path d="M99.7512 213.977C99.7512 213.977 101.153 215.519 103.256 215.519" stroke="#263238" stroke-miterlimit="10" stroke-linecap="round" stroke-linejoin="round"/>
<path d="M94.9892 196.676C94.9892 196.676 89.0532 210.923 89.3502 217.75C89.6472 224.577 97.3642 244.166 94.0992 250.696C90.8342 257.226 84.0072 261.975 78.9622 254.258C73.9162 246.541 72.1352 244.166 68.8702 248.915C65.6052 253.664 61.7462 262.272 54.3262 262.272C46.9062 262.272 38.0012 252.477 42.4532 242.089C46.9052 231.701 56.9972 227.248 63.2302 217.157C69.4632 207.066 71.5412 199.348 72.7282 193.709L95.5832 194.6L94.9892 196.676Z" fill="#263238" stroke="#263238" stroke-miterlimit="10" stroke-linecap="round" stroke-linejoin="round"/>
<path d="M72.1343 198.16H107.752C107.752 198.16 107.752 183.023 104.784 180.648C101.816 178.274 78.3683 178.867 75.6963 180.648C73.0253 182.429 70.9473 196.379 72.1343 198.16Z" fill="#578E7E" stroke="#263238" stroke-miterlimit="10" stroke-linecap="round" stroke-linejoin="round"/>
<path d="M96.3691 198.026C96.3691 198.026 104.68 201.291 112.1 201.291C119.52 201.291 123.379 198.026 123.379 198.026H96.3691Z" fill="#578E7E" stroke="#263238" stroke-miterlimit="10" stroke-linecap="round" stroke-linejoin="round"/>
<path d="M154.805 266.034C154.805 266.034 157.914 265.469 157.914 267.73C157.914 269.991 154.24 269.708 151.131 268.578C148.022 267.447 152.261 266.599 154.805 266.034Z" fill="#B5B5B5" stroke="#263238" stroke-miterlimit="10" stroke-linecap="round" stroke-linejoin="round"/>
<path d="M155.37 268.86C155.37 268.86 158.479 268.295 158.479 270.556C158.479 272.817 154.805 272.534 151.696 271.404C148.587 270.273 152.826 269.425 155.37 268.86Z" fill="#B5B5B5" stroke="#263238" stroke-miterlimit="10" stroke-linecap="round" stroke-linejoin="round"/>
<path d="M155.935 271.686C155.935 271.686 159.044 271.121 159.044 273.382C159.044 275.643 155.37 275.36 152.261 274.23C149.153 273.099 153.392 272.251 155.935 271.686Z" fill="#B5B5B5" stroke="#263238" stroke-miterlimit="10" stroke-linecap="round" stroke-linejoin="round"/>
<path d="M155.379 274.577C155.379 274.577 158.488 274.012 158.488 276.273C158.488 278.534 154.814 278.251 151.705 277.121C148.597 275.99 152.836 275.142 155.379 274.577Z" fill="#B5B5B5" stroke="#263238" stroke-miterlimit="10" stroke-linecap="round" stroke-linejoin="round"/>
<path d="M141.805 268.86C141.805 268.86 124.284 307.294 124.284 309.838C124.284 312.381 124.284 319.164 125.98 323.12C127.676 327.076 137.85 334.424 142.371 335.272C146.893 336.12 166.11 331.598 168.371 331.033C170.632 330.468 176.567 314.642 176.284 311.533C176.001 308.424 168.654 296.555 167.523 294.577C166.393 292.599 157.067 279.882 155.936 277.621C154.806 275.36 151.414 269.425 151.414 269.425L141.805 268.86Z" fill="white" stroke="#263238" stroke-miterlimit="10" stroke-linecap="round" stroke-linejoin="round"/>
<path d="M144.913 275.642L142.653 292.316" stroke="#263238" stroke-miterlimit="10" stroke-linecap="round" stroke-linejoin="round"/>
<path d="M148.87 273.664V295.707" stroke="#263238" stroke-miterlimit="10" stroke-linecap="round" stroke-linejoin="round"/>
<path d="M151.696 271.403L159.609 296.273" stroke="#263238" stroke-miterlimit="10" stroke-linecap="round" stroke-linejoin="round"/>
<path d="M96.0231 271.121C96.0231 271.121 82.1751 236.078 78.5011 234.382C74.8271 232.686 63.8061 232.969 64.9361 245.969C66.0661 258.969 87.8271 286.099 90.6531 286.382C93.4791 286.665 137.848 271.969 137.848 271.969C137.848 271.969 152.826 273.947 153.956 272.252C155.086 270.556 155.369 264.339 155.369 264.339C155.369 264.339 157.347 260.1 155.369 258.687C153.391 257.274 144.347 258.122 142.934 258.122C141.521 258.122 134.738 264.905 134.738 264.905L96.0231 271.121Z" fill="white" stroke="#263238" stroke-miterlimit="10" stroke-linecap="round" stroke-linejoin="round"/>
<path d="M153.957 272.251C155.087 270.555 155.37 264.338 155.37 264.338C155.37 264.338 157.348 260.099 155.37 258.686C153.392 257.273 144.348 258.121 142.935 258.121C141.522 258.121 134.739 264.904 134.739 264.904L127.393 266.084L128.643 274.988C134.066 273.222 137.848 271.97 137.848 271.97C137.848 271.97 152.826 273.947 153.957 272.251Z" fill="#578E7E" stroke="#263238" stroke-miterlimit="10" stroke-linecap="round" stroke-linejoin="round"/>
<path d="M159.044 254.73L175.152 263.208L172.044 268.86L159.044 254.73Z" fill="white" stroke="#263238" stroke-miterlimit="10" stroke-linecap="round" stroke-linejoin="round"/>
<path d="M145.761 257.556L148.022 251.621C148.022 251.621 149.718 250.773 155.935 252.469C162.152 254.165 174.304 271.404 174.304 271.404C174.304 271.404 165.543 277.621 164.13 277.904C162.717 278.187 157.63 262.926 157.065 261.513C156.5 260.1 155.369 258.687 155.369 258.687L145.761 257.556Z" fill="white" stroke="#263238" stroke-miterlimit="10" stroke-linecap="round" stroke-linejoin="round"/>
<path d="M155.37 258.686L150.369 255.443" stroke="#263238" stroke-miterlimit="10" stroke-linecap="round" stroke-linejoin="round"/>
<path d="M188.713 321.121H117.43V432.816H188.713V321.121Z" fill="#578E7E" stroke="#263238" stroke-miterlimit="10" stroke-linecap="round" stroke-linejoin="round"/>
<path d="M188.542 358.971H117.601C116.551 358.971 115.701 358.12 115.701 357.071C115.701 356.021 116.552 355.171 117.601 355.171H188.542C189.591 355.171 190.442 356.022 190.442 357.071C190.442 358.12 189.591 358.971 188.542 358.971Z" fill="#578E7E" stroke="#263238" stroke-miterlimit="10" stroke-linecap="round" stroke-linejoin="round"/>
<path d="M188.542 322.798H117.601C116.551 322.798 115.701 321.947 115.701 320.898C115.701 319.848 116.552 318.998 117.601 318.998H188.542C189.591 318.998 190.442 319.849 190.442 320.898C190.442 321.947 189.591 322.798 188.542 322.798Z" fill="#578E7E" stroke="#263238" stroke-miterlimit="10" stroke-linecap="round" stroke-linejoin="round"/>
<path d="M188.542 396.841H117.601C116.551 396.841 115.701 395.99 115.701 394.941C115.701 393.891 116.552 393.041 117.601 393.041H188.542C189.591 393.041 190.442 393.892 190.442 394.941C190.442 395.99 189.591 396.841 188.542 396.841Z" fill="#578E7E" stroke="#263238" stroke-miterlimit="10" stroke-linecap="round" stroke-linejoin="round"/>
</svg>
