<svg width="500" height="500" viewBox="0 0 500 500" fill="none" xmlns="http://www.w3.org/2000/svg">
<path d="M324.181 23.357C324.181 23.357 251.446 -2.506 180.048 38.67C108.65 79.846 72.624 161.586 41.688 227.062C10.751 292.539 28.558 359.14 83.061 389.508C137.564 419.876 174.624 375.11 251.083 372.93C327.542 370.75 348.106 381.681 411.551 338.489C474.997 295.297 486.465 193.29 436.417 117.812C386.368 42.334 324.181 23.357 324.181 23.357Z" fill="#578E7E"/>
<path opacity="0.7" d="M324.181 23.357C324.181 23.357 251.446 -2.506 180.048 38.67C108.65 79.846 72.624 161.586 41.688 227.062C10.751 292.539 28.558 359.14 83.061 389.508C137.564 419.876 174.624 375.11 251.083 372.93C327.542 370.75 348.106 381.681 411.551 338.489C474.997 295.297 486.465 193.29 436.417 117.812C386.368 42.334 324.181 23.357 324.181 23.357Z" fill="white"/>
<path d="M454.357 398.164C450.352 397.587 442.748 392.633 442.742 392.629C442.663 392.577 447.529 388.609 447.864 388.393C451.751 385.904 460.723 383.377 464.712 386.664C467.585 389.032 467.383 393.252 464.845 395.765C462.252 398.333 457.769 398.655 454.357 398.164Z" fill="#578E7E"/>
<path d="M379.767 359.771C379.673 359.772 381.542 353.778 381.703 353.413C383.571 349.193 389.661 342.136 394.801 342.677C398.504 343.067 400.663 346.698 399.932 350.194C399.186 353.766 395.625 356.508 392.508 357.98C388.849 359.709 379.774 359.771 379.767 359.771Z" fill="#578E7E"/>
<path d="M372.298 459.827C370.53 462.026 368.923 464.096 367.48 466H363.838C365.671 463.65 367.805 460.991 370.218 458.119C371.62 456.442 373.152 454.679 374.742 452.883C374.379 452.443 372.326 449.924 370.706 447.331C367.456 448.417 360.815 448.129 359.959 448.086C359.709 450.224 359.487 452.306 359.308 454.273C358.894 458.721 358.638 462.672 358.472 466H355.516C355.758 462.603 356.107 458.556 356.631 453.996C356.876 451.824 357.18 449.508 357.516 447.133C356.681 446.878 349.87 444.754 347.369 442.54C345.101 440.531 342.77 437.342 343.018 434.145C343.261 431.015 345.976 428.482 349.197 429.064C353.667 429.871 357.071 437.323 357.609 441.343C357.641 441.58 357.698 444.192 357.706 445.84C357.848 444.87 357.975 443.927 358.134 442.931C358.434 440.959 358.792 438.999 359.169 436.889C359.387 435.877 359.607 434.854 359.83 433.821C360.028 432.792 360.369 431.73 360.636 430.674C361.308 428.238 362.106 425.801 362.966 423.364C361.239 423.097 355.121 422.06 352.563 420.411C350.017 418.769 347.23 415.97 346.991 412.772C346.757 409.641 349.057 406.726 352.329 406.812C356.87 406.933 361.363 413.783 362.504 417.676C362.575 417.919 363.08 420.804 363.327 422.394C363.855 420.933 364.374 419.472 364.957 418.012C366.637 413.796 368.469 409.58 370.277 405.367C370.832 404.076 371.369 402.785 371.911 401.493C371.296 401.405 363.997 400.329 361.133 398.482C358.587 396.84 355.8 394.041 355.561 390.843C355.327 387.712 357.627 384.797 360.898 384.884C365.439 385.005 369.932 391.855 371.073 395.747C371.159 396.041 371.879 400.193 372.011 401.258C373.205 398.413 374.369 395.566 375.402 392.714C376.833 388.78 378.02 384.841 378.887 380.94C378.6 380.9 370.978 379.811 368.044 377.919C365.498 376.277 362.711 373.478 362.472 370.28C362.238 367.149 364.538 364.234 367.809 364.321C372.351 364.441 376.843 371.292 377.984 375.184C378.059 375.44 378.611 378.602 378.838 380.113C378.981 380.116 378.955 380.116 379.097 380.119C379.976 375.929 380.299 371.759 380.41 367.842C380.478 365.573 380.417 363.4 380.309 361.287C378.869 361.23 372.289 360.896 369.46 359.485C366.749 358.132 363.671 355.657 363.082 352.504C362.506 349.417 364.472 346.267 367.733 345.994C372.26 345.615 377.478 351.931 379.039 355.674C379.124 355.878 379.758 358.043 380.198 359.626C380.134 358.673 380.087 357.689 380.009 356.777C379.723 353.354 379.249 350.237 378.808 347.48C378.544 345.914 378.274 344.504 378.009 343.187C376.625 342.394 371.086 339.126 369.259 336.616C367.476 334.167 365.886 330.55 366.816 327.482C367.727 324.477 370.923 322.587 373.943 323.848C378.135 325.598 379.856 333.607 379.517 337.65C379.487 337.999 378.401 343.41 378.328 343.369C378.328 343.369 378.26 343.331 378.244 343.321C378.526 344.583 378.813 345.94 379.097 347.429C379.599 350.182 380.142 353.297 380.504 356.728C380.875 360.155 381.181 363.889 381.148 367.851C381.121 371.822 380.89 375.998 380.095 380.27C380.086 380.318 380.07 380.367 380.061 380.415C380.682 379.238 382.526 376.004 382.697 375.772C385.092 372.498 391.643 367.579 395.956 369.008C399.063 370.037 400.236 373.56 398.953 376.425C397.643 379.352 394.071 381.039 391.118 381.719C387.788 382.486 380.528 381.01 379.95 380.891C379.156 384.952 378.011 389.056 376.623 393.144C375.832 395.483 374.963 397.813 374.062 400.139C374.631 399.138 375.148 398.248 375.234 398.131C377.629 394.857 384.181 389.939 388.493 391.367C391.6 392.396 392.773 395.918 391.491 398.784C390.181 401.711 386.609 403.398 383.656 404.078C380.66 404.768 374.445 403.634 372.804 403.312C372.449 404.201 372.104 405.092 371.746 405.979C370.028 410.236 368.294 414.478 366.721 418.689C366.166 420.173 365.674 421.655 365.176 423.136C365.683 422.248 366.117 421.504 366.194 421.398C368.589 418.124 375.141 413.206 379.453 414.634C382.56 415.663 383.734 419.185 382.45 422.052C381.14 424.978 377.568 426.665 374.615 427.345C371.756 428.003 366.01 427.008 364.059 426.635C363.595 428.167 363.128 429.7 362.747 431.206C362.511 432.24 362.211 433.219 362.031 434.27C361.831 435.307 361.633 436.334 361.437 437.351C361.131 439.323 360.804 441.357 360.554 443.289C360.37 444.631 360.22 445.913 360.064 447.205C360.599 445.722 361.708 442.839 361.828 442.609C363.071 440.217 366.02 436.84 369.172 435.059C369.354 434.705 369.565 434.368 369.81 434.053C371.74 431.577 375.402 430.962 377.767 433.224C381.05 436.363 379.778 444.456 378.009 448.106C377.905 448.321 376.511 450.531 375.609 451.911C376.263 451.181 376.889 450.464 377.571 449.721C378.91 448.241 380.289 446.804 381.768 445.252C382.508 444.528 383.256 443.797 384.011 443.058C384.744 442.309 385.614 441.612 386.419 440.878C388.324 439.217 390.334 437.625 392.395 436.066C391.103 434.89 386.572 430.651 385.348 427.864C384.13 425.09 383.35 421.217 384.915 418.419C386.447 415.679 389.973 414.516 392.654 416.393C396.375 418.998 396.344 427.191 395.148 431.067C395.074 431.309 393.903 433.994 393.231 435.456C394.478 434.529 395.717 433.597 397.008 432.7C400.735 430.11 404.588 427.605 408.421 425.088C409.596 424.318 410.756 423.536 411.922 422.759C411.457 422.346 405.963 417.422 404.593 414.301C403.375 411.527 402.595 407.655 404.159 404.856C405.691 402.116 409.218 400.953 411.898 402.83C415.619 405.436 415.587 413.628 414.392 417.504C414.302 417.796 412.612 421.657 412.134 422.617C414.699 420.903 417.24 419.171 419.676 417.362C423.04 414.87 426.203 412.24 429.078 409.464C428.861 409.272 423.104 404.16 421.7 400.963C420.482 398.189 419.702 394.316 421.267 391.518C422.799 388.777 426.326 387.615 429.006 389.492C432.728 392.098 432.696 400.29 431.5 404.166C431.422 404.421 430.136 407.365 429.493 408.75C429.61 408.832 429.589 408.816 429.705 408.898C432.75 405.887 435.321 402.588 437.574 399.38C438.883 397.525 440.03 395.679 441.106 393.858C439.936 393.016 434.632 389.108 433.051 386.37C431.536 383.746 430.335 379.983 431.583 377.029C432.805 374.137 436.183 372.594 439.053 374.166C443.038 376.347 443.906 384.493 443.143 388.477C443.102 388.693 442.436 390.849 441.93 392.413C442.402 391.584 442.906 390.737 443.343 389.933C444.993 386.92 446.317 384.059 447.47 381.516C448.114 380.064 448.667 378.739 449.172 377.494C448.455 376.069 445.638 370.288 445.499 367.187C445.363 364.161 446.032 360.267 448.5 358.221C450.918 356.217 454.626 356.404 456.449 359.122C458.98 362.894 455.997 370.524 453.484 373.708C453.267 373.983 449.376 377.897 449.338 377.823C449.338 377.823 449.303 377.753 449.294 377.737C448.832 378.945 448.323 380.235 447.739 381.633C446.64 384.206 445.373 387.104 443.783 390.165C442.202 393.227 440.397 396.511 438.185 399.797C435.971 403.094 433.475 406.45 430.455 409.574C430.421 409.609 430.381 409.642 430.347 409.677C431.514 409.037 434.837 407.358 435.107 407.258C438.91 405.849 447.089 405.361 449.897 408.931C451.92 411.504 450.957 415.089 448.305 416.772C445.597 418.49 441.688 417.926 438.85 416.865C435.65 415.668 430.408 410.431 429.993 410.013C427.09 412.962 423.871 415.753 420.458 418.398C418.509 419.913 416.498 421.377 414.463 422.82C415.49 422.299 416.412 421.842 416.548 421.791C420.352 420.381 428.53 419.894 431.338 423.464C433.362 426.037 432.397 429.622 429.746 431.304C427.039 433.023 423.129 432.459 420.291 431.398C417.412 430.32 412.853 425.946 411.663 424.773C410.877 425.318 410.098 425.872 409.309 426.414C405.527 429.016 401.741 431.597 398.106 434.243C396.824 435.174 395.596 436.139 394.364 437.1C395.277 436.639 396.049 436.258 396.173 436.212C399.976 434.802 408.154 434.315 410.963 437.885C412.987 440.457 412.022 444.043 409.371 445.725C406.664 447.443 402.754 446.879 399.916 445.818C397.168 444.79 392.924 440.79 391.503 439.402C390.272 440.424 389.035 441.445 387.888 442.49C387.12 443.222 386.33 443.873 385.6 444.651C384.861 445.406 384.129 446.153 383.405 446.893C382.062 448.37 380.667 449.885 379.393 451.358C378.499 452.375 377.666 453.362 376.824 454.354C378.088 453.412 380.604 451.62 380.831 451.494C384.377 449.524 392.386 447.803 395.704 450.907C398.093 453.143 397.684 456.833 395.318 458.898C392.902 461.007 388.952 461.042 385.986 460.422C382.721 459.74 376.961 455.556 376.245 455.029C374.867 456.67 373.533 458.284 372.298 459.827Z" fill="#578E7E"/>
<path d="M328.357 398.164C324.352 397.587 316.748 392.633 316.742 392.629C316.663 392.577 321.529 388.609 321.864 388.393C325.751 385.904 334.723 383.377 338.712 386.664C341.585 389.032 341.383 393.252 338.845 395.765C336.252 398.333 331.769 398.655 328.357 398.164Z" fill="#578E7E"/>
<path d="M253.767 359.771C253.673 359.772 255.542 353.778 255.703 353.413C257.571 349.193 263.661 342.136 268.801 342.677C272.504 343.067 274.663 346.698 273.932 350.194C273.186 353.766 269.625 356.508 266.508 357.98C262.849 359.709 253.774 359.771 253.767 359.771Z" fill="#578E7E"/>
<path d="M246.298 459.827C244.53 462.026 242.923 464.096 241.48 466H237.838C239.671 463.65 241.805 460.991 244.218 458.119C245.62 456.442 247.152 454.679 248.742 452.883C248.379 452.443 246.326 449.924 244.706 447.331C241.456 448.417 234.815 448.129 233.959 448.086C233.709 450.224 233.487 452.306 233.308 454.273C232.894 458.721 232.638 462.672 232.472 466H229.516C229.758 462.603 230.106 458.556 230.631 453.996C230.875 451.824 231.18 449.508 231.516 447.133C230.681 446.878 223.87 444.754 221.369 442.54C219.101 440.531 216.77 437.342 217.018 434.145C217.261 431.015 219.976 428.482 223.197 429.064C227.667 429.871 231.071 437.323 231.609 441.343C231.641 441.58 231.698 444.192 231.706 445.84C231.848 444.87 231.975 443.927 232.134 442.931C232.434 440.959 232.792 438.999 233.169 436.889C233.387 435.877 233.607 434.854 233.83 433.821C234.028 432.792 234.369 431.73 234.636 430.674C235.308 428.238 236.106 425.801 236.966 423.364C235.239 423.097 229.121 422.06 226.564 420.411C224.018 418.769 221.231 415.97 220.992 412.772C220.758 409.641 223.058 406.726 226.33 406.812C230.871 406.933 235.364 413.783 236.505 417.676C236.576 417.919 237.081 420.804 237.328 422.394C237.856 420.933 238.375 419.472 238.958 418.012C240.638 413.796 242.469 409.58 244.278 405.367C244.833 404.076 245.37 402.785 245.912 401.493C245.297 401.405 237.998 400.329 235.134 398.482C232.588 396.84 229.801 394.041 229.562 390.843C229.328 387.712 231.628 384.797 234.899 384.884C239.44 385.005 243.934 391.855 245.074 395.747C245.16 396.041 245.88 400.193 246.012 401.258C247.206 398.413 248.37 395.566 249.403 392.714C250.834 388.78 252.021 384.841 252.888 380.94C252.601 380.9 244.979 379.811 242.045 377.919C239.499 376.277 236.712 373.478 236.473 370.28C236.239 367.149 238.539 364.234 241.81 364.321C246.352 364.441 250.844 371.292 251.985 375.184C252.06 375.44 252.612 378.602 252.839 380.113C252.982 380.116 252.956 380.116 253.099 380.119C253.978 375.929 254.301 371.759 254.412 367.842C254.48 365.573 254.419 363.4 254.311 361.287C252.871 361.23 246.291 360.896 243.462 359.485C240.751 358.132 237.673 355.657 237.084 352.504C236.508 349.417 238.474 346.267 241.735 345.994C246.262 345.615 251.48 351.931 253.041 355.674C253.126 355.878 253.76 358.043 254.2 359.626C254.136 358.673 254.089 357.689 254.011 356.777C253.725 353.354 253.251 350.237 252.81 347.48C252.546 345.914 252.277 344.504 252.011 343.187C250.626 342.394 245.088 339.126 243.261 336.616C241.478 334.167 239.888 330.55 240.818 327.482C241.729 324.477 244.925 322.587 247.945 323.848C252.137 325.598 253.858 333.607 253.519 337.65C253.489 337.999 252.403 343.41 252.33 343.369C252.33 343.369 252.262 343.331 252.246 343.321C252.528 344.583 252.815 345.94 253.099 347.429C253.601 350.182 254.144 353.297 254.506 356.728C254.877 360.155 255.183 363.889 255.15 367.851C255.123 371.822 254.892 375.998 254.097 380.27C254.088 380.318 254.072 380.367 254.063 380.415C254.684 379.238 256.528 376.004 256.699 375.772C259.094 372.498 265.645 367.579 269.958 369.008C273.065 370.037 274.238 373.56 272.955 376.425C271.645 379.352 268.073 381.039 265.12 381.719C261.79 382.486 254.53 381.01 253.952 380.891C253.158 384.952 252.013 389.056 250.626 393.144C249.835 395.483 248.966 397.813 248.065 400.139C248.634 399.138 249.151 398.248 249.236 398.131C251.631 394.857 258.183 389.939 262.495 391.367C265.602 392.396 266.775 395.918 265.493 398.784C264.183 401.711 260.611 403.398 257.658 404.078C254.663 404.768 248.447 403.634 246.806 403.312C246.451 404.201 246.106 405.092 245.748 405.979C244.03 410.236 242.296 414.478 240.723 418.689C240.168 420.173 239.676 421.655 239.178 423.136C239.685 422.248 240.119 421.504 240.196 421.398C242.591 418.124 249.143 413.206 253.455 414.634C256.562 415.663 257.736 419.185 256.452 422.052C255.142 424.978 251.57 426.665 248.617 427.345C245.758 428.003 240.012 427.008 238.061 426.635C237.597 428.167 237.13 429.7 236.749 431.206C236.513 432.24 236.213 433.219 236.033 434.27C235.833 435.307 235.635 436.334 235.439 437.351C235.133 439.323 234.806 441.357 234.556 443.289C234.372 444.631 234.222 445.913 234.066 447.205C234.601 445.722 235.71 442.839 235.83 442.609C237.073 440.217 240.022 436.84 243.175 435.059C243.357 434.705 243.568 434.368 243.813 434.053C245.743 431.577 249.405 430.962 251.77 433.224C255.053 436.363 253.781 444.456 252.012 448.106C251.908 448.321 250.514 450.531 249.612 451.911C250.266 451.181 250.892 450.464 251.574 449.721C252.913 448.241 254.292 446.804 255.771 445.252C256.511 444.528 257.259 443.797 258.014 443.058C258.747 442.309 259.617 441.612 260.422 440.878C262.327 439.217 264.337 437.625 266.398 436.066C265.106 434.89 260.575 430.651 259.351 427.864C258.133 425.09 257.353 421.217 258.918 418.419C260.45 415.679 263.976 414.516 266.657 416.393C270.378 418.998 270.347 427.191 269.151 431.067C269.077 431.309 267.906 433.994 267.234 435.456C268.481 434.529 269.72 433.597 271.011 432.7C274.738 430.11 278.591 427.605 282.424 425.088C283.599 424.318 284.759 423.536 285.925 422.759C285.46 422.346 279.966 417.422 278.596 414.301C277.378 411.527 276.598 407.655 278.162 404.856C279.694 402.116 283.221 400.953 285.901 402.83C289.622 405.436 289.59 413.628 288.395 417.504C288.305 417.796 286.615 421.657 286.137 422.617C288.702 420.903 291.243 419.171 293.678 417.362C297.042 414.87 300.205 412.24 303.08 409.464C302.863 409.272 297.106 404.16 295.702 400.963C294.484 398.189 293.704 394.316 295.269 391.518C296.801 388.777 300.328 387.615 303.008 389.492C306.73 392.098 306.698 400.29 305.502 404.166C305.424 404.421 304.138 407.365 303.495 408.75C303.612 408.832 303.591 408.816 303.707 408.898C306.752 405.887 309.323 402.588 311.576 399.38C312.885 397.525 314.032 395.679 315.108 393.858C313.938 393.016 308.634 389.108 307.053 386.37C305.538 383.746 304.337 379.983 305.585 377.029C306.807 374.137 310.185 372.594 313.055 374.166C317.04 376.347 317.908 384.493 317.145 388.477C317.104 388.693 316.438 390.849 315.932 392.413C316.404 391.584 316.908 390.737 317.345 389.933C318.995 386.92 320.319 384.059 321.472 381.516C322.116 380.064 322.669 378.739 323.174 377.494C322.457 376.069 319.64 370.288 319.501 367.187C319.365 364.161 320.034 360.267 322.502 358.221C324.92 356.217 328.628 356.404 330.451 359.122C332.982 362.894 329.999 370.524 327.486 373.708C327.269 373.983 323.378 377.897 323.34 377.823C323.34 377.823 323.305 377.753 323.297 377.737C322.835 378.945 322.326 380.235 321.742 381.633C320.643 384.206 319.376 387.104 317.786 390.165C316.205 393.227 314.4 396.511 312.188 399.797C309.974 403.094 307.478 406.45 304.458 409.574C304.424 409.609 304.384 409.642 304.35 409.677C305.517 409.037 308.84 407.358 309.109 407.258C312.912 405.849 321.091 405.361 323.899 408.931C325.922 411.504 324.959 415.089 322.307 416.772C319.599 418.49 315.69 417.926 312.852 416.865C309.652 415.668 304.41 410.431 303.995 410.013C301.092 412.962 297.873 415.753 294.46 418.398C292.511 419.913 290.5 421.377 288.465 422.82C289.492 422.299 290.414 421.842 290.55 421.791C294.354 420.381 302.532 419.894 305.34 423.464C307.364 426.037 306.399 429.622 303.748 431.304C301.041 433.023 297.131 432.459 294.293 431.398C291.414 430.32 286.855 425.946 285.665 424.773C284.879 425.318 284.1 425.872 283.311 426.414C279.529 429.016 275.743 431.597 272.108 434.243C270.826 435.174 269.598 436.139 268.366 437.1C269.279 436.639 270.051 436.258 270.175 436.212C273.978 434.802 282.156 434.315 284.965 437.885C286.989 440.457 286.024 444.043 283.373 445.725C280.666 447.443 276.756 446.879 273.918 445.818C271.17 444.79 266.927 440.79 265.505 439.402C264.274 440.424 263.037 441.445 261.89 442.49C261.122 443.222 260.332 443.873 259.602 444.651C258.863 445.406 258.131 446.153 257.407 446.893C256.064 448.37 254.669 449.885 253.395 451.358C252.501 452.375 251.668 453.362 250.826 454.354C252.09 453.412 254.606 451.62 254.833 451.494C258.379 449.524 266.388 447.803 269.706 450.907C272.095 453.143 271.686 456.833 269.32 458.898C266.904 461.007 262.954 461.042 259.988 460.422C256.723 459.74 250.963 455.556 250.247 455.029C248.867 456.67 247.533 458.284 246.298 459.827Z" fill="#578E7E"/>
<path d="M48.335 405.729C51.894 405.216 58.649 400.815 58.654 400.811C58.724 400.765 54.4011 397.239 54.1031 397.048C50.6501 394.836 42.678 392.591 39.134 395.512C36.581 397.616 36.761 401.366 39.016 403.598C41.32 405.88 45.303 406.166 48.335 405.729Z" fill="#578E7E"/>
<path d="M114.606 371.619C114.69 371.62 113.029 366.294 112.886 365.97C111.226 362.22 105.816 355.95 101.248 356.432C97.959 356.779 96.04 360.004 96.689 363.111C97.352 366.284 100.516 368.72 103.285 370.029C106.537 371.564 114.6 371.619 114.606 371.619Z" fill="#578E7E"/>
<path d="M121.241 460.515C122.812 462.468 124.24 464.308 125.522 466H128.758C127.13 463.912 125.234 461.549 123.09 458.998C121.844 457.509 120.483 455.942 119.071 454.346C119.394 453.955 121.218 451.717 122.657 449.413C125.545 450.378 131.445 450.122 132.206 450.084C132.428 451.983 132.625 453.833 132.784 455.581C133.152 459.533 133.379 463.043 133.527 466H136.153C135.938 462.982 135.628 459.386 135.162 455.335C134.945 453.405 134.674 451.347 134.376 449.237C135.118 449.011 141.169 447.124 143.391 445.156C145.406 443.371 147.477 440.538 147.257 437.697C147.041 434.916 144.629 432.666 141.767 433.182C137.796 433.899 134.771 440.52 134.293 444.092C134.265 444.303 134.214 446.623 134.206 448.088C134.08 447.227 133.967 446.389 133.826 445.503C133.559 443.751 133.242 442.009 132.906 440.135C132.712 439.236 132.517 438.327 132.319 437.41C132.143 436.496 131.84 435.553 131.603 434.614C131.006 432.449 130.297 430.285 129.533 428.119C131.067 427.882 136.503 426.96 138.775 425.495C141.037 424.036 143.513 421.549 143.726 418.708C143.934 415.926 141.891 413.336 138.984 413.413C134.949 413.52 130.957 419.606 129.943 423.065C129.88 423.281 129.431 425.844 129.212 427.257C128.743 425.959 128.282 424.661 127.764 423.364C126.272 419.618 124.644 415.873 123.037 412.129C122.544 410.982 122.067 409.834 121.585 408.687C122.132 408.609 128.616 407.653 131.161 406.012C133.423 404.553 135.899 402.066 136.112 399.225C136.319 396.443 134.277 393.854 131.37 393.931C127.336 394.038 123.343 400.124 122.33 403.582C122.254 403.843 121.614 407.532 121.497 408.478C120.436 405.95 119.402 403.421 118.484 400.887C117.213 397.391 116.158 393.892 115.388 390.426C115.643 390.39 122.415 389.423 125.022 387.742C127.284 386.283 129.76 383.796 129.973 380.955C130.181 378.173 128.137 375.583 125.231 375.66C121.196 375.767 117.204 381.853 116.191 385.312C116.124 385.539 115.634 388.348 115.432 389.691C115.305 389.694 115.328 389.693 115.201 389.697C114.42 385.974 114.133 382.27 114.035 378.789C113.974 376.773 114.029 374.843 114.125 372.966C115.405 372.915 121.251 372.619 123.764 371.365C126.173 370.163 128.907 367.963 129.43 365.163C129.942 362.421 128.195 359.622 125.298 359.38C121.276 359.043 116.64 364.654 115.253 367.98C115.178 368.161 114.614 370.085 114.223 371.492C114.28 370.646 114.322 369.771 114.391 368.961C114.645 365.919 115.066 363.15 115.458 360.7C115.693 359.309 115.932 358.056 116.168 356.885C117.398 356.18 122.319 353.277 123.942 351.047C125.526 348.871 126.939 345.658 126.112 342.931C125.303 340.261 122.463 338.582 119.78 339.702C116.056 341.257 114.527 348.373 114.828 351.964C114.855 352.275 115.819 357.082 115.884 357.045C115.884 357.045 115.944 357.011 115.959 357.003C115.709 358.125 115.454 359.33 115.201 360.653C114.755 363.099 114.273 365.867 113.951 368.915C113.622 371.96 113.35 375.277 113.379 378.797C113.403 382.325 113.608 386.036 114.315 389.831C114.323 389.874 114.337 389.917 114.345 389.96C113.794 388.914 112.155 386.041 112.003 385.835C109.875 382.926 104.054 378.556 100.223 379.825C97.4631 380.74 96.4201 383.869 97.5601 386.415C98.7241 389.016 101.898 390.515 104.521 391.118C107.479 391.8 113.93 390.488 114.443 390.382C115.149 393.99 116.166 397.636 117.398 401.269C118.101 403.347 118.873 405.418 119.673 407.484C119.167 406.595 118.708 405.804 118.632 405.7C116.504 402.791 110.683 398.422 106.852 399.691C104.092 400.605 103.049 403.735 104.189 406.281C105.353 408.882 108.527 410.38 111.15 410.985C113.811 411.598 119.334 410.59 120.791 410.304C121.106 411.094 121.413 411.885 121.731 412.674C123.257 416.456 124.798 420.225 126.196 423.966C126.689 425.285 127.127 426.601 127.569 427.917C127.119 427.128 126.733 426.467 126.664 426.372C124.536 423.463 118.715 419.093 114.884 420.363C112.124 421.277 111.081 424.407 112.221 426.953C113.385 429.553 116.559 431.052 119.182 431.656C121.722 432.241 126.827 431.357 128.561 431.025C128.973 432.386 129.388 433.748 129.726 435.086C129.936 436.005 130.202 436.874 130.362 437.809C130.54 438.731 130.716 439.643 130.89 440.546C131.161 442.299 131.453 444.105 131.674 445.821C131.838 447.014 131.971 448.153 132.109 449.3C131.634 447.982 130.648 445.421 130.542 445.217C129.437 443.092 126.817 440.091 124.017 438.509C123.856 438.194 123.668 437.895 123.45 437.615C121.735 435.415 118.482 434.869 116.381 436.878C113.464 439.667 114.594 446.857 116.166 450.1C116.258 450.291 117.497 452.254 118.298 453.48C117.717 452.831 117.161 452.194 116.555 451.534C115.366 450.219 114.14 448.942 112.826 447.563C112.168 446.92 111.504 446.27 110.833 445.614C110.182 444.949 109.409 444.329 108.693 443.677C107.001 442.201 105.214 440.787 103.383 439.402C104.531 438.358 108.557 434.591 109.644 432.115C110.726 429.651 111.419 426.21 110.029 423.723C108.667 421.288 105.535 420.255 103.153 421.923C99.8471 424.238 99.8751 431.517 100.938 434.96C101.004 435.175 102.044 437.56 102.641 438.86C101.533 438.036 100.433 437.208 99.2851 436.411C95.9741 434.11 92.5501 431.884 89.1451 429.648C88.1011 428.964 87.0701 428.269 86.0341 427.578C86.4471 427.211 91.3291 422.837 92.5461 420.063C93.6281 417.598 94.3221 414.158 92.9311 411.671C91.5701 409.236 88.4371 408.203 86.0551 409.871C82.7491 412.186 82.7771 419.465 83.8391 422.909C83.9191 423.168 85.4211 426.599 85.8451 427.452C83.5661 425.929 81.3081 424.39 79.1451 422.783C76.1561 420.569 73.3461 418.232 70.7921 415.766C70.9841 415.595 76.1001 411.053 77.3471 408.213C78.4291 405.748 79.1221 402.308 77.7321 399.821C76.3711 397.386 73.2381 396.353 70.8561 398.021C67.5491 400.336 67.5781 407.615 68.6401 411.058C68.7101 411.284 69.8521 413.9 70.4241 415.131C70.3201 415.204 70.3391 415.19 70.2351 415.263C67.5291 412.588 65.2451 409.657 63.2431 406.807C62.0801 405.159 61.0601 403.519 60.1051 401.901C61.1441 401.153 65.8571 397.68 67.2621 395.248C68.6081 392.917 69.6751 389.573 68.5661 386.949C67.4801 384.379 64.4791 383.009 61.9291 384.405C58.3891 386.343 57.6171 393.581 58.2951 397.12C58.3321 397.312 58.9231 399.228 59.3731 400.617C58.9531 399.88 58.5061 399.127 58.1171 398.413C56.6511 395.736 55.4751 393.194 54.4501 390.935C53.8781 389.645 53.3861 388.468 52.9381 387.361C53.5751 386.094 56.0781 380.958 56.2011 378.203C56.3221 375.514 55.7281 372.055 53.5341 370.237C51.3861 368.457 48.0921 368.623 46.4711 371.037C44.2221 374.389 46.8721 381.167 49.1051 383.997C49.2981 384.242 52.7551 387.719 52.7891 387.653C52.7891 387.653 52.8211 387.591 52.8281 387.577C53.2381 388.65 53.6901 389.797 54.2101 391.039C55.1871 393.325 56.3121 395.9 57.7251 398.62C59.1301 401.341 60.7331 404.258 62.6991 407.178C64.6661 410.108 66.8841 413.089 69.5671 415.865C69.5981 415.897 69.6331 415.925 69.6631 415.956C68.6261 415.388 65.6741 413.896 65.4341 413.807C62.0551 412.555 54.7891 412.122 52.2931 415.293C50.4951 417.579 51.3521 420.764 53.7071 422.259C56.1121 423.785 59.5861 423.285 62.1071 422.342C64.9501 421.278 69.6071 416.626 69.9761 416.254C72.5551 418.875 75.4151 421.354 78.4471 423.704C80.1791 425.05 81.9661 426.351 83.7731 427.633C82.8611 427.171 82.0411 426.764 81.9211 426.719C78.5411 425.467 71.2751 425.034 68.7801 428.206C66.9821 430.492 67.8391 433.677 70.1941 435.172C72.5991 436.699 76.0741 436.198 78.5951 435.255C81.1531 434.298 85.2031 430.411 86.2611 429.368C86.9601 429.852 87.6521 430.344 88.3521 430.826C91.7131 433.138 95.0761 435.431 98.3061 437.781C99.4451 438.609 100.536 439.465 101.631 440.319C100.82 439.909 100.134 439.571 100.024 439.53C96.6451 438.278 89.3791 437.844 86.8841 441.016C85.0861 443.301 85.9431 446.487 88.2991 447.982C90.7041 449.508 94.1781 449.008 96.6991 448.065C99.1401 447.152 102.911 443.598 104.174 442.365C105.268 443.273 106.367 444.18 107.386 445.109C108.068 445.759 108.77 446.338 109.419 447.029C110.076 447.7 110.726 448.364 111.369 449.021C112.562 450.333 113.802 451.679 114.933 452.988C115.727 453.892 116.467 454.769 117.215 455.65C116.092 454.813 113.856 453.221 113.655 453.109C110.505 451.359 103.389 449.83 100.441 452.588C98.3181 454.575 98.6821 457.853 100.784 459.687C102.931 461.561 106.44 461.592 109.075 461.041C111.976 460.435 117.093 456.718 117.73 456.25C118.96 457.711 120.145 459.145 121.241 460.515Z" fill="#578E7E"/>
<path d="M349.459 428.304H164.549C160.311 428.304 156.875 424.868 156.875 420.63V57.712C156.875 53.473 160.311 50.038 164.549 50.038H349.459C353.697 50.038 357.133 53.474 357.133 57.712V420.63C357.134 424.868 353.698 428.304 349.459 428.304Z" fill="#263238" stroke="#263238" stroke-miterlimit="10" stroke-linecap="round" stroke-linejoin="round"/>
<path d="M348.232 91.573H165.775V386.769H348.232V91.573Z" fill="white" stroke="#263238" stroke-miterlimit="10" stroke-linecap="round" stroke-linejoin="round"/>
<path d="M276.839 70.912H237.17C235.676 70.912 234.466 69.701 234.466 68.207C234.466 66.713 235.677 65.502 237.17 65.502H276.839C278.333 65.502 279.544 66.713 279.544 68.207C279.543 69.701 278.332 70.912 276.839 70.912Z" fill="white"/>
<path d="M267.823 403.437C267.823 397.462 262.979 392.618 257.004 392.618C251.029 392.618 246.186 397.462 246.186 403.437C246.186 409.412 251.03 414.256 257.004 414.256C262.979 414.256 267.823 409.412 267.823 403.437Z" fill="white" stroke="#263238" stroke-width="0.7043" stroke-miterlimit="10" stroke-linecap="round" stroke-linejoin="round"/>
<path d="M262.487 397.953H251.521V408.92H262.487V397.953Z" fill="#263238"/>
<path d="M361.78 274.833L360.601 283.83C360.601 283.83 355.718 317.259 359.098 334.537C362.478 351.815 368.864 369.469 369.24 373.6C369.616 377.732 367.362 393.883 369.991 407.029C372.62 420.175 377.503 446.092 377.503 446.092L373.371 455.858C373.371 455.858 364.732 461.492 363.605 463.37C362.478 465.248 364.356 465.999 364.356 465.999H391.4C391.4 465.999 392.527 463.745 392.527 459.614C392.527 455.482 392.527 435.951 392.527 433.321C392.527 430.692 394.029 385.994 395.532 378.106C397.034 370.218 398.537 310.496 398.537 310.496H400.04C400.04 310.496 407.177 369.842 409.055 376.228C410.933 382.613 418.821 410.033 421.075 415.667C423.329 421.301 425.958 440.833 427.46 445.716C428.962 450.599 430.465 456.233 430.84 459.238C431.216 462.243 432.718 465.999 432.718 465.999H453C453 465.999 453.376 462.619 451.873 460.365C450.37 458.111 440.605 448.345 439.102 441.209C437.599 434.072 441.356 401.019 440.98 389.375C440.604 377.731 437.224 376.229 437.224 366.087C437.224 355.946 440.98 325.146 440.98 310.497C440.98 295.848 439.032 282.345 435.311 274.636L430.088 269.556H365.483L361.78 274.833Z" fill="#D9D9D9" stroke="#263238" stroke-miterlimit="10" stroke-linecap="round" stroke-linejoin="round"/>
<path d="M442.154 447.92L442.107 447.971C442.107 447.971 436.848 444.591 434.97 447.22C433.092 449.849 433.092 451.352 433.092 451.352H429.089C429.929 454.458 430.603 457.362 430.838 459.24C431.214 462.245 432.716 466.001 432.716 466.001H453C453 466.001 453.376 462.621 451.873 460.367C450.812 458.774 445.637 453.434 442.154 447.92Z" fill="#578E7E" stroke="#263238" stroke-miterlimit="10" stroke-linecap="round" stroke-linejoin="round"/>
<path d="M432.717 466H453C453 466 453.128 464.82 452.926 463.391H431.807C432.273 464.887 432.717 466 432.717 466Z" fill="white" stroke="#263238" stroke-miterlimit="10" stroke-linecap="round" stroke-linejoin="round"/>
<path d="M392.527 459.615C392.527 458.458 392.527 456.093 392.527 453.23H385.39C385.39 453.23 385.766 450.225 382.385 447.971C379.004 445.717 375.624 450.976 375.624 450.976H375.436L373.37 455.859C373.37 455.859 364.731 461.493 363.604 463.371C362.477 465.249 364.355 466 364.355 466H391.4C391.4 466 392.527 463.746 392.527 459.615Z" fill="#578E7E" stroke="#263238" stroke-miterlimit="10" stroke-linecap="round" stroke-linejoin="round"/>
<path d="M363.595 463.391C362.495 465.254 364.357 466 364.357 466H391.4C391.4 466 391.849 465.095 392.18 463.391H363.595Z" fill="white" stroke="#263238" stroke-miterlimit="10" stroke-linecap="round" stroke-linejoin="round"/>
<path d="M438.998 427.36C439.632 414.572 441.232 397.175 440.981 389.376C440.605 377.732 437.225 376.23 437.225 366.088C437.225 355.947 440.981 325.147 440.981 310.498C440.981 295.849 439.033 282.346 435.312 274.637L430.089 269.557H365.484L361.78 274.833L360.601 283.83C360.601 283.83 355.718 317.259 359.099 334.537C362.479 351.815 368.865 369.469 369.24 373.6C369.616 377.732 367.362 393.883 369.991 407.029C371.145 412.801 372.734 421.034 374.153 428.455C378.538 429.41 385.536 430.548 392.607 430.125C392.935 419.246 394.234 384.926 395.533 378.108C397.035 370.22 398.538 310.498 398.538 310.498H400.04C400.04 310.498 407.177 369.844 409.055 376.23C410.933 382.615 418.821 410.035 421.074 415.669C422.034 418.07 423.063 422.995 424.043 428.234C428.083 428.936 433.27 429.067 438.998 427.36Z" fill="white" stroke="#263238" stroke-miterlimit="10" stroke-linecap="round" stroke-linejoin="round"/>
<path d="M404.547 307.118L424.829 290.966" stroke="#263238" stroke-miterlimit="10" stroke-linecap="round" stroke-linejoin="round"/>
<path d="M374.874 292.469L385.391 301.108" stroke="#263238" stroke-miterlimit="10" stroke-linecap="round" stroke-linejoin="round"/>
<path d="M418.957 110.46C418.957 110.46 410.329 105.362 410.525 108.107C410.721 110.852 414.447 112.813 414.447 112.813C414.447 112.813 402.094 111.048 400.133 111.833C398.172 112.617 401.505 113.598 401.505 113.598C401.505 113.598 386.21 125.363 380.916 133.403C375.622 141.442 370.916 153.208 376.406 162.227C381.896 171.247 389.936 178.306 403.466 182.228C416.996 186.15 430.33 182.032 439.35 178.306C448.37 174.58 457.39 163.992 455.821 150.658C454.252 137.324 442.487 123.402 433.663 113.99C424.839 104.578 419.349 105.95 419.349 107.323C419.349 108.695 418.957 110.46 418.957 110.46Z" fill="#263238" stroke="#263238" stroke-miterlimit="10" stroke-linecap="round" stroke-linejoin="round"/>
<path d="M397.838 166.162L395.82 181.246C395.82 181.246 381.506 185.952 376.212 188.109C370.918 190.266 368.565 193.011 367.584 195.364C366.603 197.717 352.565 230.321 351.976 233.458C351.388 236.595 352.368 237.968 356.682 239.929C360.996 241.89 372.957 234.635 372.957 234.635L374.526 240.125C374.526 240.125 366.683 253.459 365.31 257.773C363.937 262.087 361.78 274.832 361.78 274.832C361.78 274.832 376.682 282.283 400.213 281.695C423.743 281.107 435.312 274.636 435.312 274.636C435.312 274.636 432.763 261.89 430.018 254.439C427.273 246.988 424.92 244.046 424.92 241.105C424.92 238.164 433.548 222.869 433.548 222.869L451.776 231.463C451.776 231.463 447.47 216.594 446.293 206.594C445.116 196.594 443.076 194.971 439.155 191.442C435.233 187.913 417.978 182.814 417.39 182.422C416.802 182.03 418.174 165.559 418.174 165.559C418.174 165.559 403.328 169.496 397.838 166.162Z" fill="#D9D9D9" stroke="#263238" stroke-miterlimit="10" stroke-linecap="round" stroke-linejoin="round"/>
<path d="M409.215 176.495C411.957 175.467 415.214 172.896 417.785 170.582C417.989 167.767 418.173 165.56 418.173 165.56C418.173 165.56 403.328 169.496 397.838 166.163L396.494 176.205C399.533 178.904 404.491 178.266 409.215 176.495Z" fill="#263238" stroke="#263238" stroke-miterlimit="10" stroke-linecap="round" stroke-linejoin="round"/>
<path d="M430.017 254.44C427.272 246.989 424.919 244.047 424.919 241.106C424.919 238.165 433.547 222.87 433.547 222.87L451.775 231.464C451.775 231.464 447.469 216.595 446.292 206.595C445.656 201.186 444.763 198.235 443.46 196.101C415.522 199.646 384.494 193.28 372.068 190.27C369.582 191.941 368.258 193.746 367.583 195.365C366.603 197.718 352.564 230.322 351.976 233.459C351.388 236.596 352.368 237.969 356.682 239.93C360.996 241.891 372.957 234.636 372.957 234.636L374.526 240.126C374.526 240.126 366.683 253.46 365.31 257.774C363.937 262.088 361.78 274.833 361.78 274.833C361.78 274.833 376.682 282.284 400.213 281.696C423.743 281.108 435.312 274.637 435.312 274.637C435.312 274.637 432.762 261.891 430.017 254.44Z" fill="#578E7E" stroke="#263238" stroke-miterlimit="10" stroke-linecap="round" stroke-linejoin="round"/>
<path d="M375.481 229.237C375.481 229.237 371.575 221.07 372.64 216.809C373.705 212.548 374.416 211.483 374.416 211.483" stroke="#263238" stroke-miterlimit="10" stroke-linecap="round" stroke-linejoin="round"/>
<path d="M446.292 206.595C445.656 201.186 444.763 198.235 443.46 196.101C415.522 199.646 384.494 193.28 372.068 190.27C369.582 191.941 368.258 193.746 367.583 195.365C367.238 196.193 365.272 200.777 362.846 206.499C373.84 209.469 415.981 219.926 447.715 215.039C447.117 212.126 446.598 209.196 446.292 206.595Z" fill="#578E7E" stroke="#263238" stroke-miterlimit="10" stroke-linecap="round" stroke-linejoin="round"/>
<path d="M401.672 129.695L426.7 145.809L426.014 152.323C426.014 152.323 430.471 147.866 431.157 152.666C431.843 157.466 430.128 159.866 427.043 161.237C423.957 162.608 422.243 162.266 422.243 162.266C422.243 162.266 414.7 170.494 409.215 172.551C403.729 174.608 397.92 175.149 395.177 170.692C392.434 166.235 388.644 158.151 389.672 153.351C390.701 148.551 399.958 129.694 399.958 129.694H401.672V129.695Z" fill="#D9D9D9" stroke="#263238" stroke-miterlimit="10" stroke-linecap="round" stroke-linejoin="round"/>
<path d="M404.129 144.929C404.129 144.929 404.129 147.086 402.952 148.263C401.776 149.439 399.03 151.008 399.03 152.185C399.03 153.362 401.579 155.714 403.932 155.518" stroke="#263238" stroke-miterlimit="10" stroke-linecap="round" stroke-linejoin="round"/>
<path d="M399.815 158.066C399.815 158.066 403.345 160.811 407.658 157.87" stroke="#263238" stroke-miterlimit="10" stroke-linecap="round" stroke-linejoin="round"/>
<path d="M409.227 147.87C409.227 147.87 413.541 146.301 415.894 149.635" stroke="#263238" stroke-miterlimit="10" stroke-linecap="round" stroke-linejoin="round"/>
<path d="M395.893 145.909C395.893 145.909 399.423 144.34 401.187 146.301" stroke="#263238" stroke-miterlimit="10" stroke-linecap="round" stroke-linejoin="round"/>
<path d="M398.05 139.242C398.05 139.242 399.815 136.693 403.54 137.673" stroke="#263238" stroke-miterlimit="10" stroke-linecap="round" stroke-linejoin="round"/>
<path d="M411.188 139.635C411.188 139.635 416.678 139.831 417.855 144.929" stroke="#263238" stroke-miterlimit="10" stroke-linecap="round" stroke-linejoin="round"/>
<path d="M360.995 226.988C360.995 226.988 354.916 229.341 352.956 233.067C350.995 236.793 351.387 245.42 359.035 247.577C366.682 249.734 423.155 238.361 423.155 238.361C423.155 238.361 426.292 243.067 427.665 244.44C429.038 245.813 432.567 248.558 432.763 249.734C432.959 250.91 433.351 258.362 434.92 258.754C436.489 259.146 435.9 255.224 435.9 255.224C435.9 255.224 438.449 251.498 438.449 249.734C438.449 247.969 438.841 242.283 438.449 240.91C438.057 239.538 428.841 231.498 426.88 230.91C424.919 230.322 374.722 228.949 370.015 228.165C365.309 227.38 362.564 226.792 360.995 226.988Z" fill="#D9D9D9" stroke="#263238" stroke-miterlimit="10" stroke-linecap="round" stroke-linejoin="round"/>
<path d="M410.969 173.027L416.978 177.021C418.04 177.727 419.474 177.438 420.18 176.376L432.289 158.157C432.995 157.095 432.706 155.661 431.644 154.955L425.635 150.961C424.573 150.255 423.139 150.544 422.433 151.606L410.324 169.825C409.618 170.887 409.907 172.321 410.969 173.027Z" fill="#578E7E" stroke="#263238" stroke-miterlimit="10"/>
<path d="M428.99 173.353C428.99 173.353 430.226 170.174 431.463 167.877C432.699 165.581 432.699 164.521 431.816 164.521C430.933 164.521 428.637 165.581 427.93 168.23C427.223 170.879 427.577 174.059 427.577 174.059L428.99 173.353Z" fill="#D9D9D9" stroke="#263238" stroke-miterlimit="10"/>
<path d="M418.392 185.54C418.392 185.54 428.46 175.472 428.813 174.589C429.117 173.83 428.768 162.236 428.664 158.997C428.648 158.509 428.294 158.1 427.814 158.013C427.213 157.904 426.649 158.336 426.597 158.944L425.81 168.23L423.502 156.526C423.406 156.04 422.98 155.689 422.484 155.689C421.891 155.689 421.419 156.186 421.448 156.778L422.1 169.819L419.196 158.688C419.044 158.106 418.447 157.761 417.867 157.919C417.355 158.059 417.02 158.55 417.078 159.078L418.391 171.055L415.918 173.175V168.936L412.959 163.953C412.735 163.576 412.258 163.436 411.866 163.632C411.465 163.832 411.293 164.313 411.477 164.722L413.445 169.113C413.445 169.113 409.559 185.01 409.382 185.54C409.205 186.07 410.089 188.896 410.618 189.956C411.148 191.016 434.816 241.179 436.229 243.122C437.642 245.065 447.18 248.068 451.419 243.475C455.658 238.883 454.245 234.29 451.949 228.991C449.655 223.692 418.392 185.54 418.392 185.54Z" fill="#D9D9D9" stroke="#263238" stroke-miterlimit="10"/>
<path d="M254 191C277.196 191 296 172.196 296 149C296 125.804 277.196 107 254 107C230.804 107 212 125.804 212 149C212 172.196 230.804 191 254 191Z" fill="#578E7E"/>
<path d="M279.645 129.989H229.858L254.397 153.645L279.645 129.989Z" fill="#263238"/>
<path d="M264.368 148.415L281.701 163.732V132.174L264.368 148.415Z" fill="#263238"/>
<path d="M244.617 148.384L227.064 131.462V163.012L244.617 148.384Z" fill="#263238"/>
<path d="M262.169 150.475L254.368 157.784L246.79 150.479L228.523 165.701H279.399L262.169 150.475Z" fill="#263238"/>
<path d="M254 283C277.196 283 296 264.196 296 241C296 217.804 277.196 199 254 199C230.804 199 212 217.804 212 241C212 264.196 230.804 283 254 283Z" fill="#578E7E"/>
<path d="M248.395 227.749C248.99 228.769 250.029 229.023 251.06 228.458C252.427 227.709 253.802 226.961 255.09 226.09C255.583 225.757 255.847 225.086 256.191 224.604C255.942 224.008 255.815 223.604 255.614 223.241C255.066 222.249 254.486 221.274 253.919 220.292C251.988 216.947 250.062 213.6 248.125 210.259C247.348 208.918 246.368 208.659 245.015 209.43C243.783 210.131 242.546 210.825 241.339 211.567C240.308 212.2 240.009 213.193 240.591 214.213C243.171 218.737 245.77 223.25 248.395 227.749Z" fill="#263238"/>
<path d="M277.222 260.664C274.694 256.261 272.157 251.864 269.605 247.475C268.904 246.27 267.94 246.007 266.732 246.674C265.457 247.377 264.197 248.107 262.949 248.856C261.912 249.478 261.586 250.477 262.123 251.501L270.403 265.626C271.002 266.152 271.804 266.228 272.593 265.799C273.933 265.069 275.279 264.337 276.548 263.493C277.052 263.158 277.354 262.521 277.731 262.042C277.513 261.442 277.426 261.02 277.222 260.664Z" fill="#263238"/>
<path d="M260.08 252.412C258.323 253.035 256.659 252.837 255.044 251.974C254.205 251.526 253.373 251.012 252.663 250.385C248.875 247.039 246.476 242.832 245.309 237.946C244.583 234.906 244.383 231.926 246.679 229.552L238.155 215.01C237.484 215.44 236.841 215.853 236.232 216.278C233.685 218.057 232.272 220.523 232.502 223.617C232.722 226.572 233.022 229.577 233.793 232.424C236.547 242.592 241.693 251.523 248.496 259.514C251.105 262.578 254.021 265.333 257.503 267.416C261.104 269.571 265.387 269.346 268.579 266.909L260.08 252.412Z" fill="#263238"/>
<path d="M254 375C277.196 375 296 356.196 296 333C296 309.804 277.196 291 254 291C230.804 291 212 309.804 212 333C212 356.196 230.804 375 254 375Z" fill="#578E7E"/>
<path d="M247.811 340.875H238.476V345.6C238.476 348.679 240.864 351.196 243.888 351.413L247.811 340.875Z" fill="#263238"/>
<path d="M273.823 324.667H269.784V332.903C269.784 337.299 266.208 340.875 261.812 340.875H261.674L247.405 351.434H262.9L259.067 361.729L272.98 351.434H273.823C277.045 351.434 279.657 348.822 279.657 345.6V330.5C279.656 327.279 277.045 324.667 273.823 324.667Z" fill="#263238"/>
<path d="M261.812 311.97H232.3C229.078 311.97 226.466 314.582 226.466 317.804V332.903C226.466 336.125 229.078 338.737 232.3 338.737H250.889L247.056 349.032L260.969 338.737H261.812C265.034 338.737 267.646 336.125 267.646 332.903V317.804C267.646 314.581 265.034 311.97 261.812 311.97Z" fill="#263238"/>
<path d="M238.973 327.058C240.126 327.058 241.06 326.124 241.06 324.971C241.06 323.818 240.126 322.884 238.973 322.884C237.82 322.884 236.886 323.818 236.886 324.971C236.886 326.124 237.82 327.058 238.973 327.058Z" fill="#578E7E"/>
<path d="M249.567 324.971C249.567 326.123 248.633 327.058 247.48 327.058C246.328 327.058 245.393 326.124 245.393 324.971C245.393 323.818 246.327 322.884 247.48 322.884C248.632 322.884 249.567 323.819 249.567 324.971Z" fill="#578E7E"/>
<path d="M258.074 324.971C258.074 326.123 257.14 327.058 255.987 327.058C254.834 327.058 253.9 326.124 253.9 324.971C253.9 323.818 254.834 322.884 255.987 322.884C257.14 322.884 258.074 323.819 258.074 324.971Z" fill="#578E7E"/>
<path d="M153.174 210.609L153.931 209.578L166.324 192.703C166.324 192.703 168.003 182.631 168.842 180.113C169.681 177.595 171.36 172.279 171.92 170.321C172.48 168.363 173.039 166.124 174.158 166.964C175.277 167.803 175.277 171.161 174.718 172.839C174.158 174.518 174.158 176.756 174.438 177.595C174.718 178.434 189.546 165.844 190.945 166.963C192.344 168.082 190.385 173.398 187.588 177.035C184.79 180.672 173.319 193.822 173.319 193.822C173.319 193.822 160.169 229.075 156.252 234.67C152.335 240.266 151.496 237.748 147.579 234.67C143.662 231.592 138.626 224.598 138.626 224.598L153.174 210.609Z" fill="white" stroke="#263238" stroke-miterlimit="10" stroke-linecap="round" stroke-linejoin="round"/>
<path d="M173.598 187.107C173.598 187.107 174.997 182.071 176.396 180.952C177.795 179.833 183.111 176.475 183.111 176.475L186.748 165.284C186.748 165.284 187.867 164.445 187.587 166.963C187.307 169.481 186.748 175.077 185.908 177.595C185.069 180.113 181.431 184.59 181.431 184.59" fill="white"/>
<path d="M173.598 187.107C173.598 187.107 174.997 182.071 176.396 180.952C177.795 179.833 183.111 176.475 183.111 176.475L186.748 165.284C186.748 165.284 187.867 164.445 187.587 166.963C187.307 169.481 186.748 175.077 185.908 177.595C185.069 180.113 181.431 184.59 181.431 184.59" stroke="#263238" stroke-miterlimit="10" stroke-linecap="round" stroke-linejoin="round"/>
<path d="M133.03 167.802L154.573 210.049L138.066 226.836L133.31 210.889L133.03 167.802Z" fill="#578E7E" stroke="#263238" stroke-miterlimit="10" stroke-linecap="round" stroke-linejoin="round"/>
<path d="M136.093 220.223L138.066 226.836L154.573 210.049L151.604 204.227L136.093 220.223Z" fill="#263238" stroke="#263238" stroke-miterlimit="10"/>
<path d="M81.3757 445.982L79.3877 453.909C79.3877 453.909 67.6567 460.406 66.7547 461.308C65.8527 462.21 66.2137 466 66.2137 466H99.7817C99.7817 466 100.143 462.21 99.0597 457.337C98.4337 454.518 98.1337 446.726 98.1337 446.726L81.3757 445.982Z" fill="#263238" stroke="#263238" stroke-miterlimit="10" stroke-linecap="round" stroke-linejoin="round"/>
<path d="M66.2139 466H99.7819C99.7819 466 99.8579 465.185 99.8339 463.834H66.1509C66.1159 464.956 66.2139 466 66.2139 466Z" fill="white" stroke="#263238" stroke-miterlimit="10" stroke-linecap="round" stroke-linejoin="round"/>
<path d="M67.4768 460.947C67.4768 460.947 70.1838 458.24 75.5978 457.338C81.0118 456.436 85.8848 458.421 86.9678 459.504C88.0508 460.587 88.7728 463.655 88.7728 463.655L66.1518 463.835C66.1518 463.835 64.9498 461.669 67.4768 460.947Z" fill="white" stroke="#263238" stroke-miterlimit="10" stroke-linecap="round" stroke-linejoin="round"/>
<path d="M96.3529 452.374C96.3529 454.318 95.6659 455.893 94.8189 455.893C93.9719 455.893 93.2849 454.317 93.2849 452.374C93.2849 450.43 93.9719 448.855 94.8189 448.855C95.6659 448.855 96.3529 450.431 96.3529 452.374Z" fill="white" stroke="#263238" stroke-miterlimit="10" stroke-linecap="round" stroke-linejoin="round"/>
<path d="M165.181 445.982L167.169 453.909C167.169 453.909 178.9 460.406 179.802 461.308C180.704 462.21 180.343 466 180.343 466H146.775C146.775 466 146.414 462.21 147.497 457.337C148.123 454.518 148.423 446.726 148.423 446.726L165.181 445.982Z" fill="#263238" stroke="#263238" stroke-miterlimit="10" stroke-linecap="round" stroke-linejoin="round"/>
<path d="M180.344 466H146.776C146.776 466 146.7 465.185 146.724 463.834H180.406C180.442 464.956 180.344 466 180.344 466Z" fill="white" stroke="#263238" stroke-miterlimit="10" stroke-linecap="round" stroke-linejoin="round"/>
<path d="M179.08 460.947C179.08 460.947 176.373 458.24 170.959 457.338C165.545 456.436 160.672 458.421 159.589 459.504C158.506 460.587 157.784 463.655 157.784 463.655L180.405 463.835C180.405 463.835 181.607 461.669 179.08 460.947Z" fill="white" stroke="#263238" stroke-miterlimit="10" stroke-linecap="round" stroke-linejoin="round"/>
<path d="M150.205 452.374C150.205 454.318 150.892 455.893 151.739 455.893C152.586 455.893 153.273 454.317 153.273 452.374C153.273 450.43 152.586 448.855 151.739 448.855C150.892 448.855 150.205 450.431 150.205 452.374Z" fill="white" stroke="#263238" stroke-miterlimit="10" stroke-linecap="round" stroke-linejoin="round"/>
<path d="M81.004 277.657L79.886 295.16L81.376 445.982L98.134 446.726L114.892 307.449L117.126 306.704L148.423 446.726L165.181 445.982L157.718 352.137L146.459 271.602L81.004 277.657Z" fill="white" stroke="#263238" stroke-miterlimit="10" stroke-linecap="round" stroke-linejoin="round"/>
<path d="M116.362 282.409V295.182L119.845 289.376L120.426 280.667" stroke="#808080" stroke-miterlimit="10" stroke-linecap="round" stroke-linejoin="round"/>
<path d="M92.4608 165.844C92.4608 165.844 54.6898 182.351 54.1308 184.03C53.5708 185.709 43.4988 227.396 45.1778 231.313C46.8568 235.23 51.8928 238.308 57.2088 236.349C62.5248 234.391 67.5608 213.966 67.5608 213.966C67.5608 213.966 79.3118 249.778 79.3118 253.415C79.3118 257.052 80.4308 279.435 80.4308 279.435C80.4308 279.435 101.974 282.513 119.88 278.316C137.786 274.119 146.459 271.601 146.459 271.601L138.066 220.401C138.066 220.401 133.589 169.76 133.03 167.802C132.47 165.844 100.575 165.284 98.0568 165.564C95.5388 165.844 92.4608 165.844 92.4608 165.844Z" fill="#578E7E" stroke="#263238" stroke-miterlimit="10" stroke-linecap="round" stroke-linejoin="round"/>
<path d="M63.8099 225.951C62.3819 221.577 59.8449 217.464 57.1419 215.062C54.0219 212.289 49.8689 213.862 47.0279 215.58C45.5289 223.348 44.5619 229.876 45.1779 231.314C46.8569 235.231 51.8929 238.309 57.2089 236.35C59.6139 235.463 61.9599 230.795 63.8099 225.951Z" fill="#263238" stroke="#263238" stroke-miterlimit="10"/>
<path d="M74.8658 236.949L138.583 223.559L138.065 220.402C138.065 220.402 137.973 219.366 137.815 217.589L73.0798 231.193C73.6798 233.104 74.2818 235.043 74.8658 236.949Z" fill="#263238"/>
<path d="M146.459 271.602L140.174 233.261L77.6157 246.219C78.6357 249.832 79.3107 252.547 79.3107 253.415C79.3107 257.052 80.4297 279.435 80.4297 279.435C80.4297 279.435 101.973 282.513 119.879 278.316C137.786 274.12 146.459 271.602 146.459 271.602Z" fill="#263238" stroke="#263238" stroke-miterlimit="10"/>
<path d="M98.0568 165.564C95.5388 165.844 92.4608 165.844 92.4608 165.844C92.4608 165.844 85.3758 168.941 77.2988 172.587L109.975 206.353C109.975 206.353 116.942 172.679 116.361 169.776C116.111 168.527 115.646 167.064 115.198 165.801C107.193 165.489 99.2618 165.43 98.0568 165.564Z" fill="#263238" stroke="#263238" stroke-miterlimit="10"/>
<path d="M108.689 156.051C108.689 156.051 110.368 170.6 111.207 173.398C112.046 176.196 106.451 195.781 106.451 195.781C106.451 195.781 90.2238 179.274 88.2648 174.518C86.3058 169.762 81.8298 153.254 81.8298 153.254C81.8298 153.254 96.0978 160.528 108.689 156.051Z" fill="white" stroke="#263238" stroke-miterlimit="10" stroke-linecap="round" stroke-linejoin="round"/>
<path d="M81.8289 153.253C81.8289 153.253 82.8509 157.021 84.1309 161.474C84.8119 161.849 85.6309 162.281 86.6289 162.78C91.7259 165.328 97.3889 166.744 103.618 165.895C106.292 165.53 108.065 163.858 109.376 161.693C108.978 158.561 108.688 156.052 108.688 156.052C96.0979 160.528 81.8289 153.253 81.8289 153.253Z" fill="#263238" stroke="#263238" stroke-miterlimit="10" stroke-linecap="round" stroke-linejoin="round"/>
<path d="M101.498 119.329C101.498 119.329 105.745 127.823 108.577 131.504C111.408 135.185 115.938 143.395 113.958 148.209C111.981 153.014 110.682 161.219 104.33 162.085C98.101 162.935 92.438 161.519 87.341 158.97C82.244 156.422 81.678 155.572 81.678 155.572C81.678 155.572 77.431 155.572 74.882 153.59C72.334 151.608 67.237 145.379 68.653 139.999C70.069 134.619 73.466 134.053 73.466 134.053C73.466 134.053 66.387 131.222 70.918 124.143C75.448 117.064 85.076 114.516 89.606 114.516C94.136 114.516 101.498 119.329 101.498 119.329Z" fill="white" stroke="#263238" stroke-miterlimit="10" stroke-linecap="round" stroke-linejoin="round"/>
<path d="M100.082 128.673C100.082 128.673 100.648 129.806 102.63 131.221C104.612 132.637 107.444 131.787 106.594 134.336C105.744 136.884 103.762 137.734 102.064 137.451" stroke="#263238" stroke-miterlimit="10" stroke-linecap="round" stroke-linejoin="round"/>
<path d="M106.878 140.566C106.878 140.566 101.498 143.681 97.817 143.397C94.136 143.114 92.437 141.698 92.437 141.698" stroke="#263238" stroke-miterlimit="10" stroke-linecap="round" stroke-linejoin="round"/>
<path d="M94.9851 143.397C94.9851 143.397 96.9671 150.476 99.7991 148.211C102.631 145.946 103.197 142.265 103.197 142.265C103.197 142.265 98.9491 143.963 94.9851 143.397Z" fill="#263238" stroke="#263238" stroke-miterlimit="10" stroke-linecap="round" stroke-linejoin="round"/>
<path d="M94.7061 131.126C95.3331 132.11 95.3531 133.219 94.7501 133.603C94.1471 133.987 93.1501 133.501 92.5231 132.518C91.8961 131.534 91.8761 130.425 92.4791 130.041C93.0821 129.657 94.0791 130.143 94.7061 131.126Z" fill="#263238"/>
<path d="M103.748 126.852C104.375 127.836 104.395 128.945 103.792 129.329C103.189 129.713 102.192 129.227 101.565 128.244C100.938 127.26 100.918 126.151 101.521 125.767C102.123 125.382 103.12 125.868 103.748 126.852Z" fill="#263238"/>
<path d="M88.7729 130.277C88.7729 130.277 89.5949 126.496 92.5539 126.003" stroke="#263238" stroke-miterlimit="10" stroke-linecap="round" stroke-linejoin="round"/>
<path d="M98.4719 124.359C98.4719 124.359 100.116 121.236 102.746 122.551" stroke="#263238" stroke-miterlimit="10" stroke-linecap="round" stroke-linejoin="round"/>
<path d="M74.3149 128.107C74.3149 128.107 92.7199 128.107 94.1359 124.992C95.5519 121.877 91.3049 119.612 91.3049 119.612C91.3049 119.612 107.161 120.178 108.86 115.365C110.559 110.552 103.197 108.569 100.932 108.569C98.6669 108.569 97.5339 108.569 97.5339 108.569C97.5339 108.569 96.6849 101.49 88.4729 103.189C80.2619 104.888 64.4049 115.648 62.4229 121.877C60.4409 128.106 55.9099 130.088 59.3079 137.45C62.7059 144.812 72.0499 150.758 72.0499 150.758C72.0499 150.758 70.6339 145.378 73.4659 145.095C76.2979 144.812 81.1109 146.794 81.9609 146.794C82.8109 146.794 85.3589 144.529 83.9429 143.113C82.5269 141.697 81.1119 140.848 80.8279 139.998C80.5449 139.148 82.2439 136.317 81.1109 133.769C79.9779 131.221 74.3149 128.107 74.3149 128.107Z" fill="#263238" stroke="#263238" stroke-miterlimit="10" stroke-linecap="round" stroke-linejoin="round"/>
<path d="M90.0558 161.697L83.4948 166.058C82.4328 166.764 80.9998 166.475 80.2938 165.413L67.3628 145.959C66.6568 144.897 66.9458 143.463 68.0078 142.757L74.5688 138.396C75.6308 137.69 77.0648 137.979 77.7708 139.041L90.7008 158.495C91.4068 159.558 91.1178 160.992 90.0558 161.697Z" fill="#578E7E" stroke="#263238" stroke-miterlimit="10"/>
<path d="M70.9179 162.113C70.9179 162.113 69.6119 158.756 68.3069 156.331C67.0009 153.906 67.0009 152.787 67.9339 152.787C68.8669 152.787 71.2909 153.906 72.0379 156.704C72.7839 159.502 72.4109 162.859 72.4109 162.859L70.9179 162.113Z" fill="white" stroke="#263238" stroke-miterlimit="10"/>
<path d="M82.1089 174.983C82.1089 174.983 71.4769 164.351 71.1039 163.419C70.7829 162.617 71.1519 150.375 71.2619 146.954C71.2789 146.439 71.6519 146.007 72.1589 145.914C72.7929 145.799 73.3889 146.255 73.4439 146.897L74.2749 156.703L76.7119 144.343C76.8129 143.83 77.2629 143.46 77.7869 143.46C78.4129 143.46 78.9119 143.984 78.8809 144.61L78.1919 158.382L81.2579 146.628C81.4179 146.014 82.0489 145.649 82.6609 145.816C83.2019 145.963 83.5559 146.483 83.4939 147.04L82.1079 159.688L84.7189 161.926V157.449L87.8429 152.187C88.0789 151.789 88.5829 151.641 88.9969 151.848C89.4199 152.06 89.6009 152.567 89.4079 152.999L87.3299 157.635C87.3299 157.635 91.4339 174.422 91.6199 174.982C91.8059 175.542 90.8739 178.526 90.3139 179.645C89.7539 180.764 64.7609 233.736 63.2679 235.788C61.7759 237.84 51.7039 241.011 47.2269 236.161C42.7509 231.311 44.2429 226.462 46.6679 220.866C49.0949 215.272 82.1089 174.983 82.1089 174.983Z" fill="white" stroke="#263238" stroke-miterlimit="10"/>
<path d="M85.845 288.457L99.996 296.65" stroke="#808080" stroke-miterlimit="10" stroke-linecap="round" stroke-linejoin="round"/>
<path d="M143.194 282.871L134.629 294.043" stroke="#808080" stroke-miterlimit="10" stroke-linecap="round" stroke-linejoin="round"/>
<path d="M30 466H477" stroke="#263238" stroke-miterlimit="10" stroke-linecap="round" stroke-linejoin="round"/>
</svg>
